<?xml version="1.0" encoding="UTF-8"?>
<!-- Generator: Adobe Illustrator 26.0.1, SVG Export Plug-In . SVG Version: 6.00 Build 0)  -->
<svg version="1.1" id="Layer_1" xmlns="http://www.w3.org/2000/svg" xmlns:xlink="http://www.w3.org/1999/xlink" x="0px" y="0px" viewBox="0 0 297 341" style="enable-background:new 0 0 297 341;" xml:space="preserve">
<style type="text/css">
	.st0{fill:#FEFEFE;}
	.st1{fill:#141A24;}
	.st2{fill:#95AFA2;}
	.st3{fill:#EFBF97;}
	.st4{fill:#467A7C;}
	.st5{fill:#D79770;}
	.st6{fill:#E2443E;}
	.st7{fill:#A53125;}
	.st8{fill:#4F5762;}
	.st9{fill:#83261D;}
	.st10{fill:#C8E9D8;}
	.st11{fill:#E2CB76;}
	.st12{fill:#70492A;}
	.st13{fill:#F7D7B7;}
</style>
<g>
	<path class="st0" d="M84.5,34.5c-5.3,0-10.5,0-16,0c0,5.7,0,10.9,0,16c-5.3,0-10.5,0-16,0c0,11.1,0,21.5,0,32c-5.3,0-10.5,0-16,0   c0,16.4,0,32.2,0,48c-5.3,0-10.5,0-16,0c0,5.7,0,10.8,0,16c-5.3,0-10.5,0-15.7,0c0,21.7,0,42.7,0,64.1c5.4,0,10.5,0,15.7,0   c0,5.3,0,10.5,0,16.2c5.7,0,10.8,0,16.3,0c0,5.5,0,10.5,0,15.7c5.6,0,10.7,0,15.8,0c0,5.3,0,10.5,0,16.2c5.6,0,10.7,0,16.1,0   c0,21.5,0,42.5,0,63.8c5.5,0,10.7,0,15.8,0c0,5.3,0,10.5,0,15.7c11,0,21.4,0,32,0c0-5.4,0-10.6,0-15.7c5.3,0,10.5,0,16.2,0   c0-5.6,0-10.7,0-15.7c10.8,0,21.2,0,32,0c0,5.4,0,10.4,0,15.7c5.5,0,10.7,0,15.8,0c0,5.3,0,10.5,0,15.7c11,0,21.4,0,32,0   c0-5.4,0-10.6,0-15.7c5.3,0,10.5,0,16.2,0c0-21.6,0-42.7,0-64.2c5.5,0,10.6,0,15.8,0c0-5.6,0-10.7,0-15.9c5.3,0,10.5,0,16.2,0   c0-5.6,0-10.6,0-16.1c5.5,0,10.6,0,15.9,0c0-5.5,0-10.7,0-15.8c5.3,0,10.5,0,15.7,0c0-21.7,0-42.7,0-64c-5.4,0-10.6,0-15.7,0   c0-5.3,0-10.5,0-16c-5.7,0-10.9,0-16,0c0-15.9,0-31.8,0-48c-5.7,0-10.9,0-16,0c0-10.6,0-21.2,0-32c-5.7,0-10.9,0-16,0   c0-5.3,0-10.5,0-16c-5.7,0-10.9,0-16,0c0-5.3,0-10.5,0-16c-5.7,0-10.9,0-16,0c0-5.3,0-10.5,0-15.7c-32.3,0-64,0-96,0   c0,5.4,0,10.6,0,15.7c-5.3,0-10.5,0-16,0C84.5,24.2,84.5,29.4,84.5,34.5z"/>
	<path class="st1" d="M180.5,322.5c-5.1,0-10.3,0-15.8,0c0-5.3,0-10.3,0-15.7c-10.8,0-21.2,0-32,0c0,5,0,10.1,0,15.7   c-5.7,0-10.9,0-16.2,0l0,0c0-5.2,0-10.5,0-15.7c-11.1,0-21.3,0-32,0c0,5.4,0,10.6,0,15.7l0,0c-5.1,0-10.3,0-15.8,0   c0-21.3,0-42.4,0-63.8c-5.5,0-10.5,0-16.1,0c0-5.7,0-10.9,0-16.2c0,0-0.1,0.1-0.1,0.1c10.7,0,21.4-0.1,32.1-0.1   c0,10.6,0,21.2,0,32.1c5.6,0,10.6,0,16,0c0,5.4,0,10.5,0,15.9c32.4,0,64.2,0,96,0l-0.1-0.1c0,5.3,0,10.6,0,15.9c-5.2,0-10.4,0-16,0   C180.5,312.3,180.5,317.4,180.5,322.5L180.5,322.5z"/>
	<path class="st1" d="M276.5,210.5c0,5.1,0,10.3,0,15.8c-5.3,0-10.4,0-15.9,0c0,5.5,0,10.5,0,16.1c-5.7,0-10.9,0-16.2,0l0.1,0.1   c0-5.3,0-10.5,0-16.2c-5.7,0-10.9,0-16,0c0-5.1,0-10.2,0-15.9c-5.8,0-10.8,0-15.9,0c0-5.2,0-10.4,0-15.9c-5.9,0-11,0-16.1,0   c0-5.2,0-10.5,0-16.2c5.7,0,10.7,0,15.8,0c0-11,0-21.4,0-31.8c0-5.3,0.1-10.7,0.1-16c5.2,0,10.5,0,16.2,0c0,5.8,0,10.9,0,16   c0,5.2,0,10.4,0,16.1c5.6,0,10.7,0,15.8,0l0,0c0,5.2,0,10.5,0,15.6c5.8,0.9,10.8-0.3,16.1,0.9c0,10.4,0,20.6,0,31.4   C266.2,210.5,271.3,210.5,276.5,210.5L276.5,210.5z"/>
	<path class="st1" d="M52.6,242.4c-5.1,0-10.3,0-15.8,0c0-5.2,0-10.3,0-15.7c-5.5,0-10.5,0-16.3,0c0-5.7,0-10.9,0-16.2l0.1-0.1   c5.2,0,10.4,0,15.8,0c0-5.8,0-10.9,0-16c0.6-5.2-0.5-10.5,0.7-16.1c5.2,0,10.1,0,15,0c1.1-5.4-0.4-10.6,1.1-16c5,0,9.9,0,15.5,0   c0-5.6,0-10.7,0-15.8c5.2,0,10.4-0.1,15.6-0.1c0,10.6,0,21.1,0,32.2c5.8,0,10.9,0,16.2,0c0,5.6,0,10.8,0,15.9c-5.2,0-10.4,0-16.1,0   c0,5.7,0,10.8,0,15.9c-5.1,0-10.2,0-15.9,0c0,5.8,0,10.9,0,15.9c-5.2,0-10.5,0-16,0C52.5,232.3,52.5,237.4,52.6,242.4L52.6,242.4z"/>
	<path class="st1" d="M244.5,242.4c0,5.1,0,10.3,0,15.9c-5.2,0-10.3,0-15.8,0c0,21.5,0,42.5,0,64.2c-5.7,0-10.9,0-16.2,0   c0,0,0,0,0,0c0-5.3-0.1-10.7-0.1-16c0-5.2,0-10.5,0-16c-5.7,0-10.8,0-15.9,0l0.1,0.1c0-5.2,0-10.5,0-15.7   c5.6-0.9,10.8,0.3,15.9-0.9c0-10.7,0-21.1,0-31.5C223.2,242.5,233.9,242.5,244.5,242.4L244.5,242.4z"/>
	<path class="st1" d="M100.5,18.5c0-5.1,0-10.3,0-15.7c31.9,0,63.7,0,96,0c0,5.2,0,10.5,0,15.7l0,0   C164.5,18.5,132.5,18.5,100.5,18.5L100.5,18.5z"/>
	<path class="st1" d="M20.5,210.5c-5.1,0-10.3,0-15.7,0c0-21.3,0-42.4,0-64.1c5.2,0,10.4,0,15.7,0l0.1,0.1c0,16,0.1,32,0.1,47.9   C20.6,199.8,20.6,205.1,20.5,210.5L20.5,210.5z"/>
	<path class="st1" d="M276.5,146.5c5.1,0,10.3,0,15.7,0c0,21.3,0,42.3,0,64c-5.2,0-10.4,0-15.7,0l-0.1-0.1c0-16-0.1-32-0.1-48   C276.4,157.1,276.4,151.8,276.5,146.5C276.5,146.5,276.5,146.5,276.5,146.5z"/>
	<path class="st1" d="M36.5,130.5c0-15.8,0-31.6,0-48c5.5,0,10.7,0,16,0l0,0c0,15.9,0,31.8,0,48C46.8,130.5,41.6,130.5,36.5,130.5   L36.5,130.5z"/>
	<path class="st1" d="M244.5,82.5c5.1,0,10.3,0,16,0c0,16.1,0,32.1,0,48l0,0c-5.2,0-10.5,0-16,0C244.5,114,244.5,98.3,244.5,82.5   L244.5,82.5z"/>
	<path class="st1" d="M52.5,82.5c0-10.5,0-20.9,0-32c5.5,0,10.7,0,16,0l0,0c0,10.6,0,21.1,0,32C62.7,82.5,57.6,82.5,52.5,82.5   L52.5,82.5z"/>
	<path class="st1" d="M228.5,50.5c5.1,0,10.3,0,16,0c0,10.8,0,21.4,0,32c0,0,0,0,0,0c-5.2,0-10.5,0-16,0   C228.5,71.4,228.5,60.9,228.5,50.5L228.5,50.5z"/>
	<path class="st1" d="M212.5,322.5c0,5.1,0,10.3,0,15.7c-10.6,0-21,0-32,0c0-5.2,0-10.4,0-15.7c0,0,0,0,0,0   C191.2,322.5,201.8,322.5,212.5,322.5L212.5,322.5z"/>
	<path class="st1" d="M116.5,322.5c0,5.1,0,10.3,0,15.7c-10.6,0-21,0-32,0c0-5.2,0-10.4,0-15.7c0,0,0,0,0,0   C95.2,322.5,105.8,322.5,116.5,322.5L116.5,322.5z"/>
	<path class="st1" d="M212.5,34.5c5.1,0,10.3,0,16,0c0,5.5,0,10.7,0,16c0,0,0,0,0,0c-5.3,0-10.7,0-16,0c0,0,0.1,0.1,0.1,0.1   C212.5,45.2,212.5,39.8,212.5,34.5L212.5,34.5z"/>
	<path class="st1" d="M68.5,50.5c0-5.1,0-10.3,0-16c5.5,0,10.7,0,16,0l0,0c0,5.3-0.1,10.6-0.1,15.9C79.1,50.4,73.8,50.5,68.5,50.5   C68.5,50.5,68.5,50.5,68.5,50.5z"/>
	<path class="st1" d="M260.5,130.5c5.1,0,10.3,0,16,0c0,5.5,0,10.7,0,16l0,0c-5.2,0-10.5,0-16,0   C260.5,140.7,260.5,135.6,260.5,130.5L260.5,130.5z"/>
	<path class="st1" d="M196.5,18.5c5.1,0,10.3,0,16,0c0,5.5,0,10.7,0,16c0,0,0,0,0,0c-5.2,0-10.5,0-16,0   C196.5,28.7,196.5,23.6,196.5,18.5L196.5,18.5z"/>
	<path class="st1" d="M84.5,34.5c0-5.1,0-10.3,0-16c5.5,0,10.7,0,16,0c0,0,0,0,0,0c0,5.2,0,10.5,0,16C94.7,34.5,89.6,34.5,84.5,34.5   L84.5,34.5z"/>
	<path class="st1" d="M20.5,146.5c0-5.1,0-10.3,0-16c5.5,0,10.8,0,16,0c0,0,0,0,0,0c0,5.3,0,10.7,0,16   C31.2,146.5,25.9,146.5,20.5,146.5L20.5,146.5z"/>
	<path class="st2" d="M212.5,242.5c0,10.4,0,20.9,0,31.5c-5.2,1.2-10.3-0.1-15.9,0.9c0,5.2,0,10.4,0,15.7c-31.8,0-63.6,0-96,0   c0-5.4,0-10.5,0-15.9c-5.5,0-10.4,0-16,0c0-11,0-21.5,0-32.1c0,0-0.1,0-0.1,0c5.3,0,10.7,0,16-0.1c0,5.2,0,10.5,0,15.6   c5.8,1.1,10.8-0.3,16.2,1.2c0,5,0,9.9,0,15c16.1,0,31.7,0,47.4,0c0-5.3,0-10.3,0-15.9c-10.7,0-20.9,0-31.7,0c0-5.5,0-10.4,0-15.8   c-11,0-21.5,0-31.9,0c0-5.2,0-10.5,0-16c-5.8,0-10.9,0-16,0l0.1,0.1c0-5.4-0.1-10.8-0.1-16.1c0-5.1,0-10.2,0-15.9   c5.7,0,10.9,0,16.1,0l0-0.1c0,5.2,0,10.5,0,15.7c32.4,0,64,0,96.1,0c0-5.5,0-10.6,0-15.7l0,0.1c5.1,0,10.2,0,16.1,0   c0,5.4,0,10.6,0,15.9c0,5.4-0.1,10.8-0.1,16.1l0.1-0.1c-5.2,0-10.5,0-15.7,0c0,5.7,0,10.7,0,16   C202.3,242.5,207.4,242.5,212.5,242.5L212.5,242.5z"/>
	<path class="st3" d="M52.5,242.5c0-5.1,0-10.3,0-16.2c5.5,0,10.7,0,16,0c5.4,0.1,10.7,0.1,16.1,0.2c0,0-0.1-0.1-0.1-0.1   c0,5.3,0,10.7,0,16c0,0,0.1,0,0.1,0C73.9,242.5,63.2,242.5,52.5,242.5z"/>
	<path class="st4" d="M116.5,322.5c-10.7,0-21.3,0-32,0c0-5.1,0-10.2,0-15.7c10.7,0,20.9,0,32,0C116.5,312,116.5,317.2,116.5,322.5z   "/>
	<path class="st4" d="M212.5,322.5c-10.7,0-21.3,0-32,0c0-5.1,0-10.2,0-16.1c5.6,0,10.8,0,16,0c5.3,0,10.6,0,15.9,0   C212.4,311.8,212.5,317.1,212.5,322.5z"/>
	<path class="st5" d="M212.4,306.4c-5.3,0-10.6,0-15.9,0c0-5.3,0-10.6,0-15.9c5.1,0,10.2,0,15.9,0   C212.4,296,212.4,301.2,212.4,306.4z"/>
	<path class="st6" d="M84.5,34.5c5.1,0,10.2,0,16,0c0-5.5,0-10.8,0-16c32,0,64,0,96,0c0,5.1,0,10.2,0,16c5.5,0,10.8,0,16,0   c0,5.3,0,10.7,0,16c-5.2,0-10.4,0-16,0c0,5.8,0,10.9,0,16c-5.2,0-10.5,0-15.7,0c0,5.6,0,10.5,0,16c5.3-0.3,10.3,0.5,15.7-0.5   c0-5.3,0-10.4,0-15.5c5.2,0,10.4,0,16,0c0-5.8,0-10.9,0-16c5.3,0,10.7,0,16,0c0,10.4,0,20.9,0,32c5.5,0,10.8,0,16,0   c0,15.8,0,31.5,0,48c5.5,0,10.8,0,16,0c0,5.1,0,10.2,0,16c5.5,0,10.8,0,16,0c-0.1,5.3-0.1,10.6-0.2,15.9c-10.6,0-21.3,0.1-31.9,0.1   c0,0,0,0,0,0c0-5.2,0-10.5,0-16.1c-5.9,0-10.8,0-15.8,0c0-5.1,0-10.2,0-16c-5.7,0-11,0-16.2,0c0,0,0.1,0.1,0.1,0.1   c0-5.2,0-10.5,0-16c-11.1,0-21.6,0-32,0c0-5.2,0-10.5,0-16c-5.8,0-10.9,0-16,0c0-5.3-0.1-10.6-0.1-15.9c0-5.2,0-10.5,0-15.8   c-5.5,0-10.4,0-16,0c0,5.4,0,10.5,0,15.6c-5.3,0.1-10.5,0.2-15.8,0.2l-0.2-0.2c0-5.2,0-10.4,0-15.9c-11.1,0-21.5,0-31.9,0l0.1,0.1   c0-5.2,0-10.4,0-15.9c-5.8,0-10.8,0-15.9,0l-0.2-0.2C84.4,45.1,84.5,39.8,84.5,34.5z"/>
	<path class="st5" d="M212.3,146.5c0,10.4,0,20.9,0,31.8c-5.1,0-10.2,0-15.8,0c0,5.8,0,11,0,16.2c0,0,0-0.1,0-0.1   c-10.6,0-21.1,0-32.1,0c0-5.7,0-10.8,0-15.9c5.2,0,10.4,0,16.1,0c0-5.9,0-11,0-16.1c5.2-0.2,10.5,0.4,15.6-0.4   c1.1-5.4-0.5-10.5,1.1-15.6C202.4,146.5,207.4,146.5,212.3,146.5z"/>
	<path class="st7" d="M244.5,162.5c10.6,0,21.3-0.1,31.9-0.1c0,16,0.1,32,0.1,48c-5.1,0-10.2,0-15.9,0c0-10.7,0-21,0-31.4   c-5.3-1.3-10.4-0.1-16.1-0.9C244.5,173,244.5,167.8,244.5,162.5z"/>
	<path class="st3" d="M212.3,146.5c-5,0-10,0-15.1,0c-1.6,5.2,0,10.2-1.1,15.6c-5.1,0.8-10.3,0.2-15.6,0.4c0,0,0,0,0,0   c0-5.3-0.1-10.7-0.1-16c0-5.3,0.1-10.7,0.1-16c10.7,0,21.4,0.1,32.1,0.1c0,0-0.1-0.1-0.1-0.1C212.4,135.8,212.4,141.1,212.3,146.5z   "/>
	<path class="st3" d="M244.5,242.5c-10.7,0-21.4-0.1-32.1-0.1c0,0,0.1,0,0.1,0c0-5.3,0-10.7,0-16c0,0-0.1,0.1-0.1,0.1   c5.4-0.1,10.7-0.1,16.1-0.2c5.1,0,10.2,0,16,0C244.5,232,244.5,237.3,244.5,242.5z"/>
	<path class="st7" d="M228.6,146.4c5,0,10,0,15.8,0c0,5.6,0,10.9,0,16.1c-5.1,0-10.2,0-15.8,0C228.6,156.9,228.6,151.7,228.6,146.4z   "/>
	<path class="st8" d="M228.6,226.3c-5.4,0.1-10.7,0.1-16.1,0.2c0-5.4,0.1-10.8,0.1-16.1c5.1,0,10.2,0,15.9,0   C228.6,216.2,228.6,221.3,228.6,226.3z"/>
	<path class="st7" d="M20.5,146.5c5.3,0,10.6,0,15.9,0c10.6,0,21.2,0,31.8-0.1l0.4,0.2c0,5.1,0,10.2,0,15.8c-5.6,0-10.5,0-15.5,0   c-1.5,5.4,0,10.6-1.1,16c-4.9,0-9.8,0-15,0c-1.2,5.6-0.1,10.9-0.7,16.1c-5.2,0-10.5,0-15.7,0C20.6,178.5,20.6,162.5,20.5,146.5z"/>
	<path class="st5" d="M100.5,194.5c0-5.1,0-10.2,0-15.9c-5.3,0-10.4,0-16.2,0c0-11.1,0-21.6,0-32.2l0.4,0c5.1,0.2,10.2-0.5,15.9,0.5   c0,5.1,0,10,0,15.5c5.7,0,10.8,0,15.9,0c0,5.2,0,10.4,0,16.1c5.9,0,11,0,16.1,0c0,5.2,0,10.5,0,15.9   C121.4,194.5,110.9,194.5,100.5,194.5L100.5,194.5z"/>
	<path class="st9" d="M20.7,194.5c5.2,0,10.5,0,15.7,0c0,5.1,0,10.2,0,16c-5.4,0-10.6,0-15.8,0C20.6,205.1,20.6,199.8,20.7,194.5z"/>
	<path class="st9" d="M84.3,146.5c-5.2,0-10.4,0.1-15.6,0.1c0,0-0.4-0.2-0.4-0.2c0.1-5.3,0.2-10.7,0.3-16c5.3,0.1,10.6,0.1,15.9,0.2   c0.1,5.3,0.1,10.6,0.2,15.9C84.7,146.5,84.3,146.5,84.3,146.5z"/>
	<path class="st8" d="M84.5,226.5c-5.4-0.1-10.7-0.1-16.1-0.2c0-5.1,0-10.2,0-15.9c5.8,0,10.8,0,15.9,0   C84.4,215.8,84.5,221.2,84.5,226.5z"/>
	<path class="st6" d="M68.6,130.4c-0.1,5.3-0.2,10.7-0.3,16c-10.6,0-21.2,0-31.8,0.1c0-5.3,0-10.7,0-16c5.1,0,10.2,0,16,0   c0-16.2,0-32.1,0-48c5.1,0,10.2,0,16,0c0-10.9,0-21.4,0-32c5.3,0,10.6-0.1,15.9-0.1c0,0,0.2,0.2,0.2,0.2c0,5.2,0,10.4,0,15.9   c5.8,0,10.8,0,15.9,0c0,0-0.1-0.1-0.1-0.1c0,5.2,0,10.4,0,15.9c11.2,0,21.5,0,31.9,0c0,0,0.2,0.2,0.2,0.2c0,5.3,0,10.6-0.1,15.9   c-5.2,0-10.5,0-16,0c0,5.8,0,10.9,0,16c-15.9,0-31.7,0-47.9,0C68.6,120.2,68.6,125.3,68.6,130.4z"/>
	<path class="st1" d="M100.5,194.5c10.4,0,20.9,0,32.1,0c0-5.4,0-10.7,0-15.9c10.6,0,21.2,0,31.8,0c0,5.1,0,10.2,0,15.9   c11,0,21.6,0,32.1,0c0,5.1,0,10.3,0,15.7c-32,0-63.7,0-96.1,0C100.5,205,100.5,199.7,100.5,194.5z"/>
	<path class="st10" d="M100.5,242.5c10.4,0,20.9,0,31.9,0c0,5.4,0,10.3,0,15.8c10.8,0,21,0,31.7,0c0,5.6,0,10.6,0,15.9   c-15.7,0-31.3,0-47.4,0c0-5.1,0-10,0-15c-5.4-1.5-10.4-0.1-16.2-1.2C100.5,252.9,100.5,247.7,100.5,242.5L100.5,242.5z"/>
	<path class="st1" d="M84.5,242.5c0-5.3,0-10.7,0-16c5.1,0,10.2,0,16,0c0,5.5,0,10.8,0,16l0,0C95.1,242.5,89.8,242.5,84.5,242.5z"/>
	<path class="st1" d="M212.6,226.5c0,5.3,0,10.7,0,16c-5.1,0-10.2,0-15.7,0c0-5.3,0-10.4,0-16C202.1,226.5,207.3,226.5,212.6,226.5z   "/>
	<path class="st11" d="M132.4,82.4c-10.4,0-20.8,0-31.9,0c0-5.5,0-10.7,0-15.9c10.4,0,20.8,0,31.9,0C132.4,72,132.4,77.2,132.4,82.4   z"/>
	<path class="st1" d="M132.5,98.5c0-5.3,0-10.6,0.1-15.9c5.3-0.1,10.5-0.2,15.8-0.2c5.3,0.1,10.6,0.2,16,0.2   c0,5.3,0.1,10.6,0.1,15.9l0.1,0C153.8,98.5,143.2,98.5,132.5,98.5C132.5,98.5,132.5,98.5,132.5,98.5z"/>
	<path class="st1" d="M212.5,130.6c-10.7,0-21.4-0.1-32.1-0.1c0,0,0.1,0.1,0.1,0.1c0-5.4,0-10.7,0-16.1l0,0.1c10.4,0,20.9,0,32,0   C212.5,120.1,212.5,125.3,212.5,130.6z"/>
	<path class="st1" d="M164.5,98.5c5.1,0,10.2,0,16,0c0,5.5,0,10.8,0,16l0-0.1c-5.3,0-10.5,0-16,0   C164.5,108.8,164.5,103.6,164.5,98.5L164.5,98.5z"/>
	<path class="st11" d="M196.5,66.5c0,5.1,0,10.2,0,15.5c-5.4,1-10.4,0.3-15.7,0.5c0-5.5,0-10.4,0-16   C186.1,66.5,191.3,66.5,196.5,66.5L196.5,66.5z"/>
	<path class="st9" d="M164.4,82.6c-5.3-0.1-10.6-0.2-16-0.2c0-5.1,0-10.2,0-15.6c5.6,0,10.4,0,16,0   C164.4,72.2,164.4,77.4,164.4,82.6z"/>
	<path class="st11" d="M196.5,66.5c0-5.1,0-10.2,0-16c5.6,0,10.8,0,16,0c0,0-0.1-0.1-0.1-0.1c0,5.1,0,10.2,0,16   C206.9,66.5,201.7,66.5,196.5,66.5C196.5,66.5,196.5,66.5,196.5,66.5z"/>
	<path class="st11" d="M100.5,66.5c-5.1,0-10.2,0-15.9,0c0-5.5,0-10.7,0-15.9c5.1,0,10.1,0,15.9,0C100.5,56.1,100.5,61.3,100.5,66.5   z"/>
	<path class="st3" d="M164.4,178.6c-10.6,0-21.2,0-31.8,0c-5.1,0-10.2,0-16.1,0c0-5.7,0-10.9,0-16.1c0,0,0,0,0,0   c5.2,0,10.5,0,16.2,0c0-5.8,0-10.9,0-16c10.6,0,21.1,0,31.7,0c0,0,0.3-0.1,0.3-0.1c0,5.2,0,10.5,0,16c5.6,0,10.7,0,15.8,0   c0,0,0,0,0,0c0,5.1,0,10.2,0,16.1C174.8,178.6,169.6,178.6,164.4,178.6z"/>
	<path class="st12" d="M180.5,162.5c-5.1,0-10.2,0-15.8,0c0-5.6,0-10.8,0-16c5.2,0,10.4,0,15.7,0   C180.4,151.8,180.4,157.1,180.5,162.5z"/>
	<path class="st1" d="M180.4,146.4c-5.2,0-10.4,0-15.7,0c0,0-0.3,0.1-0.3,0.1c0-5.3,0-10.5,0-16c5.9,0,11,0,16.2,0   c0,0-0.1-0.1-0.1-0.1C180.4,135.8,180.4,141.1,180.4,146.4z"/>
	<path class="st3" d="M84.7,146.5c-0.1-5.3-0.1-10.6-0.2-15.9c10.6,0,21.3,0,31.9-0.1c0,0,0-0.1,0-0.1c0.1,5.3,0.1,10.7,0.2,16   c0,5.3-0.1,10.7-0.1,16c0,0,0,0,0,0c-5.1,0-10.2,0-15.9,0c0-5.5,0-10.4,0-15.5C94.9,146,89.8,146.7,84.7,146.5z"/>
	<path class="st1" d="M116.5,130.6c-10.6,0-21.3,0-31.9,0.1c-5.3-0.1-10.6-0.1-15.9-0.2c0-5.1,0-10.2,0-15.9c16.2,0,32,0,47.9,0   l0-0.1C116.5,119.8,116.5,125.2,116.5,130.6z"/>
	<path class="st1" d="M116.5,114.5c0-5.1,0-10.2,0-16c5.5,0,10.8,0,16,0l-0.1,0c0,5.3,0,10.5,0,16   C126.8,114.5,121.6,114.5,116.5,114.5L116.5,114.5z"/>
	<path class="st13" d="M116.5,114.5c5.1,0,10.3,0,16,0c0-5.5,0-10.7,0-16c10.7,0,21.4,0,32,0c0,5.1,0,10.3,0,16c5.5,0,10.7,0,16,0   c0,5.4,0,10.7,0,16.1c-5.1,0-10.3,0-16.2,0c0,5.4,0,10.7,0,16c-10.6,0-21.1,0-31.7-0.1c0,0-0.4,0-0.4,0c0-5.3,0-10.5,0-16.1   c-5.6,0-10.7,0-15.9,0c0,0,0,0.1,0,0.1C116.5,125.2,116.5,119.8,116.5,114.5z"/>
	<path class="st12" d="M116.5,162.5c0-5.3,0.1-10.7,0.1-16c5.2,0,10.5,0,15.7,0.1c0,0,0.4,0,0.4,0c0,5.1,0,10.2,0,16   C127,162.5,121.8,162.5,116.5,162.5z"/>
	<path class="st1" d="M132.4,146.5c-5.2,0-10.5,0-15.7-0.1c-0.1-5.3-0.1-10.7-0.2-16c5.1,0,10.3,0,15.9,0   C132.4,136,132.4,141.3,132.4,146.5z"/>
</g>
</svg>