<?xml version="1.0" encoding="utf-8"?>
<!-- Generator: Adobe Illustrator 26.0.1, SVG Export Plug-In . SVG Version: 6.00 Build 0)  -->
<svg version="1.1" id="Layer_1" xmlns="http://www.w3.org/2000/svg" xmlns:xlink="http://www.w3.org/1999/xlink" x="0px" y="0px"
	 viewBox="0 0 905 229" style="enable-background:new 0 0 905 229;" xml:space="preserve">
<style type="text/css">
	.st0{fill:#B8B8B8;}
	.st1{fill:#C1C1C1;}
	.st2{fill:#A0A0A0;}
	.st3{fill:#8C8C8C;}
	.st4{fill:#ADADAD;}
	.st5{fill:#757575;}
	.st6{fill:#A5A5A5;}
	.st7{fill:#C2C2C2;}
	.st8{fill:#8E8E8E;}
	.st9{fill:#A9A9A9;}
	.st10{fill:#A6A6A6;}
	.st11{fill:#C3C3C3;}
	.st12{fill:#A1A1A1;}
	.st13{fill:#AFAFAF;}
	.st14{fill:#8F8F8F;}
	.st15{fill:#A4A4A4;}
	.st16{fill:#898989;}
	.st17{fill:#FEFEFE;}
	.st18{fill:#767676;}
	.st19{fill:#868686;}
	.st20{fill:#888888;}
	.st21{fill:#BABABA;}
	.st22{fill:#ABABAB;}
	.st23{fill:#030303;}
	.st24{fill:#040404;}
	.st25{fill:#020202;}
	.st26{fill:#070707;}
	.st27{fill:#8D8D8D;}
	.st28{fill:#010101;}
	.st29{fill:#050505;}
	.st30{fill:#666666;}
	.st31{fill:#777777;}
	.st32{fill:#909090;}
	.st33{fill:#5D5D5D;}
	.st34{fill:#A7A7A7;}
	.st35{fill:#656565;}
	.st36{fill:#C4C4C4;}
	.st37{fill:#C6C6C6;}
	.st38{fill:#060606;}
	.st39{fill:#DADADA;}
	.st40{fill:#161616;}
	.st41{fill:#131313;}
	.st42{fill:#2A2A2A;}
	.st43{fill:#DCDCDC;}
	.st44{fill:#E0E0E0;}
	.st45{fill:#D8D8D8;}
	.st46{fill:#121212;}
	.st47{fill:#D4D4D4;}
	.st48{fill:#5A5A5A;}
	.st49{fill:#585858;}
	.st50{fill:#B1B1B1;}
	.st51{fill:#E2E2E2;}
	.st52{fill:#141414;}
	.st53{fill:#101010;}
	.st54{fill:#151515;}
	.st55{fill:#4C4C4C;}
	.st56{fill:#D5D5D5;}
	.st57{fill:#111111;}
	.st58{fill:#0E0E0E;}
	.st59{fill:#838383;}
	.st60{fill:#818181;}
	.st61{fill:#828282;}
	.st62{fill:#E7E7E7;}
	.st63{fill:#DDDDDD;}
	.st64{fill:#515151;}
	.st65{fill:#858585;}
	.st66{fill:#0F0F0F;}
	.st67{fill:#A2A2A2;}
	.st68{fill:#E5E5E5;}
	.st69{fill:#5C5C5C;}
	.st70{fill:#E4E4E4;}
	.st71{fill:#5B5B5B;}
	.st72{fill:#5E5E5E;}
	.st73{fill:#0D0D0D;}
	.st74{fill:#0A0A0A;}
	.st75{fill:#5F5F5F;}
	.st76{fill:#E9E9E9;}
</style>
<g>
	<g>
		<path class="st0" d="M638.5,227c-212,0-423.9,0-635.9,0c0-75,0-150,0-225c243,0,485.9,0,728.9,0c2.2,4.2-2.6,3.7-4.4,6.7
			c-0.2,9.2-0.3,19.5,0.8,29.9c3.2-2.6,1.1-6.7,2.9-8.9c1.4-1.9,3.4-1.9,4.6-3.4c1.6-4.8-0.6-10.2,1.5-14.7c1.3-1.7,3.2-1.7,4.3-3
			c1.3-2,0.5-4.7,2.3-6.5c6,0,12,0,18,0c1.6,2.3,4.9,1,6.5,3.2c1,1.9,0.8,3.8,0.1,5.2c-1.3,1.6-2.9,1.7-4.1,2.6
			c-1.2,1-1.2,2.7-2.2,3.8c-1,1.2-2.6,1.3-3.8,2.2c-1.2,1-1.2,2.7-2.1,3.9c-1.1,1.3-3,1.1-4.2,2.1c-1.2,1.5-0.8,3.1-0.8,4.7
			c-0.1,5.6,0.8,11.2-0.7,16.7c-1,1.8-3.2,1.5-4.5,2.7c-1.1,1.2-1,3.1-2.3,4.3c-1.2,0.9-2.9,1-3.8,2.3c-1.4,2.8,0.1,6.3-2,9.2
			c-1.9,1.7-4.2,1.4-6.6,1.5c-4.9-0.2-10,1.2-14.8-1.2c-1.6-2-1.3-4.4-1.3-6.7c-0.1-7.2,0-14.3,0-21.5c0-1.8,0.1-3.7-0.9-5.5
			c-2.3-1.6-5-0.8-7.6-1.1c-4.6-0.4-9.3,0.9-13.8-1.2c-1.3-1.1-1.5-3-3.2-4.4c-5.8-0.7-12-0.7-19.1,0.2c-0.7,10.5-0.4,20.9-0.2,31.2
			c4.9,2,9.4,0.8,13.8,1.2c2.9,0.2,6-0.6,8.7,1.5c2.2,3.9,1.1,8.1,1.2,12.1c-0.4,6.1,1.4,12.3-1.3,18.2c-2.4,1.7-5.1,1.2-7.7,1.3
			c-6,0.1-11.9,0.2-17.9,0c-2.8-0.1-5.4-0.6-5.8-4.1c-0.8-6.2,0.4-12.6-1-19.5c-14.5-0.6-28.8-0.3-44.1-0.3
			c-0.2,23-0.1,45.2-0.1,66.4c1.6,2.5,3.5,2.7,4.7,3.9c1,1.1,1.4,2.6,2.5,3.6c2.6,1.2,5.3,0.7,8,0.9c2.5,0.1,5-0.1,7.2,1.5
			c1.8,2.1,1.6,4.6,1.6,7.1c0,23.5,0,46.9,0,70.4C640.1,222.7,640.2,225.1,638.5,227z"/>
		<path class="st0" d="M881.4,2c7,0,14,0,21,0c0,75,0,150,0,225c-11,0-22,0-33,0c-2.5-3.7-1.5-7.6-0.9-10.7c1.4-2.4,3.6-2.6,4.7-4.1
			c0.9-1.7,0.7-3.6,0.7-5.4c0-18.5,0-36.9,0-55.4c0-3,0.3-6.2-3.5-7.3c-0.5-0.3-1-0.6-1.4-1.1c-2.2-4.9,0-10.2-1.5-15
			c-1.1-1.8-3.4-1.6-4.5-3c-2-5.6-0.7-11.3-0.9-16.9c0-1.5,0.2-3-0.5-4.4c-1.1-1.6-3.5-1.1-4.6-2.8c-1.5-3.6-0.7-7.3-0.8-11
			c0-1.4,0.2-2.9-0.5-4.3c-1.1-1.6-3.4-1.1-4.6-2.6c-1-1.9-0.9-3.9-0.9-5.9c-0.1-2.1-0.1-4.2,0-6.3c-0.4-10.9,0.3-21.8-0.3-32
			c-1.3-2.4-3.6-2.4-4.9-4.5c-1.4-3-0.7-6.6-0.8-10.2c0-1.6,0.3-3.2-0.6-4.7c-1.1-1.3-3.1-1-4.3-2.2c-1.1-1.6-1-3.4-1.1-5.2
			c0-1.4,0.3-2.9-0.3-4.3c-0.8-1.6-2.5-1.3-3.7-1.9c-0.5-0.2-0.8-0.5-1.1-1c-0.4-1-0.3-2,0.5-2.8c14,0,28,0,42,0
			c2.5,4.5-3.5,3.4-4,5.9c0.3,2.2,2.7,1.6,3.7,2.7c1.6,1.1,1.1,3.6,2.9,4.5c2.7-0.2,1.8-3.1,3.1-3.9c1.2-1.6,3.4-1.1,4.3-2.9
			C885.7,5.3,878.7,6.6,881.4,2z"/>
		<path class="st1" d="M851.5,77c0,2,0,4,0,6c1.2,1,1.1,2.8,2.1,3.9c1.1,1,2.9,0.9,3.9,2.1c0,4,0,8,0,12c1.2,1,1.1,2.8,2.1,3.9
			c1.1,1,2.9,0.9,3.9,2.1c0,6,0,12,0,18c-0.9,1.3-2.7,1-3.9,2.1c-1.1,1.3-0.6,2.9-0.7,4.5c0,3.6,0.4,7.3-0.5,10.2
			c-1.3,2.1-3.1,2.3-4.4,3.3c-1.2,1.2-1.3,3.1-2.5,4.3c-1.1,1-2.8,1.1-3.8,2.4c-1.3,2.7-0.2,6-2,9.1c-4.3,1.4-5.2,7.2-9.7,8.3
			c-1.3,2.4-1,4.6-1,6.8c0,14.6,0,29.2,0,43.9c0,2.5,0.3,5-1.5,7.1c-4,0-8,0-12,0c-2.9-5.7-1.5-11.6-1-16.7c1.4-2.4,3.5-2.6,5.2-4.8
			c0.6-19.2-0.1-39.1,0.3-59c0-3.1-0.2-6.2,0-9.2c0-1.2,0-2.5,0-3.7c0.3-6.8-1.1-13.7,0.9-20.4c1.7-1.7,3.9-1.6,6-1.6
			c1.9,0,3.9-0.1,5.7,0.6c0.9,0.3,1.5,1.3,3,1c2.8-2.5,5.8-5.2,8.4-8.7c-1.8-4-5.3-6.3-8.1-9.2c-1.1-1.1-2.1,0.1-3.1,0.6
			c-1.8,0.7-3.6,0.6-5.5,0.6c-2,0-4,0.1-5.8-1c-0.9-0.8-1.3-1.9-1.4-3c-0.1-1.1-0.2-2.2-0.1-3.3c0-1,0-2.1,0-3.1
			c-0.2-2.2,0.5-4.5-0.6-6.5c-1.1-1.4-3.1-1.2-4.2-2.4c-0.6-0.9-0.7-1.8-0.3-2.8c1-1.8,3.9-0.8,4.7-3c-0.5-2.6-3.7-1.6-4.7-3.6
			c-2.1-5.8,0.2-11.9-1.4-17.6c-1.1-1.7-3.1-1.8-4.4-3.3c-1.9-2.5-0.5-6-1.7-8.8c-1-1.6-3-1.7-4.4-3.3c-1-2.3-2.5-4.7-5-5.1
			c-1.6-1.5-1.8-3.1-2.8-4.2c-1.1-1.1-2.7-1.2-3.8-2.3c-1.1-1.1-1.2-2.7-2.3-3.8c-1-0.9-2.4-1.1-3.5-2c-1.3-1.1-1.4-3-2.8-4.3
			c-2.1-0.9-4.4-0.8-6.6-0.1c-1.6,1.1-1.6,3-3.2,4.5c-2.5,0.8-4.5,2.6-5.2,5.2c-1.3,1.5-3,1.6-4.2,2.8c-1.7,2.8,0.1,6.5-2,9.4
			c-1.1,1.4-3.1,1.3-4.2,2.8c-1.5,2.9,0.3,6.6-2,9.5c-1.1,1-2.7,1.2-4,2.4c-1.9,5.8,0.8,12.3-1.8,18.3c-0.8,1-2,1.3-3.2,1.4
			c-1.2,0.1-2.3-0.2-3.3-0.9c-2.3-5.9-1.5-12-0.5-18c0.2-1.1,0.8-2.2,0.6-3.4c0-6,0-12,0-18c1-1.2,2.8-1.1,3.9-2.1
			c1-1.1,0.9-2.9,2.1-3.9c0-1.8,0-3.6,0-5.8c1.9-0.1,3.8-0.2,5.8-0.3c0-1.8,0-3.6,0-5.7c2-0.1,3.9-0.2,6.2-0.3c0-2,0-3.9,0-5.9
			c4.8-2.9,10-0.8,15-1.5c3-0.4,6.4,1.2,9-1.5c6,0,12,0,18,0c1.4,2,4.1,1.2,6.1,3c1.4,2.3,2.7,5.2,6.4,5.7c2,9.4-0.1,18.6,1.3,27.1
			c1.3,1.9,3.3,1.9,4.5,3.5c1.8,2.5,0.4,6,1.7,8.9c0.9,1.4,2.6,1.4,3.8,2.3c1.2,1,1.2,2.7,2,3.9c1,1.4,3,1.3,4.1,2.5
			c1.1,1.1,1.1,2.7,2.1,3.8c1.1,1,2.7,1.1,4,2.4c1.2,1.4,1.1,3.4,1.1,5.4c0.1,1.3-0.1,2.7,0.4,3.9C848.2,76,850.4,75.7,851.5,77z"/>
		<path class="st2" d="M797.5,227c-12,0-24,0-36,0c-1.5-1.8-4.7-2.6-3.5-5.9c1.8-1.6,2.2-3.9,2.9-6c1.6-5-3.1-4.1-5.2-5.6
			c-1.2-0.7-1.1-2.3-2-3.3c-1.5,0-3,1.4-4.6,0.2c-1.6-2.1-4.7-1.6-6.3-3.6c-0.9-1.9-0.8-3.8-0.8-5.8c-0.1-3.8-0.1-7.5,0-11.3
			c-0.1-1.4,0.1-2.9-0.7-4.3c-1.3-1.4-3.8-1.2-4.7-3.2c-0.9-2.2-0.8-4.6-0.8-6.9c0-22.7,0-45.4,0-68.2c0-2.8-0.4-5.7,1.5-8.1
			c1.8-1.3,3.7-1.4,5.7-0.6c2.7,2.4,1.7,5.7,1.9,8.7c-0.1,1.1,0,2.1,0,3.2c-0.2,3.6,3.6,2,4.8,3.8c0.6,0.8,0.9,1.8,1,2.8
			c0.1,1,0.1,2,0.1,3c0,1,0,1.9,0.1,2.9c0.3,3.2,4.2,1.5,5.2,3.8c0.8,1.8,0.8,3.5-0.1,5.2c-1.1,1.4-2.9,1.3-4.3,2.2
			c-1.1,1.1-0.9,2.8-1.9,3.9c-1,2-4.3,0.7-4.8,3.4c0.4,2.6-1.7,5.8,1.9,7.5c0.9,0.2,1.8,0.4,2.6,1c1.8,1.3,0.4,5,3.8,5
			c1,0.2,2,0.5,2.8,1.4c0.6,1,0.8,2.1,0.9,3.3c0.2,4.6,0.1,9.2,0.1,13.8c-0.1,1,0,2,0,3.1c-0.2,3.5,3.4,2,4.7,3.6
			c1.6,1.4,0.4,4.9,3.8,4.9c1,0.2,2,0.6,2.7,1.5c1.7,4.5,0.6,9.2,0.9,13.8c0.3,5.4-0.5,10.9,0.6,16.4c2.9,1.4,5.2,3.2,6.2,6.1
			c2.4,1.2,4.6,1,6.6,0.6c2-1.2,1.9-3.5,3.7-4.7c1.3-0.8,2.9-0.8,4.6-0.4c1.4,0.7,2.5,1.8,4.3,0.6c1.3-0.9,2.8-0.4,3.5,1.3
			C799,219.7,799.8,223.5,797.5,227z"/>
		<path class="st3" d="M791.5,215c-1.8,0-3.6,0-5.8,0c-0.1,1.9-0.2,3.8-0.3,5.8c-3.9,0-7.8,0-11.8,0c0-1.9,0-3.7,0-5.8c-2,0-4,0-6,0
			c0-11.2,0-22.1,0-33c0.6-0.8,1.6-1,2.5-1.3c3.2-0.2,1.7-3.9,3.6-5.1c1.2-0.9,2.8-0.7,3.9-1.7c1-1.3,0.7-3.2,2-4.3
			c1-0.6,2-0.8,3.2-0.8c1.2,0,2.3,0.3,3.2,1.2c1.6,2.8,1.2,5.7,0.4,8c-1.3,2.1-3.2,2.1-4.6,3.6c-1.4,2.6-0.4,5.6-0.8,8.5
			c0,1.7-0.4,3.5,0.9,5.1c3.2-0.2,2-3.9,4-4.8c1.1-0.7,2.5-0.8,3.5-1.9c1.5-2.8-0.1-6.5,1.9-9.3c1.7-1.5,3.5-1.5,5.5-0.9
			c1.6,0.6,2.4,2.8,4.5,2.4c1.9,0,3.9-0.1,5.8,0.1c1.3,0.2,2.4,0.5,3.2,1.7c1,2,0.9,4.2,0.9,6.3c0,10.4,0,20.8,0,31.2
			c0,2.5,0.2,5-1.6,7.1c-4,0-8,0-12,0c0-4,0-8,0-12c-1.5-1-0.7-3.7-3-4.2C792.1,211.2,793.1,214,791.5,215z"/>
		<path class="st4" d="M731.5,227c-4,0-8,0-12,0c-1.8-2-1.2-4.6-1.4-7c-0.1-1.6,0.3-3.4-2.1-3.7c-1.1-0.2-2.1-0.5-2.9-1.4
			c-1.1-1.8-1-3.9-1-5.9c-0.1-2-0.1-4,0-6c-0.1-1.3-0.1-2.7-0.9-3.8c-1.1-1-2.7-1.3-3.7-2.2c-1.6-2.2-1.3-4.6-1.4-6.9
			c-0.2-11.6-0.2-23.2,0-34.8c0-2.2-0.3-4.5,1.1-6.5c2.1-1.5,4.2-1.4,6.3-0.3c1.5,1.8,1.4,3.9,1.4,6c0.3,3.3-0.5,6.6,0.6,9.7
			c1.2,1.6,3.3,1.4,4.6,3.2c2,4.5-0.1,9.9,1.4,14.5c1.2,1.7,3.2,1.8,4.4,3.2c1.2,1,0.6,3.2,2.3,4c3.4,0,1.4-4.2,3.8-4.9
			c2-0.8,3.9-0.8,5.7,0.4c0.8,1,1.1,2.1,1.2,3.4c0.3,3.9,0.1,7.8,0.1,11.7c0.1,2.1,0.1,4.1,0,6.2c0,2.8,0.3,5.6-0.6,8.3
			c-0.9,2.1-3.5,1.5-4.7,2.8c-1,2,0.7,2.8,1.3,4C736.1,224.4,733,225.2,731.5,227z"/>
		<path class="st2" d="M809.5,227c0-15,0-30,0-45c-1.5-1.8-1.5-3.8-0.4-5.8c1.1-1.4,3-1.3,4.4-2.7c1.2-3,0.4-6.4,0.6-9.6
			c-0.1-2.8-0.1-5.6,0-8.5c0.1-1.1,0.2-2.2,0.8-3.2c0.7-0.9,1.7-1.2,2.7-1.4c3.5,0,2-3.8,3.9-5.1c0.9-0.6,1.9-0.8,2.9-0.9
			c1.1,0,2.1,0.4,3,1.2c0,20.9,0,41.9,0,63c-2.1,0-3.9,0-6,0c0,6.1,0,12.1,0,18C817.5,227,813.5,227,809.5,227z"/>
		<path class="st2" d="M851.5,149c0-1.8,0-3.7,0-5.6c1.8-0.9,3.8,0,6-0.6c0-3.8,0-7.8,0-11.7c1.9-1.5,3.9-1.5,5.9-0.2
			c2.4,2.7,0.9,6.4,2.2,9.4c0.9,1.3,2.7,1.6,3.9,2.8c3.1,7.8,1.1,15.6,1,22.6c-1.5,2.4-3.3,2.7-4.9,4.1c-1.8,8.7,0.7,18-1.5,26.7
			c-2.2,2-5.5,2.8-5.2,6.4c0,2,0.1,4-1,5.7c-1.1,1.5-3,1.8-4.2,2.9c-2.2,5,0.9,10.8-2.3,15.6c-2,0-4,0-6,0c-2-4.1-2.3-17.3-0.6-23.4
			c1-1.7,3-2,4.2-3.2c1.1-2.3,0.8-4.7,0.8-7c0-12.4,0-24.9,0-37.3C849.9,153.6,849.6,151.1,851.5,149z"/>
		<path class="st4" d="M851.5,149c0,17.8,0,35.6,0,53.7c-1.8,0.8-3.8-0.1-6,0.6c0,7.8,0,15.8,0,23.7c-4,0-8,0-12,0
			c0-19.9,0-39.8,0-59.8c1.9,0,3.7,0,5.6,0c0.9-2,0-4,0.6-6c1.7,0,3.5,0,5.6,0c0-4,0-7.9,0-12.2C847.5,149,849.5,149,851.5,149z"/>
		<path class="st4" d="M857.4,203c0-1.8,0-3.7,0-5.6c1.8-0.9,3.8,0,5.8-0.6c0-9.7,0-19.5,0-29.3c1.9-1,4,0,6.2-0.8
			c0-7.8,0-15.8,0-23.7c1.8,0,3.7,0,5.5,0c0.1,0.1,0.3,0.2,0.4,0.3c0.1,0.1,0.2,0.3,0.2,0.4c0,23.6,0,47.1,0,70.9
			c-1.8,0.9-3.8,0-6,0.6c0,3.8,0,7.8,0,11.7c-4,0-8,0-12,0c-2.4-3.9-1.5-7.8-0.6-11.3c1.4-1.9,3.3-2,4.5-3.3c1-2.1,0.9-4.3,0.2-6.5
			C860.5,204.3,858.6,204.2,857.4,203z"/>
		<path class="st5" d="M638.5,227c0-27.9,0-55.9,0-84c-6.1,0-11.9,0-18,0c0-2.1,0-4.1,0-6c0.2-0.2,0.4-0.4,0.6-0.6
			c3.7-1.4,7.5-0.6,11.3-0.8c2.1-0.1,4.1-0.1,6.2,0c2.2,0,4.3-0.2,6.2,1.3c2,3.8,0.9,7.9,1.1,11.9c0.1,2.2,0.1,4.4,0,6.6
			c0.2,13.7,0.2,27.5,0,41.2c0,2.2,0,4.5,0,6.7c0.3,6.1,0.1,12.1,0.1,18.2c0,2-0.1,4-1.5,5.5C642.5,227,640.5,227,638.5,227z"/>
		<path class="st4" d="M833.5,53c-1.8,0-3.7,0-5.9,0c0-1.9-0.1-3.8-0.1-5.8c0-2,0-3.9,0-6.1c-2,0-3.8,0-5.9,0c0-10.1,0-20,0-30
			c-2.1,0-3.9,0-6,0c0-2.1,0-4,0-6.1c-2.1,0-3.9,0-5.6,0c-0.8-1.1-0.3-2.1-0.5-3c8,0,16,0,24,0c0,1,0,2,0,3
			c-0.9,1.2-2.6,1.4-3.8,2.8c-0.9,1.9-0.8,3.9-0.2,5.9c1,1.9,3.2,2,4.3,3.5c1.3,1.9,1.2,4.1,1.2,6.3c0,7.8,0.1,15.6,0,23.4
			C834.9,49,835.2,51.3,833.5,53z"/>
		<path class="st4" d="M743.5,2c0,2.8,0,5.6,0,8.8c-1.9,0.1-3.8,0.2-5.8,0.3c0,5.8,0,11.6,0,17.7c-2,0.1-3.9,0.2-6,0.3
			c0,3.8,0,7.6,0,11.6c-2,0-3.9,0-6,0c0-11.8,0-23.7,0-35.7c1.9,0,3.7,0,5.4,0c0.8-1.1,0.3-2.1,0.5-3C735.5,2,739.5,2,743.5,2z"/>
		<path class="st6" d="M710.5,227c-10,0-20,0-30,0c-1.5-1.7-1.4-3.8-1.4-5.9c-0.1-2.1-0.1-4.1,0-6.2c0-2.1-0.2-4.2,1.1-6.1
			c1.8-1.4,3.8-1.3,5.8-0.5c2.1,1.7,1.8,4.8,3.9,6.5c1,1.4-0.3,2.8,0,4.5c4,0.5,8,0.5,11.7,0c2.1-1.3,1.5-4,3.4-5
			c2.1-0.8,4.1-0.8,5.9,0.7C712.5,219,712.8,223,710.5,227z"/>
		<path class="st7" d="M680.5,221c0,2,0,4,0,6c-8,0-16,0-24,0c-1.5-1.7-1.4-3.8-1.4-5.9c-0.1-2-0.1-4.1,0-6.1c0-2.1-0.2-4.2,1.2-6
			c1-0.8,2.1-0.9,3.3-0.3c1.1,1.1,1.2,2.7,2.4,4.1c3.8,1.9,8.4-0.3,12.4,1.7c1.4,1.1,1.2,3.1,2.3,4.4
			C677.7,219.8,679.4,219.8,680.5,221z"/>
		<path class="st8" d="M734.5,221c-0.8,0-1.7,0-2.7,0c0-1.9,0-3.8,0-6c1.8,0,3.8,0,5.7,0c2-1.5,4.6-1.8,6.4-3.7
			c1.9-0.8,3.8-0.7,5.6,0.1c1.8,1.6,4,2.2,6.4,2.2c1.9,0,4-0.3,5.6,1.4c0,1.9,0,3.8,0,6c-1.1,0-2.1,0-3,0c-1.8,1.8-4.4,0.9-6.5,2
			c-1.3,0.9-1.2,2.9-2.5,4c-2,0-4,0-6,0c-1.1-1-1.2-2.7-2.2-3.8C739.2,221.7,736.3,222.9,734.5,221z"/>
		<path class="st9" d="M857.4,203c1.9,0,3.9,0,5.9,0c0,4.1,0,7.8,0,11.7c-1.8,0.9-3.8-0.1-5.9,0.6c0,3.9,0,7.8,0,11.7c-2,0-4,0-6,0
			c0-5.8,0-11.6,0-17.7c1.8-0.7,3.8,0.1,6-0.5C857.4,206.9,857.4,204.9,857.4,203z"/>
		<path class="st8" d="M881.4,2c0,0.8,0,1.7,0,2.7c1.8,0.8,3.8,0,5.8,0.5c0,1.7,0,3.5,0,5.6c-1.7,0.1-3.6,0.2-5.7,0.3
			c0,1.8,0,3.6,0,5.6c-2,0-3.9,0-6,0c0-1.7,0-3.4,0-5.6c-2-0.1-3.9-0.2-6-0.3c0-1.8,0-3.6,0-5.7c1.7-0.1,3.6-0.2,5.5-0.3
			c0.7-0.9,0.2-1.9,0.4-2.9C877.4,2,879.4,2,881.4,2z"/>
		<path class="st10" d="M644.5,227c0-8,0-16,0-24c0.9-0.8,2-1.2,3.2-1.2c1.2,0,2.3,0.3,3.2,1.2c1.2,1.8,1,3.9,1,6c0.1,2,0.1,4,0,6
			c0.1,2,0.1,4.1,0,6.1c0.1,2.1,0.1,4.2-1.4,5.9C648.5,227,646.5,227,644.5,227z"/>
		<path class="st4" d="M791.5,2c0,0.8,0,1.6,0,2.5c-0.1,0.1-0.2,0.3-0.3,0.4C791,4.9,790.8,5,790.7,5c-7.7,0-15.5,0-23.2,0
			c-1.9,0-3.8,0-6,0c0-1.1,0-2.1,0-3C771.5,2,781.5,2,791.5,2z"/>
		<path class="st11" d="M710.5,227c0-4,0-8,0-12c1-0.9,2-0.8,3,0c1,0,2,0,3,0c2.2,4,2.2,8,0,12C714.5,227,712.5,227,710.5,227z"/>
		<path class="st12" d="M749.5,227c0-1.9,0-3.9,0-6c3.2,0,6.1,0,9,0c0,0.8,0,1.6,0,2.5c0.7,1,1.9,0.2,2.7,0.7
			c0.6,0.9,0.2,1.9,0.3,2.8C757.5,227,753.5,227,749.5,227z"/>
		<path class="st13" d="M734.5,221c2.9,0,5.8,0,9,0c0,2.1,0,4.1,0,6c-4,0-8,0-12,0c0-0.8,0-1.6,0-2.5c0.7-1,1.9-0.2,2.7-0.7
			C734.8,222.9,734.3,221.9,734.5,221z"/>
		<path class="st14" d="M716.5,227c0-4,0-8,0-12c0.8,0,1.6,0,2.7,0c0.5,2,0.2,4.1,0.3,6.1c0.1,2,0,3.9,0,5.9
			C718.5,227,717.5,227,716.5,227z"/>
		<path class="st15" d="M650.5,227c0-2,0-4,0-6c2-1.6,4-1.6,6,0c0,2,0,4,0,6C654.5,227,652.5,227,650.5,227z"/>
		<path class="st16" d="M437.5,86c0-1.9,0-3.9,0-6c3.2,0,6.1,0,9,0c0.2,0.2,0.4,0.4,0.6,0.6c1.4,3.3,0.7,6.7,0.8,10.1
			c0.1,2.5,0.1,4.9,1.8,6.9c1.2,1.5-0.2,3.1,0.2,5c6.7,0.2,13.5,0.2,20.2,0c0.5-1.8-1-3.5,0.2-5c1.7-2,1.8-4.4,1.8-6.9
			c0.1-3.4-0.6-6.8,0.8-10.1c0.2-0.2,0.4-0.4,0.6-0.6c2,0,4,0,6,0c1,1,2,2,3,3c0,4.9,0,9.8,0,14.6c1.1,0.7,2.1,0.3,3,0.4
			c1.5,1.3,0.2,2.8-0.2,4.5c2.5-0.9,1.7-3.4,3.2-4.5c0.9,0,1.8,0,3,0c0,1.2,0,2.1,0,3c2.5,6,2.3,12,0,18c0,10.8,0,21.6,0,32.5
			c-4.2,0.8-47.4,1-63,0.3c0-10.9,0-21.9,0-32.8c-0.8-0.9-1.3-2-1.3-3.3c-0.2-4.8-0.2-9.6,0-14.4c0.1-1.3,0.5-2.4,1.4-3.3
			c1,0,2,0,3,0c1.3,1.1,1,3,2.1,4c1.9,1.1,2.7-0.3,3.6-1.4c2.1-1.5,2.1-3.7,2-5.9C438.8,91.8,440.2,88.5,437.5,86z"/>
		<path class="st17" d="M212.4,86.2c0.1,1,0.2,1.7,0.3,2.8c0.8,0,1.6,0.1,2.4,0.1c1,0.7,0,1.9,0.8,2.8c0.7,0.1,1.5,0.2,2.3,0.2
			c0.9,0.7,0,1.9,0.6,2.7c0.9,0.1,1.7,0.2,2.6,0.3c0,4.8,0,9.6,0,14.6c-0.5,0.8-1.7-0.2-2.6,0.5c-0.6,0.7,0,1.6-0.4,2.7
			c-1.7,0-3.7,0-5.7,0c0,2.1,0,3.9,0,5.7c0.6,0.8,1.6,0.1,2.3,0.4c1.1,0.6,0.2,1.8,0.8,2.7c0.6,0.6,1.5,0,2.5,0.3
			c0,4.8,0,9.7,0,14.8c-3.7,0-7.5,0-11.4,0c-0.8-0.6,0.1-1.8-0.5-2.7c-0.8-0.1-1.6-0.2-2.4-0.2c-0.8-0.7-0.2-1.6-0.4-2.4
			c-0.6-1.1-1.8-0.2-2.7-0.7c-0.7-0.7-0.1-1.6-0.3-2.3c-0.7-1-1.9-0.1-2.9-0.8c0-0.7-0.1-1.5-0.2-2.5c-2.9,0-5.8,0-8.9,0
			c0,1.8,0,3.6,0,5.2c-0.8,1-1.8,0.3-2.9,0.9c-0.6,1.5,0.2,3.5-0.4,5.5c-4.7,0-9.5,0-14.5,0c0-4.7,0-9.6,0-14.8
			c0.7,0,1.5-0.1,2.6-0.1c0-2.9,0-5.8,0-8.8c1.1-0.1,1.9-0.2,3-0.3c0-2.9,0-5.8,0-8.7c1.1-0.1,1.9-0.2,2.9-0.3c0-1.8,0-3.6,0-5.1
			c0.9-1.3,2.1-0.4,3-1.1c0-1.7,0-3.4,0-5c0.9-1.2,2.1-0.2,3-1c0.1-0.7,0.2-1.5,0.2-2.3c0.7-0.8,1.6-0.1,2.3-0.4
			c1.1-0.6,0.2-1.8,0.8-2.8C196.5,86.2,204.2,86.2,212.4,86.2z"/>
		<path class="st17" d="M86.5,134c-2,0-3.9,0-5.8,0c-0.1,1.1-0.2,1.9-0.3,3c-2.9,0-5.9,0-8.8,0c-1-1-2-2-3-3c0-1.8,0-3.7,0-5.5
			c-0.7-1-1.9-0.1-2.7-0.7c-0.6-0.7,0-1.6-0.3-2.4c-0.7-1-1.9,0.1-2.9-0.8c0-3.6,0-7.4,0-11c-0.8-1-1.7-0.4-2.5-0.6
			c-0.1-0.1-0.3-0.2-0.3-0.3c0-6.8,0-13.6,0-20.4c0.7-0.7,1.6-0.1,2.3-0.3c1-0.7,0-1.9,0.8-2.9c0.6-0.1,1.4-0.1,2.2-0.2
			c1-0.7-0.1-2,0.8-2.8c1.7,0,3.5,0,5.4,0c0,1.8,0,3.6,0,5.1c0.9,1.3,2.1,0.4,2.8,0.9c0.7,0.8,0.1,1.7,0.4,2.5
			c0.7,1,1.9-0.1,2.9,0.8c0,4.6,0,9.4,0,14c0.8,1,1.7,0.4,2.6,0.6c1.1,0.6,0.1,1.8,0.7,2.7c0.7,0.6,1.6,0.2,2.3,0.3
			c1-0.7,0.1-1.9,0.8-2.8c1.7,0,3.5,0,5.3,0c0.9,0.6-0.2,1.9,0.7,2.8c1.7,0,3.5,0,5.6,0c0-3.9,0-7.8,0-11.7c1.1-0.1,1.9-0.2,2.9-0.3
			c0-2.8,0-5.6,0-8.1c0.9-1.3,2.1-0.2,3-1.1c0.1-0.7,0.2-1.5,0.3-2.5c1.9,0,3.8,0,5.7,0c0.1,0.9,0.2,1.7,0.3,2.4
			c0.7,0.7,1.6,0.2,2.4,0.4c1,0.7,0.1,1.9,0.9,2.9c0.6,0,1.4,0.1,2.4,0.2c0,5.9,0,11.8,0,17.7c-0.8,0.1-1.6,0.2-2.8,0.3
			c0,2.9,0,5.8,0,8.7c-1.1,0.1-1.9,0.2-2.9,0.3c0,2.8,0,5.6,0,8.1c-0.9,1.3-2.1,0.3-3,1.1c-0.1,0.7-0.1,1.4-0.2,2.2
			c-0.7,0.8-1.6,0.1-2.3,0.4c-1.1,0.6-0.2,1.8-1,3c-3.7,0-7.7,0-11.6,0C88.6,136,87.6,135,86.5,134z"/>
		<path class="st17" d="M161.9,94.9c0.8,0.1,1.6,0.2,2.5,0.3c0,1.8,0,3.6,0,5.2c0.9,1.2,2.1,0.3,3,0.9c0,7.8,0,15.6,0,23.4
			c-0.6,0.8-1.6,0.1-2.3,0.4c-1.1,0.6-0.2,1.8-0.8,2.7c-0.6,0.7-1.6,0-3.2,0.9c-0.1,0.1,0.8,1.3,0.1,2.2c-0.7,0.1-1.5,0.1-2.3,0.2
			c-0.9,0.7,0,1.9-0.7,2.9c-1.8,0-3.5,0-5.1,0c-0.9,0.9-0.4,1.7-0.6,2.5c-0.1,0.1-0.2,0.3-0.3,0.3c-5.8,0-11.6,0-17.5,0
			c0-0.8,0-1.6,0-2.7c-2.1,0-4,0-6,0c-0.1-1.1-0.2-1.9-0.2-2.7c-0.7-1-2,0.1-2.8-0.8c-0.1-0.7-0.2-1.5-0.3-2.3
			c-0.7-0.7-1.6-0.2-2.4-0.4c-1-0.7-0.1-1.9-0.9-2.9c-0.6,0-1.4-0.1-2.4-0.1c0-5.9,0-11.8,0-17.8c0.8-0.1,1.6-0.2,2.6-0.3
			c0-2.7,0-5.5,0-8c0.8-1.5,2.1-0.5,2.9-1.1c0.7-0.6,0-1.5,0.3-2.3c0.6-1,1.9-0.1,2.8-0.9c0-0.6,0.1-1.4,0.2-2.2
			c0.7-0.9,1.9,0,2.8-0.6c0.1-0.8,0.2-1.6,0.3-2.8c2.9,0,5.8,0,8.7,0c0.1-1.1,0.2-1.9,0.3-2.9c2.8,0,5.6,0,8.6,0
			c0.8,0.6-0.2,1.8,0.7,2.8c2.6,0,5.4,0,8,0c1,0.8,0.4,1.7,0.6,2.5c0.6,1.1,1.8,0.2,2.7,0.7C162,92.8,161.2,93.7,161.9,94.9z"/>
		<path class="st17" d="M302.3,121.9c-1,0.1-1.7,0.2-2.7,0.3c0,1.8,0,3.6,0,5.2c-0.9,1.2-2.1,0.3-3,0.9c-0.1,0.8-0.2,1.6-0.2,2.4
			c-0.7,0.8-1.6,0.2-2.4,0.4c-1.1,0.6-0.2,1.8-0.7,2.7c-0.6,0.7-1.5,0-2.3,0.3c-1,0.6-0.1,1.8-0.8,2.8c-6.7,0-13.4,0-20.4,0
			c-0.9-1.7,0.1-3.7-0.6-5.7c-0.7-0.1-1.5-0.1-2.7-0.2c0-4.9,0-9.8,0-14.7c-1.1-0.1-1.9-0.2-2.9-0.3c0-3.8,0-7.5,0-11
			c-0.8-1.4-2.1-0.5-3-1.1c0-4.7,0-9.4,0-14.5c0.5-0.8,1.7,0.2,2.8-0.6c0-0.6,0.1-1.4,0.2-2.4c7.9,0,15.8,0,23.8,0
			c0.1,0.8,0.2,1.6,0.2,2.4c0.7,0.8,1.6,0.2,2.4,0.4c1.1,0.6,0.1,1.8,1.1,3.1c0.3,0.3,1.2-0.4,1.9,0c1,0.6,0.1,1.8,0.9,2.9
			c0.6,0,1.4,0.1,2.3,0.1c0.9,1.8-0.1,3.9,0.6,5.8c0.8,0.1,1.6,0.2,2.7,0.3c0,2.8,0,5.8,0,8.7c1.1,0.1,1.9,0.2,2.9,0.3
			C302.3,113.9,302.3,117.7,302.3,121.9z"/>
		<path class="st17" d="M356.4,124.8c0,3.3,0,6.1,0,8.8c-0.8,0.8-1.7,0.2-2.5,0.4c-1,0.7,0,1.9-0.8,2.8c-10.7,0-21.4,0-32.3,0
			c-0.9-0.6,0.1-1.9-0.7-2.7c-0.7-0.1-1.5-0.2-2.5-0.3c0-2.7,0-5.5,0-8.6c0.5-0.8,1.7,0.1,2.5-0.4c0.7-0.7,0.1-1.6,0.3-2.3
			c0.7-1,1.9-0.1,2.9-0.9c0-0.6,0.1-1.4,0.2-2.2c0.7-1,1.9,0.1,2.8-0.8c0.1-0.7,0.2-1.5,0.3-2.3c0.7-0.8,1.6-0.1,2.3-0.4
			c1.1-0.6,0.2-1.8,0.7-2.6c0.7-0.7,1.6-0.1,2.4-0.3c1-0.7,0-1.9,0.8-2.9c0.6-0.1,1.4-0.1,2.2-0.2c1-0.7-0.1-1.9,0.8-2.8
			c0.7-0.1,1.5-0.2,2.3-0.3c0.8-0.7,0.1-1.6,0.4-2.4c0.6-1.1,1.8-0.1,2.6-0.7c0.6-0.7,0.2-1.6,0.3-2.6c-1.9,0-3.8,0-5.9,0
			c-0.1,0.8-0.1,1.6-0.2,2.4c-0.7,1-2-0.1-2.8,0.8c-0.1,0.7-0.2,1.5-0.3,2.5c-2.8,0-5.6,0-8.6,0c-0.8-0.5,0.1-1.7-0.5-2.7
			c-0.7,0-1.5,0-2.5,0c0-3.1,0-6,0-9c0.8-0.1,1.6-0.1,2.4-0.2c0.8-0.7,0.2-1.6,0.4-2.4c0.6-1.1,1.8-0.2,2.7-0.7
			c0.7-0.7,0.1-1.6,0.4-2.5c1.8-0.8,3.8,0,5.5-0.4c0.8-0.8,0.2-1.7,0.6-2.7c4.8,0,9.7,0,14.7,0c0.1,0.8,0.1,1.6,0.2,2.4
			c0.7,1,2-0.1,2.8,0.8c0.1,0.7,0.2,1.5,0.3,2.3c0.7,0.7,1.6,0.2,2.4,0.4c1,0.7,0.1,1.9,0.6,2.6c0.8,0.7,1.7,0.1,2.6,0.5
			c0,3.8,0,7.7,0,11.7c-0.8,0.1-1.6,0.1-2.4,0.2c-0.8,1.8,0.1,3.9-0.5,5.7c-0.9,0.1-1.6,0.2-2.4,0.3c-0.7,0.7-0.2,1.6-0.4,2.4
			c-0.7,1-1.9,0.1-2.9,0.9c0,0.6-0.1,1.4-0.1,2.2c-0.7,1-1.9,0-2.7,0.7c-0.5,0.7-0.2,1.5-0.1,2.7c1.9,0,3.8,0,5.7,0
			c0.1,1.1,0.2,1.9,0.3,2.9C352.4,124.8,354.2,124.8,356.4,124.8z"/>
		<path class="st3" d="M743.5,95c-1.8,0-3.7,0-5.5,0c-0.1,0.1-0.3,0.2-0.4,0.3c-0.1,0.1-0.2,0.3-0.2,0.4c0,27.7,0,55.5,0,83.2
			c-0.2,0.2-0.4,0.4-0.7,0.6c-2.1,0.8-4,0.9-5.8-0.7c-2-5.7-0.5-11.7-1-17.5c-0.2-1.8,0.8-4.1-1.9-4.9c-1.2-0.2-2.3-0.6-3.1-1.6
			c-1.5-2.9-0.8-6-0.9-9.1c-0.1-6.8-0.1-13.7,0-20.5c-0.1-2.2-0.1-4.4,0-6.6c-0.1-9.9-0.1-19.8,0-29.7c0-2.6-0.3-5.4,2.6-6.9
			c0.9-0.4,1.9-0.5,2.7-0.8c1-1.4,0.6-2.9,0.8-4.3c0-1,0-2.1,0-3.1c-0.1-1.1,0-2.2,0-3.3c0-2-0.1-4,1.4-5.6c1.8,0,3.7,0,5.9,0
			c0-1.9,0.1-3.8,0.1-5.8c0-2,0-3.9,0-6.2c2.1,0,4,0,6,0c2.3,2.7,1.4,6,1.5,9c0.1,3.8,0.2,7.6-0.1,11.4c0,2.1,0.1,4.2,0,6.2
			c0,2,0,3.9,0,5.9c0,1.1,0,2.2,0,3.3c0,1.1,0,2.2-0.1,3.3C744.6,93.2,744.4,94.2,743.5,95z"/>
		<path class="st17" d="M230.7,136.8c-0.1-1-0.2-1.7-0.3-2.7c-0.8,0-1.6,0-2.2,0c-1.2-0.9-0.3-2.1-0.9-3c-0.8-0.1-1.5-0.1-2.5-0.2
			c0-3.9,0-7.8,0-11.7c0.8-0.1,1.6-0.2,2.6-0.3c0-2.7,0-5.5,0-8c0.8-1.4,2-0.5,3-1.1c0-2.7,0-5.4,0-8c0.9-1.3,2.1-0.4,3-1
			c0-1.7,0-3.5,0-5.1c0.9-1.2,2.1-0.3,3-0.9c0.1-0.8,0.2-1.6,0.2-2.4c0.7-0.8,1.6-0.2,2.4-0.4c1.1-0.6,0.2-1.8,0.7-2.6
			c0.7-0.7,1.6-0.1,2.3-0.3c1-0.7,0.1-1.9,0.8-2.8c1.7,0,3.4,0,5.4,0c0.8,0.6-0.1,1.8,0.5,2.7c0.8,0.1,1.6,0.1,2.6,0.2
			c0,2.9,0,5.8,0,8.7c-0.9,0.1-1.6,0.2-2.6,0.3c0,3.8,0,7.5,0,11c-0.8,1.4-2,0.5-3,1.1c0,1.7,0,3.4,0,5c-0.9,1.2-2.1,0.4-3,1
			c0,1.7,0,3.5,0,5.7c2.8,0,5.7,0,8.7,0c0.1,1.1,0.2,1.9,0.3,2.8c1.8,0.8,3.8-0.1,5.8,0.6c0,2.8,0,5.6,0,8.6c-1.8,0-3.6,0-5,0
			c-1.4,0.8-0.5,2-1.1,3C244.6,136.8,237.8,136.8,230.7,136.8z"/>
		<path class="st5" d="M620.5,137c-1.8,0-3.7,0-5.5,0c-0.1-0.1-0.2-0.2-0.3-0.3c-0.1-0.1-0.2-0.3-0.2-0.4c0-23.6,0-47.2,0-71
			c15.9,0,31.8,0,48,0c0,6.9,0,13.8,0,20.8c-1.9,1.5-2.9,5.6-6.6,2.6c-2-4.9,0.2-10.3-1.8-15.5c-5.2-1.2-10.5-0.3-15.8-0.7
			c-4,0.2-8,0.1-11.9,0c-1.3,0.2-2.7,0.3-3.6,1.6c-1,2.2-0.7,4.5-0.7,6.8c0,16.2,0,32.3,0,48.5C622,132,622.4,134.7,620.5,137z"/>
		<path class="st18" d="M692.5,71c0-4,0-8,0-12c0.2-0.2,0.4-0.4,0.6-0.6c4.8-2.1,10.2,0.3,15.4-1.9c1-6.3,0.5-12.6,0.3-18.8
			c-3.5-2.1-6.9-0.9-10.1-1.3c-2,0-4.1,0.2-6-0.9c-1.7-1.8-1.6-3.7-0.8-5.8c0.2-0.2,0.4-0.4,0.6-0.7c7.9,0,15.8,0,24,0
			c0,12.2,0,24.1,0,36c-1.6,2.1,2.7,4.7-0.5,6.7c-1.7,0.7-3.5,0.7-5.3,0.7c-4,0.4-8.3-1.1-11.8,1.9C695.3,75.9,694.3,72.6,692.5,71z
			"/>
		<path class="st5" d="M692.5,59c-7.9,0-15.9,0-23.9,0c0-12,0-23.8,0-35.8c7.8,0,15.7,0,23.9,0c0,1.9,0,3.8,0,5.8
			c-2.4,2-5.4,1.3-8.1,1.5c-2.4,0.2-5-0.4-7.8,1.1c-1,6.1-0.8,12.5-0.1,18.7c3.3,2,6.8,0.9,10,1.3c2.1,0,4.3-0.2,6.2,1.3
			C694.1,54.9,694,57,692.5,59z"/>
		<path class="st16" d="M446.5,80c0-2.8,0-5.7,0-8.5c0.1-0.1,0.2-0.3,0.3-0.4c0.1-0.1,0.3-0.2,0.4-0.2c8.6,0,17.3,0,26.2,0
			c0,3.1,0,6,0,9c-1.2,1.1-2.6,1.5-4.1,1.5c-6.3,0.2-12.5,0.2-18.8,0C449.1,81.5,447.7,81.1,446.5,80z"/>
		<path class="st18" d="M656.5,89c0.8,0,1.6,0,2.5,0c1-0.7,0.2-1.9,0.7-2.7c0.9-0.6,1.9-0.2,2.8-0.3c0,0.8,0,1.7,0,2.5
			c0.1,0.1,0.2,0.3,0.3,0.4c0.1,0.1,0.3,0.2,0.4,0.2c9.7,0,19.5,0,29.2,0c1.4,2.1,0.4,3.6-1.7,4c-2.1,0.4-3.3,1.9-5,2.8
			c-9.8,0.9-19.6,1.7-29.4-0.5C654.9,93.3,654.7,91.1,656.5,89z"/>
		<path class="st7" d="M743.5,74c0-7,0-14,0-21c0-1.9,0-3.8,0-6c2.2,0,4.1,0,6,0c0.8,0,1.6,0,2.5,0c1,0.8,0.4,1.7,0.4,2.6
			c-0.7,0.7-1.6,0.2-2.7,0.4c-0.3,5.9-0.1,11.9-0.1,17.9c1.6,2,1.6,4.1,0.2,6.2C747.6,75.6,745.5,75.6,743.5,74z"/>
		<path class="st17" d="M491.5,119c0-6,0-12,0-18c0.8,0,1.7,0,2.5,0c1-0.7,0.1-1.9,0.8-2.8c3.7,0,7.4,0,11.4,0
			c0.8,0.7,0,1.7,0.6,2.7c-3.3,0-6,0-8.6,0c-1.2,0.9-0.2,2.1-1,2.9c-0.7,0.1-1.5,0.2-2.3,0.3c-0.7,0.7-0.2,1.6-0.5,2.8
			c4,0.1,7.9,0,11.7,0.1c0.7,1,0.3,2,0.4,3c-0.2,0.2-0.3,0.3-0.5,0.5c-3,1.8-6.8-0.4-10,2.2c2.9,3.5,7.1,0.8,10,2.7
			c0.2,0.2,0.3,0.4,0.5,0.5c0,0.8,0,1.6,0,2.9c-2.5,0.2-5.1,0-7.6,0.1C496.4,119,494,119,491.5,119z"/>
		<path class="st5" d="M686.5,95c0-0.8,0-1.7,0-2.7c1.8-0.8,3.8,0,5.7-0.5c0.6-0.9,0.2-1.9,0.3-2.8c0-6,0-12,0-18c0.8,0,1.6,0,2.5,0
			c1,0.7,0.2,1.9,0.7,2.7c0.9,0.6,1.9,0.2,2.8,0.3c2.7,6.9,2,13.8,0.5,20.8c-1.8,1.9-4.1,1.6-6.3,1.6
			C690.5,96.4,688.2,96.8,686.5,95z"/>
		<path class="st17" d="M428.5,116c0,1,0,2,0,3c-2.9,0-5.9,0-8.8,0c-0.1-1.1-0.2-1.9-0.3-2.6c-0.7-0.8-1.6-0.1-2.3-0.4
			c-1.1-0.6-0.2-1.8-0.7-2.6c-0.7-0.7-1.6-0.1-2.6-0.4c0-2.8,0-5.7,0-8.7c0.6-0.6,1.5-0.1,2.2-0.2c1-0.7,0.2-1.9,0.6-2.6
			c0.7-0.7,1.6-0.2,2.4-0.4c1-0.7,0.1-1.9,0.9-3c2.7,0,5.6,0,8.6,0c0,1,0,2,0,3c-0.7,0.8-1.7,1-2.6,1.4c-2.8,1.1-5,2.8-5,6.1
			c0,3.3,2.2,5.1,5,6.1C426.8,115,427.8,115.2,428.5,116z"/>
		<path class="st5" d="M716.5,71c0-0.8,0-1.6,0-2.4c-0.6-1.1-1.8-0.3-2.6-0.7c-0.7-0.8-0.4-1.7-0.1-2.9c0.9,0,1.8,0,2.7,0
			c5,0,10,0,15,0c0,2,0,4,0,6c-1,0.9-2.1,1.3-3.4,1.3C724.2,72.2,720.1,73.6,716.5,71z"/>
		<circle class="st7" cx="752.5" cy="26" r="4.2"/>
		<path class="st19" d="M488.5,98c0,1.8,0,3.6,0,5.7c-1.9,0-3.7,0-5.8,0c-0.6-0.5,0-1.4-0.2-2.2c0.7-1.1,1.9-0.2,2.7-0.7
			c0.6-0.9,0.2-1.9,0.3-2.8C486.5,98,487.5,98,488.5,98z"/>
		<path class="st19" d="M437.5,86c0.8,0,1.6,0,2.7,0c0.7,1.4,0.2,3.1,0.3,4.6c0.1,1.5,0,2.9,0,4.4c-1,0.8-2,0.8-3,0
			C437.5,92,437.5,89,437.5,86z"/>
		<path class="st19" d="M437.5,101c0,0.8,0,1.7,0,2.7c-1.9,0-3.8,0-6,0c0-1.8,0-3.8,0-5.7c1,0,2,0,3,0
			C435.4,99.1,436.7,99.8,437.5,101z"/>
		<path class="st20" d="M437.5,101c-0.9,0-1.8,0-3,0c0-1.2,0-2.1,0-3c0.9,0,1.8,0,3,0c0-1.2,0-2.1,0-3c1,0,2,0,3,0c0,1.9,0,3.8,0,6
			C439.4,101,438.4,101,437.5,101z"/>
		<path class="st17" d="M506.5,110c0.8,0,1.7,0,2.7,0c0,1.9,0,3.8,0,5.7c-0.8,0.6-1.8,0.1-2.7,0.3C504.9,114,504.9,112,506.5,110z"
			/>
		<circle class="st19" cx="481" cy="81.5" r="2.1"/>
		<path class="st21" d="M47.5,76.7c0,1.5,0,2.2,0,2.9c-0.8,0.8-1.7,0.1-2.3,0.5c-1.1-0.8-0.2-1.9-0.6-2.5
			C45.4,76.6,46.3,77.3,47.5,76.7z"/>
		<circle class="st22" cx="70" cy="135.5" r="2.1"/>
		<circle class="st22" cx="88" cy="135.5" r="2.1"/>
		<path class="st2" d="M833.5,53c0-11.9,0-23.8,0-35.9c-2,0-3.7,0-5.8,0c0-4,0-7.9,0-12.1c1.9,0,3.8,0,5.8,0c1.2,1,1.1,2.8,2.1,3.9
			c1.1,1,2.9,0.9,3.9,2.1c0,2,0,4,0,6c1.2,1,1.1,2.8,2.1,3.9c1.1,1,2.9,0.9,3.9,2.1c0,3.8,0,7.7,0,11.8c1.9,0.1,3.8,0.2,6,0.3
			c0,12,0,23.9,0,35.9c-2,1.6-4,1.6-6,0c0-1.8,0-3.6,0-5.8c-1.9-0.1-3.8-0.2-5.8-0.3c0-1.8,0-3.6,0-5.5c-2-0.9-4,0-6.2-0.7
			C833.5,56.9,833.5,55,833.5,53z"/>
		<path class="st4" d="M869.4,143c-1.8,0-3.7,0-5.9,0c0-1.9-0.1-3.8-0.1-5.8c0-2,0-3.9,0-6.2c-2.1,0-4,0-6,0c0-1.9,0-3.8,0-6
			c2.2,0,4.1,0,6,0c1.9,0,3.9,0,6,0C869.4,131.2,869.4,137.1,869.4,143z"/>
		<circle class="st4" cx="842.5" cy="20" r="4.2"/>
		<circle class="st7" cx="860.4" cy="104" r="4.2"/>
		<circle class="st7" cx="854.4" cy="86" r="4.2"/>
		<circle class="st4" cx="836.5" cy="8" r="4.2"/>
		<path class="st7" d="M845.5,71c2,0,4,0,6,0c0,2,0,4,0,6c-1.9,0-3.8,0-6,0C845.5,74.8,845.5,72.9,845.5,71z"/>
		<path class="st2" d="M761.5,47c0-3.8,0-7.7,0-11.6c1.8-0.9,3.8,0,5.9-0.6c0-3.7,0-7.5,0-11.3c2-1,4,0,6-0.7c0-1.7,0-3.5,0-5.3
			c2-1,4,0,6-0.7c0-1.8,0-3.6,0-5.5c4.1,0,8,0,12,0c0,1.9,0,3.7,0,5.6c1.9,0,3.7,0,5.9,0c0.1,2.1,0.2,4,0.3,6c1.9,0,3.6,0,5.4,0
			c1,2,0,4,0.8,6c1.7,0,3.5,0,5.3,0c0.9,2,0,4,0.7,6c1.8,0,3.6,0,5.6,0c0,3.9,0,7.7,0,11.6c2,0.9,4,0,6.2,0.7c0,6.8,0,13.8,0,20.7
			c-0.2,0.2-0.4,0.4-0.6,0.6c-2.7,1.2-5.5,0.7-8.3,0.7c-1.1-0.1-2.1-0.3-3-0.9c-1.3-1.1-1.1-3-2.1-4.3c-1.1-1-2.8-0.8-3.9-1.7
			c-1.9-1.2-0.5-5-3.9-5.1c-1-0.2-2-0.6-2.8-1.2c-1.2-1.9-3.6-1.4-5.2-2.6c-1.4-1-1.5-2.9-3.2-4.4c-8.5-1.7-17.6,0.8-26.5-1.4
			C761.9,47.4,761.7,47.2,761.5,47z"/>
		<path class="st2" d="M755.5,68c0-6.9,0-13.8,0-21c2.1,0,4.1,0,6,0c1.1,1.1,1.4,2.6,2.6,3.9c4.8,1.9,10.4-0.6,15.3,1.7
			c1,0.9,1,2,0.5,3.1c-0.7,1-1.8,1.3-2.9,1.5c-1.1,0.1-2.1,0.1-3.2,0.1c-1,0-1.9,0-2.9,0.1c-3.2,0.2-1.6,3.7-3.4,4.9
			c-1.1,1-2.8,0.8-4,1.7c-1,1.1-0.8,2.8-1.7,4c-0.7,0.8-1.7,1-2.7,1.2c-1.1,0.1-2.1,0-3-0.6C755.8,68.4,755.6,68.2,755.5,68z"/>
		<path class="st2" d="M827.5,113c0,7,0,14,0,21c-1.9,1.5-3.8,1.5-5.5,0.5c-1.7-1.3-1.6-3.2-2.6-4.4c-1.2-0.9-2.8-0.8-3.9-1.9
			c-1.3-1.7-1.3-3.5-0.6-5.5c0.8-2.6,4.8-0.9,5.3-4c0.1-1,0.1-1.9,0.1-2.9c0-1.1,0-2.1,0.1-3.2c0.1-1.2,0.5-2.2,1.4-3
			c2-1.1,4-1.2,5.9,0.1C828.4,110.8,828.3,111.9,827.5,113z"/>
		<path class="st7" d="M839.5,95c0-0.8,0-1.7,0-2.5c0.8-0.9,1.8-0.5,2.7-0.3c0.7,0.7,0.1,1.6,0.4,2.4c0.7,0.9,1.9,0,2.8,0.7
			c0.1,0.8,0.1,1.5,0.2,2.3c0.7,1,1.9-0.1,2.8,0.7c0.1,0.7,0.2,1.5,0.3,2.3c0.7,0.7,1.6,0.2,2.6,0.4c0,1.8,0,3.7,0,5.7
			c-0.6,0.6-1.5,0-2.3,0.3c-1,0.7-0.1,1.9-0.9,2.9c-0.6,0-1.4,0.1-2.2,0.1c-1,0.7,0.1,1.9-0.8,2.8c-0.7,0.1-1.5,0.2-2.3,0.3
			c-1,0.7,0.2,2-0.8,2.8c-0.7,0-1.5,0-2.2,0c-0.7-0.9-0.2-2-0.4-2.9c-1.4-1.7-1.5-3.5-0.6-5.4c1-2,4-1.3,5-3.2
			c-0.7-2.8-3.9-1.8-4.9-3.8C838,98.5,838.1,96.7,839.5,95z"/>
		<path class="st23" d="M815.5,128c1.8,0,3.6,0,5.7,0c0.8,1.8,0,3.8,0.5,6c1.9,0,3.9,0,5.8,0c0,1,0,2,0,3c-1.7,1.5-3.7,1.5-5.7,1.3
			c-2-0.2-3.7-0.8-4.3-3c-0.2-1.6-0.6-3.1-2.1-4.1c-0.6-0.8-0.7-1.7-0.3-2.7C815.1,128.3,815.3,128.2,815.5,128z"/>
		<path class="st2" d="M821.5,77c1.9,0,3.9,0,6,0c0,3.2,0,6.1,0,9c-1.8,1.5-3.8,1.5-5.8,0.4c-1-0.8-1.3-1.9-1.5-3.1
			c-0.1-2-0.3-3.9,0.6-5.8C821.1,77.4,821.3,77.2,821.5,77z"/>
		<path d="M821.5,68c1.8,0,3.6,0,5.7,0c0,1.9,0,3.8,0,6c-1.8,0-3.8,0-5.7,0c-0.9,0.8-1.9,0.9-3,0.3C816.2,70.7,820,69.9,821.5,68z"
			/>
		<path d="M821.5,137c2,0,4,0,6,0c0,3,0,6,0,9c-1,0-2,0-3,0c-1-1.3-2.5-2-3.5-3.3c-0.5-0.9-0.7-1.9-0.7-2.9
			C820.3,138.7,820.7,137.8,821.5,137z"/>
		<path class="st23" d="M749.5,74c0-2,0-4,0-6c1,0,2,0,3,0c1.5,1.7,1.4,3.7,1.4,5.7c0,2,0.1,4-0.8,5.9c-0.8,1.1-1.8,1.3-3,1
			c-0.6-0.2-1-0.6-1.2-1.1C748,77.6,748,75.7,749.5,74z"/>
		<path class="st3" d="M839.5,95c0,2,0,4,0,6c-0.2,0.2-0.4,0.4-0.6,0.6c-1.9,0.8-3.8,0.9-5.6-0.3c-0.7-0.9-1-2-1-3.2
			c0-1.2,0.4-2.2,1.2-3.1C835.5,95,837.5,95,839.5,95z"/>
		<path class="st3" d="M839.5,107c0,2,0,4,0,6c-2,0-4,0-6,0c-1.5-1.8-1.5-3.8-0.5-5.9c1.8-1.7,3.7-1.6,5.8-0.7
			C839,106.6,839.2,106.8,839.5,107z"/>
		<path class="st11" d="M833.5,107c0,2,0,4,0,6c-2,0-4,0-6,0c0-1,0-2,0-3c-0.8-1.1-0.9-2.2,0-3.3C829.5,105.5,831.5,105.3,833.5,107
			z"/>
		<path class="st24" d="M827.5,92c0,1,0,2,0,3c-0.1,0.2-0.2,0.4-0.4,0.6c-1.3,0.9-1.9,2.6-3.6,3.1c-1.1,0.2-2.1,0-2.7-1.1
			c-0.8-2.1-0.9-4.1,0.6-5.9C823.5,90.4,825.5,90.5,827.5,92z"/>
		<path d="M752.5,74c0-2,0-4,0-6c1,0,2,0,3,0c1.5,1.9,1.6,3.9,0.3,5.9C754.7,74.8,753.6,74.8,752.5,74z"/>
		<path class="st25" d="M821.5,86c2,0,4,0,6,0c0,1,0,2,0,3c-1.4,1.3-3.1,1.2-4.8,0.9c-0.5-0.1-0.9-0.4-1.3-0.7
			c-0.7-0.8-0.7-1.8-0.3-2.8C821.1,86.4,821.3,86.2,821.5,86z"/>
		<path d="M821.5,89c2,0,4,0,6,0c0,1,0,2,0,3c-2,0-4,0-6,0C820.6,91,820.6,90,821.5,89z"/>
		<path class="st11" d="M833.5,95c0,1,0,2,0,3c-1.9,1.5-3.9,1.6-5.9,0.3c-0.9-1.1-0.9-2.2-0.1-3.3C829.5,95,831.5,95,833.5,95z"/>
		<path class="st26" d="M818.5,74c1,0,2,0,3,0c0,1,0,2,0,3C818.3,78.1,817.3,77.2,818.5,74z"/>
		<path class="st23" d="M755.5,170c0-5,0-10,0-15c1.3-0.9,1.8-2.3,1.9-3.8c0.2-1,0.5-1.9,1.4-2.5c1.2-0.5,2.2-0.3,3.1,0.6
			c1.5,2.7,0.9,5.7,1,8.6c0.1,2.1,0.1,4.1,0,6.2c0,2.1,0.2,4.3-1.3,6.1C759.5,171.6,757.4,171.5,755.5,170z"/>
		<path class="st12" d="M761.5,215c-3.9,0-7.8,0-11.6,0c-0.7-1.1-0.3-2.1-0.4-3c-1.5-2-1.7-4,0-6c0.8,0,1.6,0,2.5,0
			c1.1-0.7,0.2-1.9,0.7-2.7c0.6-0.7,1.5,0,2.4-0.5c0.8,2,0,4,0.6,6c1.7,0,3.5,0,5,0c1.3,0.8,0.5,2,1,2.8c0.7,0.7,1.5,0.1,2.3,0.3
			c0.9,0.8,0.5,1.7,0.3,2.7C763.4,215.3,762.4,214.9,761.5,215z"/>
		<path class="st24" d="M749.5,116c0-1,0-2,0-3c1.3-1,2-2.6,3.4-3.6c0.9-0.5,2-0.7,3-0.7c2-0.1,4-0.2,5.7,1.1
			c1.4,1.7,1.3,3.7,1.2,5.7c-0.1,1.1-0.2,2.2-0.9,3.2c-0.7,0.9-1.7,1.2-2.8,1.4c-1,0.1-2,0-3-0.3c-0.4-0.2-0.8-0.4-1.2-0.7
			C753.8,116.8,750.9,117.6,749.5,116z"/>
		<path class="st1" d="M737.5,200c0-4,0-8,0-12c1.9-1.3,2.5-5.1,6-3c0,4,0,8,0,12C741.6,198.3,741,202.1,737.5,200z"/>
		<path class="st23" d="M743.5,95c0-1,0-2,0-3c2.1-1.6,4.2-1.7,6.3-0.1c1.8,4.1,1.8,8.1,0,12.2c-2.1,1.6-4.2,1.5-6.3-0.1
			C743.5,101,743.5,98,743.5,95z"/>
		<path class="st7" d="M737.5,200c0.8,0,1.6,0,2.5,0c1-0.7,0.2-1.9,0.7-2.7c0.9-0.6,1.9-0.2,2.8-0.3c0,2,0,4,0,6
			c1.4,1.8,1.5,3.7,0.6,5.7c-3.7,2.8-4.6-1.2-6.6-2.7C737.5,204,737.5,202,737.5,200z"/>
		<path class="st27" d="M743.5,209c0-2,0-4,0-6c1.9,0,3.8,0,6,0c0,1.1,0,2.1,0,3c0,2,0,4,0,6c-2,0-4,0-6,0
			C742.6,211,742.7,210,743.5,209z"/>
		<path class="st23" d="M743.5,137c0-0.8,0-1.6,0-2.7c1.8-0.8,3.8,0.1,5.7-0.6c0.8-1.7-0.2-3.7,0.6-5.8c1.9,0,3.8,0,5.7,0
			c0.2,0.2,0.3,0.4,0.5,0.5c0.4,0.9,0.2,1.8-0.3,2.6c-1.4,1-2,2.4-2.1,4.1c-0.6,2.2-2.2,2.9-4.2,3
			C747.2,138.5,745.2,138.5,743.5,137z"/>
		<path d="M743.5,137c2,0,4,0,6,0c0.7,0.8,1.1,1.7,1.2,2.8c0,1-0.2,2-0.7,2.9c-1,1.3-2.5,2-3.5,3.3c-0.8,0-1.6,0-2.7,0
			c-0.7-1.4-0.2-3.1-0.3-4.6C743.4,139.9,743.5,138.5,743.5,137z"/>
		<path class="st7" d="M743.5,185c-0.8,0-1.6,0-2.5,0c-1,0.7-0.2,1.9-0.7,2.7c-0.9,0.6-1.9,0.2-2.8,0.3c0-1,0-2,0-3
			c-1.6-2-1.6-4,0-6c1.9,0,3.8,0,6,0C743.5,181.2,743.5,183.1,743.5,185z"/>
		<path class="st12" d="M791.5,215c0-1.8,0-3.6,0-5.7c1.9,0,3.8,0,6,0c0,1.8,0,3.8,0,5.7c-0.8,0-1.6,0-2.4,0
			c-1.2,0.6-0.2,1.8-0.9,2.8c-0.6,0.5-1.5,0.3-2.7-0.1C791.5,216.8,791.5,215.9,791.5,215z"/>
		<path d="M770.5,182c-1,0-2,0-3,0s-2,0-3,0c-1.5-2-1.6-4-0.1-6.1c2.1-1.5,4.1-1.5,6.2,0C772.1,177.9,772,180,770.5,182z"/>
		<path d="M758.5,149c0,1,0,2,0,3c-1,0.8-2,0.8-3,0c-1,0-2,0-3,0c-1.4-1.7-1.5-3.6-0.6-5.5c0.6-1,1.6-1.3,2.7-1.2
			c1.7,0.4,2.2,2.3,3.5,3.1C758.2,148.6,758.3,148.8,758.5,149z"/>
		<path d="M743.5,104c2,0,4,0,6,0c0.9,1.1,0.8,2.2-0.1,3.3c-2,1.3-4,1.2-5.9-0.3C743.5,106,743.5,105,743.5,104z"/>
		<path class="st25" d="M743.5,107c2,0,4,0,6,0c0.2,0.2,0.3,0.3,0.5,0.5c0.3,0.7,0.3,1.3,0,2c-0.2,0.2-0.3,0.3-0.5,0.5
			c-1.9,0-3.8,0-6,0C743.5,108.9,743.5,107.9,743.5,107z"/>
		<path d="M749.5,116c1.9,0,3.8,0,6,0c0,1.1,0,2.1,0,3c-2,1.7-4,1.5-6,0C749.5,118,749.5,117,749.5,116z"/>
		<path d="M755.5,170c2,0,4,0,6,0c0.2,0.2,0.3,0.4,0.5,0.7c0.3,1.2,0.1,2.2-1,2.9c-1.9,0.9-3.8,0.8-5.5-0.6
			C755.5,172,755.5,171,755.5,170z"/>
		<path class="st23" d="M749.5,119c2,0,4,0,6,0c0.8,0.7,0.9,1.6,0.5,2.5c-0.2,0.2-0.3,0.3-0.5,0.5c-1.9,0-3.8,0-6,0
			C749.5,120.9,749.5,119.9,749.5,119z"/>
		<path class="st28" d="M752.5,146c0,2,0,4,0,6c-0.8,0-1.6,0-2.7,0c-0.6-1.9-0.2-4-0.3-6c0.2-0.2,0.3-0.3,0.5-0.5
			c0.7-0.3,1.3-0.3,2,0C752.1,145.7,752.3,145.8,752.5,146z"/>
		<path class="st26" d="M755.5,128c0-2,0-4,0-6c0.9-0.8,1.8-0.9,2.9-0.4c0.4,0.3,0.8,0.7,1,1.2c0.5,1.9,0.6,3.7-0.8,5.4
			C757.4,128.8,756.4,128.8,755.5,128z"/>
		<path class="st25" d="M755.5,173c2,0,4,0,6,0c0.2,0.2,0.3,0.3,0.5,0.5c0.3,0.7,0.3,1.3,0,2c-0.2,0.2-0.3,0.3-0.5,0.5
			c-1.9,0-3.8,0-6,0C755.5,174.8,755.5,173.9,755.5,173z"/>
		<path class="st25" d="M764.5,176c0,2,0,4,0,6c-0.8,0-1.6,0-2.7,0c-0.6-1.9-0.2-4-0.3-6c0.7-0.8,1.6-0.9,2.5-0.5
			C764.1,175.7,764.3,175.8,764.5,176z"/>
		<path class="st29" d="M755.5,152c1,0,2,0,3,0c0,0.9,0,1.8,0,3c-1.2,0-2.1,0-3,0C755.5,154,755.5,153,755.5,152z"/>
		<path class="st25" d="M746.5,146c0-0.9,0-1.8,0-3c1.2,0,2.1,0,3,0c0.2,0.2,0.3,0.3,0.5,0.5c0.4,0.9,0.3,1.8-0.5,2.5
			C748.5,146,747.5,146,746.5,146z"/>
		<path class="st26" d="M752.5,110c0,0.9,0,1.8,0,3c-1.2,0-2.1,0-3,0c0-1,0-2,0-3c0.7-0.8,1.6-0.9,2.5-0.5
			C752.1,109.7,752.3,109.8,752.5,110z"/>
		<path class="st7" d="M779.5,191c0-3.8,0-7.6,0-11.7c1.8-0.8,3.8,0,6-0.6c0-2.8,0-5.8,0-8.7c0.8-0.9,1.9-1.1,3-1.2
			c1.1,0,2.1,0.2,3.1,0.9c1.2,1.2,0.9,3,1.9,4.3c1.2,1,3.1,0.8,4.2,2.1c0.6,1,0.6,2-0.2,2.9c-1.8,0-3.7,0-5.9,0
			c0,1.9-0.1,3.8-0.1,5.8c0,2,0,3.9,0,6.2c-2.1,0-4,0-6,0C783.5,192.6,781.5,192.6,779.5,191z"/>
		<path class="st25" d="M788.5,170c-1,0-2,0-3,0s-2,0-3,0c-0.9-1.1-2.1-1.8-3.1-2.7c-0.3-0.4-0.5-0.9-0.6-1.4
			c-0.1-1.1,0.2-2.1,1.3-2.7c3.6-1,7.1-0.9,10.7-0.1c1.1,0.5,1.5,1.4,1.5,2.5c0,0.5-0.2,0.9-0.4,1.3
			C790.8,168.1,789.4,168.8,788.5,170z"/>
		<path class="st25" d="M779.5,170c0,1.9,0,3.8,0,6c-2.2,0-4.1,0-6,0c-0.2-0.2-0.3-0.3-0.5-0.5c-0.3-0.6-0.3-1.3-0.2-2
			c0.2-0.4,0.4-0.8,0.7-1.1c1.3-0.7,1.7-1.9,1.8-3.3c0.2-1,0.4-1.9,1.2-2.6c1.1-0.5,2-0.3,2.9,0.4C780.3,168,780.3,169,779.5,170z"
			/>
		<path d="M806.5,182c-2,0-4,0-6,0c-1.5-2-1.6-4-0.1-6.1c2.1-1.5,4.1-1.5,6.2,0C808.1,177.9,808,180,806.5,182z"/>
		<path class="st11" d="M779.5,191c2,0,4,0,6,0c0,1.8,0,3.6,0,5.7c-1.8,0.7-3.8,0-6,0.5C779.5,194.9,779.5,192.9,779.5,191z"/>
		<path class="st25" d="M770.5,182c0-2,0-4,0-6c0.2-0.2,0.3-0.3,0.5-0.5c0.9-0.4,1.8-0.3,2.5,0.5c0,1.9,0,3.8,0,6
			C772.3,182,771.4,182,770.5,182z"/>
		<path class="st25" d="M800.5,176c0,2,0,4,0,6c-0.9,0-1.8,0-3,0c0-1.2,0-2.1,0-3c0-1,0-2,0-3c0.2-0.2,0.3-0.3,0.5-0.5
			c0.7-0.3,1.3-0.3,2,0C800.1,175.7,800.3,175.8,800.5,176z"/>
		<path class="st25" d="M806.5,182c0-2,0-4,0-6c0.2-0.2,0.3-0.3,0.5-0.5c0.7-0.3,1.3-0.3,2,0c0.2,0.2,0.3,0.3,0.5,0.5c0,2,0,4,0,6
			C808.5,182,807.5,182,806.5,182z"/>
		<path class="st29" d="M779.5,170c0-1,0-2,0-3c0.9,0,1.8,0,3,0c0,1.2,0,2.1,0,3C781.5,170,780.5,170,779.5,170z"/>
		<path class="st30" d="M713.5,203c0,2,0,4,0,6c-7,2.7-14.1,2.2-21.2,0.3c-1.2-1.5-1.3-3.3-1.4-5.2c0-12.2-0.2-24.4,0.1-36.6
			c0-2.3-0.3-4.6,1.3-6.6c2.1-1.5,4.2-1.5,6.3,0c1.7,2.1,1.4,4.7,1.4,7.2c0.1,8.8,0,17.6,0,26.3c0,1.8-0.1,3.7,0.6,5.5
			c0.9,1.4,2.4,1.5,3.9,1.7C707.5,201.6,710.7,200.8,713.5,203z"/>
		<path class="st18" d="M704.5,203c-1.8,0-3.6,0-5.5,0c-0.1-0.1-0.3-0.2-0.4-0.3c-0.1-0.1-0.2-0.3-0.2-0.4c0-13.7,0-27.5,0-41.2
			c0.2-0.2,0.3-0.3,0.5-0.5c1.1-0.7,2.5-0.5,3.6-1.3c1-1.1,0.8-2.5,1.3-3.7c0.2-0.4,0.6-0.8,1-1c1-0.4,1.9-0.3,2.7,0.5
			c0,12,0,24,0,36c-1.9,1.4-1.4,3.5-1.6,5.4C705.7,198.7,706.2,201.1,704.5,203z"/>
		<path class="st31" d="M728.5,191c-0.8,0-1.7,0-2.8,0c-0.1-1.9-0.2-3.8-0.3-5.8c-1.8,0-3.6,0-5.7,0c-0.3-6,0-11.9-0.2-17.8
			c-1.8-0.9-3.8,0.1-5.9-0.7c0-3.8,0-7.8,0-11.7c2.8-2,5.7-1.7,8.6-0.5c1.4,1,1.5,2.8,2.4,4.1c1.3,1.5,3.8,1.1,4.8,3.1
			c1.4,8.9,0.5,17.8,0.5,26.7C729.7,189.4,729.1,190.2,728.5,191z"/>
		<path class="st10" d="M698.5,161c-2,0-4,0-6,0c-0.2-0.2-0.4-0.4-0.6-0.6c-0.9-2-0.8-3.9,0.3-5.7c2.3-2.1,4.7-4.3,6.6-6.7
			c6.6-8.5,15.1-7,23.8-5.2c0.8,1,1.1,2.1,1.1,3.3c0,1.3-0.3,2.5-1.3,3.4c-3,1.4-6,1.6-8.9-0.4c-2,0-4,0-6,0c-2.2,1.4-1.2,4.4-3,6
			c-1,1.2-2.7,1.1-3.7,1.9C699.5,158.2,699.7,160,698.5,161z"/>
		<path class="st32" d="M692.5,209c7,0,14,0,21,0c0,2,0,4,0,6c-1,0-2,0-3,0c-2,0-4,0-6,0c-5,2.4-10,2.4-15,0c-0.8,0-1.6,0-2.7,0
			c-0.6-1.9-0.2-4-0.3-6c0.2-0.2,0.4-0.4,0.6-0.6C689,207.5,690.8,207.6,692.5,209z"/>
		<path class="st33" d="M728.5,191c0-10,0-20,0-30c-1.6-2-1.6-4,0-6c0.8,0,1.6,0,2.5,0c0.1,0.1,0.3,0.2,0.4,0.3
			c0.1,0.1,0.2,0.3,0.2,0.4c0,7.7,0,15.5,0,23.2c1.6,2,1.6,4,0,6c0,1.9,0,3.8,0,6C730.3,191,729.4,191,728.5,191z"/>
		<path class="st34" d="M704.5,203c0-3.9,0-7.8,0-11.6c1.1-0.7,2.1-0.3,3-0.4c0,1.8,0,3.6,0,5.8c1.9,0.1,3.8,0.2,6,0.3
			c0,2,0,3.9,0,5.9C710.5,203,707.5,203,704.5,203z"/>
		<path class="st35" d="M713.5,149c3,0,6,0,9,0c1.5,1.7,1.4,3.5,0.6,5.4c-0.2,0.2-0.4,0.4-0.6,0.6c-3,0-6,0-9,0
			C713.5,153,713.5,151,713.5,149z"/>
		<path class="st11" d="M743.5,209c0,1,0,2,0,3c0,0.8,0,1.6,0,2.7c-1.9,0.6-4,0.2-6,0.3c0-3,0-6,0-9c0.8,0,1.6,0,2.5,0
			c1,0.7,0.2,1.9,0.7,2.7C741.5,209.3,742.5,208.9,743.5,209z"/>
		<circle class="st0" cx="734.5" cy="182" r="4.2"/>
		<path class="st30" d="M704.5,155c0-1.9,0-3.8,0-6c1.1,0,2.1,0,3,0c0,2,0,4,0,6C706.5,155,705.5,155,704.5,155z"/>
		<path class="st25" d="M815.5,155c0,3,0,6,0,9c-1.3,0.9-1.5,2.4-1.9,3.8c-0.5,1.9-1.4,3.3-3.7,2.8c-0.5-0.2-0.9-0.6-1.1-1.1
			c-0.8-1.8-0.6-3.8-0.7-5.7c-0.1-2,0-3.9,0-5.9c0.1-2.9-0.5-5.8,0.9-8.5c0.8-1,1.9-1.2,3-0.7c1,0.6,1.3,1.5,1.5,2.5
			C813.7,152.6,814.1,154,815.5,155z"/>
		<path class="st28" d="M809.5,170c0.8,0,1.7,0,2.7,0c0.8-1.8,0-3.8,0.5-5.7c0.9-0.6,1.9-0.2,2.8-0.3c0,3.9,0,7.8,0,12
			c-2.1,0-4.1,0-6,0c-0.8-0.9-1.2-1.9-1.2-3C808.3,171.8,808.5,170.8,809.5,170z"/>
		<path d="M812.5,152c0-1,0-2,0-3c0.1-0.2,0.2-0.4,0.4-0.6c1.3-0.9,1.8-2.6,3.5-3.1c1.1-0.1,2,0.2,2.7,1.1c0.9,2,0.9,3.8-0.5,5.6
			c-1,0-2,0-3,0C814.5,152.8,813.5,152.8,812.5,152z"/>
		<path class="st28" d="M818.5,152c0-2,0-4,0-6c0.2-0.2,0.3-0.3,0.5-0.5c0.7-0.3,1.3-0.3,2,0c0.2,0.2,0.3,0.3,0.5,0.5
			c0,1.9,0,3.8,0,6C820.3,152,819.4,152,818.5,152z"/>
		<path class="st29" d="M812.5,152c1,0,2,0,3,0c0,1,0,2,0,3c-0.9,0-1.8,0-3,0C812.5,153.8,812.5,152.9,812.5,152z"/>
		<path class="st25" d="M821.5,143c0.9,0,1.8,0,3,0c0,1.2,0,2.1,0,3c-1,0-2,0-3,0c-0.8-0.7-0.9-1.6-0.5-2.5
			C821.1,143.3,821.3,143.2,821.5,143z"/>
		<path class="st6" d="M644.5,137c-2,0-4,0-6,0c-1.4-1.7-1.5-3.6-0.5-5.6c1-1.6,3.2-1.4,4.5-2.6c0.9-1.3,0.6-2.8,0.7-4.2
			c-0.1-1.9-0.1-3.8,0-5.7c-0.1-2-0.1-4,0-5.9c-0.1-2-0.1-4,0-6c-0.1-2-0.1-4,0-6c-0.1-2-0.1-4,0-6c-0.1-2-0.1-4,0-6.1
			c-0.1-2.1,0-4.2,0-6.2c0-2.2-0.2-4.4,1.5-6.2c1.9-1.1,3.8-1,6.4,0.6c2.1,7.2,0.7,15.2,1,23c0,2,0,3.9-0.1,5.9
			c0,1.5-0.2,2.9,0.2,4.1c1,1.8,2.7,1.5,4,2.1c0.4,0.2,0.8,0.6,1,0.9c1.2,2.7,0.3,5.6,0.9,8.4c1.6,0.7,3.1-1.3,4.6,0
			c1.2,1.3,2.7,2.2,3.5,3.9c0.4,1.1-0.4,2.3,0.4,3.6c2.4,1,5.5-0.3,8.6,2.3c0.9,7.4,1.6,15.5-0.3,23.6c-0.9,0.9-2,1.2-3.2,1.2
			c-1.2,0-2.3-0.2-3.3-0.9c-1.1-1.1-1.1-2.7-2.3-4.2c-2.9-0.8-4.9-3.1-5.9-6c-3.1-1.5-6.6,0-9.2-1.6c-1.6-1.1-1.6-3-2.7-4.3
			C647.1,138.3,645.5,138.1,644.5,137z"/>
		<path class="st10" d="M620.5,137c0-21.9,0-43.8,0-66c2.1,0,4,0,6,0c1.6,1.8,1.5,4,1.4,6.2c0.4,17-0.2,34,0.3,50.3
			c1.6,1.9,3.2,2.1,4.3,3.1c1.5,2.1,1.5,4.2-0.1,6.3C628.5,137,624.5,137,620.5,137z"/>
		<path class="st10" d="M644.5,197c0-14,0-28,0-42c2-1.5,4-1.6,6.1-0.3c1.5,1.8,1.3,4,1.3,6.1c0,2,0.1,4.1,0,6.1c0,2,0.1,4,0,6
			c0.1,2,0.1,4,0,6c0.1,2,0.1,4,0,6c0,2,0.1,4,0,6c0,2,0.2,4.1-1,6c-0.9,1-2,1.2-3.2,1.3C646.5,198.2,645.4,197.8,644.5,197z"/>
		<path class="st11" d="M644.5,137c1.9,0,3.9,0,6,0c0,2.1,0,3.8,0,5.9c4,0,7.9,0,11.9,0c0,2.1,0,3.8,0,5.6c2,1,4,0,6.1,0.7
			c0,1.8,0,3.8,0,5.7c-3.8,2.4-7.7,1.8-11.6,0.6c-1.5-1-1.6-2.9-2.7-4.2c-2.9-2-6.9,0.3-9.7-2.3C644.5,145,644.5,141,644.5,137z"/>
		<path class="st14" d="M644.5,149c3.9,0,7.8,0,12,0c0,2.1,0,4.1,0,6c-0.2,0.2-0.4,0.4-0.6,0.6c-1.9,0.9-3.7,0.8-5.4-0.6
			c-2,0-4,0-6,0C644.5,153,644.5,151,644.5,149z"/>
		<path class="st11" d="M632.5,137c0-2,0-4,0-6c1.7-1.5,3.5-1.4,5.4-0.6c0.2,0.2,0.4,0.4,0.6,0.6c0,2,0,4,0,6
			C636.5,137,634.5,137,632.5,137z"/>
		<path class="st32" d="M644.5,197c1,0,2,0,3,0c1.6,2,1.6,4,0,6c-1,0-2,0-3,0C644.5,201,644.5,199,644.5,197z"/>
		<path class="st14" d="M659.5,209c-1,0-2,0-3,0c-0.2-0.2-0.4-0.4-0.6-0.6c-0.8-1.9-0.8-3.8,0.4-5.6c0.5-0.4,1-0.6,1.6-0.8
			c7.5-0.8,15-0.3,22.5-0.4c2.2,0,4.4-0.2,6.3,1.2c1.4,2.1,1.3,4.2-0.2,6.2c-2,0-4,0-6,0C673.5,211.5,666.5,211.5,659.5,209z"/>
		<path class="st11" d="M659.5,209c7,0,14,0,21,0c0,2,0,4,0,6c-2,1.6-4,1.6-6,0c-4.9,0-9.8,0-15,0
			C659.5,212.9,659.5,210.9,659.5,209z"/>
		<path class="st10" d="M689.5,215c5,0,10,0,15,0c0,1.8,0,3.6,0,5.9c-5.9,0.1-11.7,0-17.5,0.1c-0.9-0.8-0.2-1.7-0.6-2.4
			c0.7-1.2,1.9-0.3,2.7-0.8C689.8,216.9,689.3,215.9,689.5,215z"/>
		<path class="st15" d="M674.5,215c2,0,4,0,6,0c0,2,0,4,0,6c-1.9,0-3.8,0-6,0C674.5,218.8,674.5,216.9,674.5,215z"/>
		<path class="st11" d="M656.5,221c-2,0-4,0-6,0c0-2,0-4,0-6c2-1.6,4-1.6,6,0C656.5,217,656.5,219,656.5,221z"/>
		<path class="st6" d="M656.5,215c-2,0-4,0-6,0c0-2,0-4,0-6c2-1.6,4-1.6,6,0C656.5,211,656.5,213,656.5,215z"/>
		<path class="st14" d="M647.5,203c0-2,0-4,0-6c1,0,2,0,3,0c1.7-1.4,3.5-1.4,5.5-0.7c0.5,0.3,0.9,0.6,1.2,1.2c0.7,2,0.7,3.9-0.7,5.6
			c-2,1.6-4,1.6-6,0C649.5,203,648.5,203,647.5,203z"/>
		<circle class="st36" cx="653.5" cy="206" r="4.2"/>
		<path class="st0" d="M446.5,80c9,0,18,0,27,0c0,5.9,0,11.8,0,17.6c-1.1,0.7-2.1,0.3-3,0.4c-7,2.5-14,2.5-21,0c-0.8,0-1.6,0-2.8,0
			C446.3,92,446.6,86,446.5,80z"/>
		<path class="st19" d="M449.5,98c7,0,14,0,21,0c0,0.8,0,1.7,0,2.5c0.7,1,1.9,0.1,2.7,0.7c0.6,0.7,0.2,1.6,0.3,2.6
			c-8.9,0-17.8,0-26.8,0c-0.6-0.6-0.1-1.4-0.3-2.2c0.7-1.1,1.9-0.2,2.7-0.7C449.8,100,449.4,98.9,449.5,98z"/>
		<path class="st0" d="M428.5,116c-1.8,0-3.6,0-5.5,0c-1.1-0.7-0.2-1.8-0.7-2.7c-0.7-0.7-1.6-0.1-2.7-0.4c-0.2-2.8,0-5.7-0.1-8.4
			c0.8-0.9,1.7-0.2,2.5-0.6c1-0.6,0.1-1.8,0.9-2.9c1.7,0,3.7,0,5.6,0C428.5,106,428.5,111,428.5,116z"/>
		<path class="st0" d="M194.8,98.2c3,0,5.8,0,8.7,0c0,2.9,0,5.7,0,8.5c-0.7,0.8-1.6,0.2-2.4,0.4c-1.1,0.6-0.2,1.8-0.8,2.8
			c-2.8,0-5.7,0-8.6,0c0-2.9,0-5.7,0-8.4c0.7-0.8,1.6-0.2,2.4-0.4C195.2,100.3,193.9,98.7,194.8,98.2z"/>
		<path class="st0" d="M134.7,115.8c-0.1-1-0.2-1.7-0.3-2.5c-0.8-0.7-1.7-0.1-2.6-0.5c0-3.8,0-7.7,0-11.7c0.8-0.1,1.6-0.2,2.4-0.3
			c0.8-0.7,0.1-1.6,0.7-2.8c2.5-0.2,5.4,0,8.2-0.1c0.8,0.9,0.3,1.8,0.5,2.6c1.8,1,3.8-0.1,5.8,0.7c0,3.7,0,7.5,0,11.4
			c-0.1,0.1-0.2,0.3-0.3,0.3c-0.7,0-1.3,0-1.9,0c-1.2,0.7-0.3,1.9-0.9,2.9C142.6,115.8,138.8,115.8,134.7,115.8z"/>
		<path class="st0" d="M287.4,118.9c-2.9,0-5.7,0-8.4,0c-0.8-0.7-0.1-1.6-0.5-2.4c-0.6-1.1-1.8-0.2-2.8-0.8c0-3.6,0-7.4,0-11.6
			c2.7-0.2,5.6,0,8.3-0.1c0.9,0.8,0.2,1.7,0.6,2.5c0.6,1.1,1.8,0.2,2.8,0.8C287.4,110.9,287.4,114.7,287.4,118.9z"/>
		<path class="st10" d="M716.5,71c4,0,8,0,12,0c1,1,2,2,3,3c0,1,0,2,0,3c-2.2,1.4-1.2,4.4-3,6c-0.8,0-1.7,0-2.5,0
			c-0.1,0.1-0.3,0.2-0.4,0.3c-0.1,0.1-0.2,0.3-0.2,0.4c0,11.7,0,23.5,0,35.2c-1.1,0.8-2.3,0.9-3.4-0.1c-1.4-2.1-1.1-4.5-1.1-6.8
			c0-8.8,0-17.6,0-26.4c0-2,0.2-4-0.7-5.9c-0.9-1.2-2.3-1.2-3.6-1.4c-2.2,0-4.4,0.2-6.2-1.3c-1.5-2.1-1.5-4.1,0.1-6.2
			C712.5,71,714.5,71,716.5,71z"/>
		<path class="st14" d="M722.5,119c1,0,2,0,3,0c0,2,0,4,0,6c-1,0.8-2.1,1.3-3.4,1.3c-4,0-8,1-11.8-1.1c-1.4-2-1.4-4.1-0.2-6.3
			c1.8-1.6,4.1-1.4,6.3-1.4C718.5,117.5,720.7,117.4,722.5,119z"/>
		<path class="st36" d="M722.5,125c1,0,2,0,3,0c0,7,0,14,0,21c-1,0.8-2,0.8-3,0c0-1,0-2,0-3C720,137,720,131,722.5,125z"/>
		<path class="st7" d="M743.5,86c0-2,0-4,0-6c2-1.6,4-1.6,6,0c1.5,2,1.6,4,0.1,6.1C747.5,87.6,745.5,87.5,743.5,86z"/>
		<path class="st30" d="M728.5,155c0,2,0,4,0,6c-1.9,0-3.8,0-6,0c0-2.2,0-4.1,0-6c1-0.8,2-0.8,3,0C726.5,155,727.5,155,728.5,155z"
			/>
		<circle cx="746.5" cy="77" r="4.2"/>
		<path class="st37" d="M725.5,155c-1,0-2,0-3,0c0-2,0-4,0-6c0-1,0-2,0-3c1,0,2,0,3,0C725.5,149,725.5,152,725.5,155z"/>
		<path class="st33" d="M728.5,83c0-1.9,0-3.8,0-6c1.1,0,2.1,0,3,0c0,1.9,0,3.8,0,6C730.3,83,729.4,83,728.5,83z"/>
		<path class="st25" d="M743.5,86c2,0,4,0,6,0c0.2,0.2,0.3,0.4,0.5,0.6c0.3,0.8,0.3,1.5-0.1,2.3c-0.3,0.4-0.7,0.8-1.2,1
			c-1.9,0.5-3.6,0.6-5.2-0.8C743.5,88,743.5,87,743.5,86z"/>
		<path d="M743.5,89c2,0,4,0,6,0c0.9,1,0.9,2,0,3c-2,0-4,0-6,0C743.5,91,743.5,90,743.5,89z"/>
		<path class="st9" d="M731.5,74c-0.9,0-1.8,0-3,0c0-1.2,0-2.1,0-3c1,0,2,0,3,0C731.5,72,731.5,73,731.5,74z"/>
		<path class="st10" d="M650.5,101c0-7.9,0-15.8,0-24c-2.1,0-4.1,0-6,0c-2,1.5-4,1.6-6.1,0.1c-1.5-2.1-1.4-4.1,0.1-6.1
			c5.9,0,11.8,0,18,0c0,6.2,0,12.1,0,18c0,2,0,4,0,6c1.6,2,1.6,4.1,0.2,6.2C654.6,102.6,652.5,102.6,650.5,101z"/>
		<path class="st11" d="M638.5,71c0,2,0,4,0,6c-0.2,0.2-0.4,0.4-0.7,0.6c-3.8,1.1-7.7,1.6-11.3-0.6c0-2,0-4,0-6
			C630.5,71,634.5,71,638.5,71z"/>
		<path class="st32" d="M686.5,53c-3.8,0-7.7,0-11.5,0c-0.1-0.1-0.3-0.2-0.4-0.3c-0.1-0.1-0.2-0.3-0.2-0.4c0-7.6,0-15.3,0-23.2
			c6.1,0,12.1,0,18,0c0,2,0,4,0,6c-0.7,1.1-2,0.9-3,1.7c-0.2,1.5,1.5,2.9,0.3,4.5c-1.9,1.5-2,3.8-2.8,5.8
			C684.6,48.8,688.7,51.2,686.5,53z"/>
		<path class="st32" d="M692.5,59c0-2,0-4,0-6c0.2-0.2,0.3-0.3,0.4-0.5c2-0.7,4.2-1.2,5.7-3c1.5-0.9,2.8,0.6,4.2,0.3
			c0.6-1.8,0.4-3.6,0.2-5.5c-1.5-0.9-3,1.2-4.5,0c-1.2-1.1-2.4-2.2-3.5-3.5c-1.2-3.4,2-4.1,3.5-5.9c3.8,0,7.7,0,11.5,0
			c0.1,0.1,0.3,0.2,0.4,0.3c0.1,0.1,0.2,0.3,0.2,0.4c0,7.6,0,15.3,0,23.2C704.4,59,698.4,59,692.5,59z"/>
		<path class="st11" d="M710.5,71c0,2,0,4,0,6c-0.2,0.2-0.4,0.4-0.6,0.6c-1.1,0.7-2.5,0.9-3.5,2.2c-1.1,3.6-0.2,7.6-0.6,11.5
			c-0.5,4.8-3.1,7.1-7.5,6.8c-0.7-1.1-0.6-2.2,0.1-3.2c0-7,0-14,0-21c0-0.8,0-1.6,0-2.7c2-0.5,4.1-0.2,6.1-0.3
			C706.5,71,708.5,71,710.5,71z"/>
		<path class="st8" d="M698.5,35c0,0.8,0,1.6,0,2.5c-0.7,1-1.9,0.2-2.7,0.7c-0.6,0.9-0.2,1.9-0.3,2.8c-2,1.6-4,1.6-6,0
			c0-0.8,0-1.6,0-2.4c-0.6-1.1-1.8-0.2-2.7-0.8c-0.6-0.7-0.4-1.6,0.1-2.8c1.8,0,3.7,0,5.7,0C694.5,35,696.5,35,698.5,35z"/>
		<path class="st8" d="M686.5,53c0-0.8,0-1.6,0-2.4c-0.6-1.1-1.8-0.3-2.6-0.7c-0.7-0.8-0.4-1.7-0.1-2.9c0.9,0,1.8,0,2.7,0
			c1.9-1.6,3.9-1.4,5.9-0.4c1.7,2.2,1.7,4.3,0.1,6.4C690.5,53,688.5,53,686.5,53z"/>
		<path class="st32" d="M656.5,101c0-2,0-4,0-6c10,0,20,0,30,0c2,0,4,0,6,0c1.4,1.7,1.4,3.7,0.6,5.6c-0.3,0.5-0.7,0.9-1.2,1.1
			c-1.1,0.6-2.6,0.7-3.6,2.3c-1.3,4.9,1.7,12-5,15.2c-4.6,2.2-9.7,1.3-14.8,0.3C666.4,112.1,658.1,108.8,656.5,101z"/>
		<path class="st0" d="M506.5,110c0,2,0,4,0,6c-3.8,0-7.6,0-11.7,0c-0.9-1.8,0-3.8-0.6-6C498.6,110,502.5,110,506.5,110z"/>
		<path class="st10" d="M692.5,101c0-2,0-4,0-6c2,0,4,0,6,0c0,1,0,2,0,3c0.8,1.1,0.9,2.2,0,3.3C696.4,102.5,694.4,102.7,692.5,101z"
			/>
		<path class="st3" d="M779.5,53c-5.9,0-11.8,0-18,0c0-2.1,0-4.1,0-6c9.9,0,19.8,0,29.8,0c0,1.9,0,3.7,0,5.6c2,0.9,4,0,5.8,0.6
			c0.6,0.9,0.2,1.9,0.3,2.8c-0.2,0.2-0.4,0.4-0.6,0.6c-2.6,1.2-5.4,0.7-8.2,0.7c-1-0.1-2.1-0.3-3-0.8c-1.5-1.1-1.1-3.1-2.2-4.4
			C781.8,50.9,780.8,52.5,779.5,53z"/>
		<path class="st23" d="M818.5,74c0,0.9,0,1.8,0,3c1.2,0,2.1,0,3,0c0,2,0,4,0,6c-1.4,1-2,2.9-3.8,3.6c-4.3-0.1-3.2-3.4-3.6-5.8
			c0-2.4,0.4-5-2-6.8c-0.6-0.9-0.8-2-0.8-3c0-1.1,0.4-2.1,1.2-3c3,0,6,0,9,0c0,0.8,0,1.6,0,2.5c-0.7,1.1-1.9,0.2-2.7,0.7
			C818.2,72.1,818.6,73.1,818.5,74z"/>
		<path class="st25" d="M803.5,62c1.9,0,3.8,0,6,0c0,2.2,0,4.1,0,6c-0.2,0.2-0.3,0.3-0.5,0.5c-0.9,0.4-1.7,0.3-2.5-0.3
			c-1-1.1-2-2.2-3.2-3.2c-0.5-0.8-0.7-1.7-0.3-2.6C803.1,62.3,803.3,62.2,803.5,62z"/>
		<path d="M797.5,56c1,0,2,0,3,0c1.4,1.6,1.4,3.5,0.7,5.4c-0.2,0.5-0.6,0.9-1.2,1.2c-1.2,0.3-2.3,0.2-3.1-0.8
			C795.9,59.7,796,57.8,797.5,56z"/>
		<path class="st25" d="M800.5,62c0-2,0-4,0-6c0.8,0,1.6,0,2.7,0c0.6,1.9,0.2,4,0.3,6C802.5,62.8,801.5,62.9,800.5,62z"/>
		<path class="st38" d="M812.5,68c0,1,0,2,0,3c-1,0.8-2,0.8-3.1,0.1c-0.8-1-0.7-2.1,0.1-3.1C810.5,68,811.5,68,812.5,68z"/>
		<path d="M779.5,53c0-0.8,0-1.7,0-2.7c1.9,0,3.8,0,6,0c0,1.8,0,3.8,0,5.7c-0.2,0.2-0.3,0.3-0.5,0.5c-1.7,0.8-3.3,0.8-5,0
			c-0.2-0.2-0.3-0.4-0.5-0.5C779.5,55,779.5,54,779.5,53z"/>
		<path class="st23" d="M773.5,56c1,0,2,0,3,0c1.1,1.5,3.2,2,3.6,4c-1.2,4.5-4,3.4-6.9,2.1C771.8,60,771.9,58,773.5,56z"/>
		<path class="st25" d="M761.5,68c0-1.9,0-3.8,0-6c2.2,0,4.1,0,6,0c0.2,0.2,0.3,0.3,0.5,0.5c0.3,0.6,0.3,1.3,0.2,2
			c-0.2,0.4-0.4,0.8-0.7,1.1c-1.1,0.7-1.9,1.7-2.8,2.6c-0.8,0.6-1.7,0.7-2.6,0.3C761.8,68.3,761.6,68.2,761.5,68z"/>
		<path class="st25" d="M755.5,74c0-2,0-4,0-6c1,0,2,0,3,0c0.8,1,1.9,1.7,2.9,2.4c0.3,0.3,0.6,0.7,0.7,1.1c0.2,1,0.1,1.9-0.6,2.6
			c-0.8,0.7-1.7,0.8-2.7,0.9c-1,0-1.9-0.1-2.8-0.6C755.8,74.4,755.6,74.2,755.5,74z"/>
		<path class="st25" d="M767.5,62c0-1.9,0-3.8,0-6c1.1,0,2.1,0,3,0c1.4,1.5,1.3,3.3,0.8,5.2c-0.2,0.5-0.5,0.9-0.9,1.2
			C769.3,62.9,768.3,62.8,767.5,62z"/>
		<path d="M770.5,62c0-2,0-4,0-6c1,0,2,0,3,0c0,2,0,4,0,6C772.5,62.9,771.5,62.9,770.5,62z"/>
		<path class="st38" d="M761.5,71c-0.9,0-1.8,0-3,0c0-1.2,0-2.1,0-3c1,0,2,0,3,0C762.2,69,762.3,70,761.5,71z"/>
		<path class="st26" d="M779.5,59c-0.9,0-1.8,0-3,0c0-1.2,0-2.1,0-3c1,0,2,0,3,0c0.8,0.7,0.9,1.6,0.5,2.5
			C779.8,58.7,779.6,58.8,779.5,59z"/>
		<path class="st24" d="M821.5,113c0,1,0,2,0,3c-1.4,1.6-4.2,0.7-5.3,2.9c-0.3,0.4-0.7,0.6-1.2,0.8c-1,0.4-1.9,0.5-3,0.4
			c-1.1-0.1-2.1-0.4-2.9-1.2c-0.7-1-0.9-2-1-3.2c-0.1-2-0.2-4,1.1-5.8c1.7-1.4,3.7-1.3,5.7-1.2c1.1,0,2.1,0.2,3.1,0.7
			C819.4,110.3,820.1,112,821.5,113z"/>
		<path class="st25" d="M827.5,107c0,1,0,2,0,3c-2,0-4,0-6,0c-0.2-0.2-0.3-0.3-0.5-0.5c-0.3-0.6-0.3-1.3-0.2-1.9
			c0.1-0.4,0.4-0.8,0.7-1.1c0.8-0.6,1.7-1.2,2.2-2.1c0.3-0.4,0.6-0.6,0.9-0.9c0.9-0.4,1.7-0.4,2.6,0c0.4,0.2,0.7,0.6,0.9,1
			C828.3,105.5,828.2,106.3,827.5,107z"/>
		<path d="M815.5,119c0-0.8,0-1.6,0-2.7c1.9-0.6,4-0.2,6-0.3c0,1,0,2,0,3C819.5,120.5,817.5,120.7,815.5,119z"/>
		<path class="st23" d="M815.5,119c2,0,4,0,6,0c0,0.8,0,1.6,0,2.7c-1.9,0.6-4,0.2-6,0.3c-0.2-0.2-0.3-0.3-0.5-0.5
			C814.6,120.6,814.7,119.7,815.5,119z"/>
		<path class="st26" d="M815.5,122c0,2,0,4,0,6c-0.9,0.8-1.9,0.8-3,0.2c-1.5-1.6-1.3-3.4-0.9-5.3c0.2-0.5,0.5-0.9,0.9-1.3
			C813.6,121.1,814.6,121.2,815.5,122z"/>
		<path class="st26" d="M821.5,113c-0.9,0-1.8,0-3,0c0-1.2,0-2.1,0-3c0.2-0.2,0.3-0.3,0.5-0.5c0.9-0.4,1.8-0.3,2.5,0.5
			C821.5,111,821.5,112,821.5,113z"/>
		<path class="st3" d="M839.5,101c1.8,0,3.6,0,5.7,0c0,1.9,0,3.8,0,6c-1.8,0-3.8,0-5.7,0C837.9,105,837.9,103,839.5,101z"/>
		<path class="st29" d="M821.5,137c0,1,0,2,0,3c-2,1.5-4,1.6-6.1,0.3c-1.5-2-1.4-4.1-0.2-6.2c1.1-1,2.2-1,3.3-0.2c0,0.9,0,1.8,0,3
			C819.6,137,820.5,137,821.5,137z"/>
		<path d="M812.5,128c1,0,2,0,3,0c0,1,0,2,0,3c-0.2,0.2-0.3,0.3-0.5,0.5c-0.9,0.4-1.8,0.3-2.7-0.3c-0.6-0.8-0.7-1.7-0.3-2.7
			C812.1,128.3,812.3,128.2,812.5,128z"/>
		<path d="M818.5,134c-1,0-2,0-3,0c-0.2-0.2-0.3-0.3-0.5-0.5c-0.4-0.9-0.3-1.8,0.5-2.5c0.9,0,1.8,0,3,0
			C818.5,132.2,818.5,133.1,818.5,134z"/>
		<path class="st26" d="M818.5,86c0-0.9,0-1.8,0-3c1.2,0,2.1,0,3,0c0,1,0,2,0,3c-0.7,0.8-1.6,0.9-2.5,0.5
			C818.8,86.3,818.6,86.2,818.5,86z"/>
		<path class="st39" d="M815.5,140c2,0,4,0,6,0c0,1,0,2,0,3c-1,1-2,2-3,3c-1,0-2,0-3,0c-0.9,0.8-1.8,0.9-2.9,0.4
			c-0.4-0.3-0.8-0.7-1-1.2c-0.5-1.9-0.6-3.7,0.8-5.4C813.5,139.1,814.5,139.2,815.5,140z"/>
		<path class="st26" d="M752.5,74c1,0,2,0,3,0c1.3,1.4,1.2,3.1,0.9,4.8c-0.1,0.5-0.4,0.9-0.7,1.3c-0.8,0.7-1.8,0.7-2.8,0.3
			c-0.2-0.2-0.4-0.3-0.5-0.5C752.5,78,752.5,76,752.5,74z"/>
		<path class="st26" d="M749.5,86c0-2,0-4,0-6c1,0,2,0,3,0c1.4,1.5,1.3,3.3,0.8,5.2c-0.2,0.5-0.5,0.9-0.9,1.2
			C751.3,86.9,750.3,86.8,749.5,86z"/>
		<path class="st8" d="M839.5,101c0,2,0,4,0,6c-2,0-4,0-6,0c-2,0-4,0-6,0c0-1,0-2,0-3c1.8-1.5,4.2-1.5,6-3
			C835.5,101,837.5,101,839.5,101z"/>
		<path d="M833.5,101c0,0.8,0,1.6,0,2.7c-1.9,0.6-4,0.2-6,0.3c-1.4-1.7-1.4-3.5-0.6-5.4c0.2-0.2,0.4-0.4,0.6-0.6c2,0,4,0,6,0
			C833.5,99,833.5,100,833.5,101z"/>
		<path class="st40" d="M818.5,110c-1,0-2,0-3,0c-1.4-1.5-1.3-3.4-1.4-5.2c-0.1-2.2,0.7-4.6-1.6-6.3c-0.9-1.2-1.8-2.3-3.1-3.1
			c-0.9-1.2-1.9-2.3-3.2-3.2c-0.3-0.4-0.5-0.8-0.7-1.2c-1.1-3.7,1.2-5.9,3.4-8.2c1.4-1,2.5-2.2,3.8-3.3c1-0.4,1.9-0.4,2.8,0.4
			c0,1.9,0,3.8,0,6c1.1,0,2.1,0,3,0c1,1,2,2,3,3c0,1,0,2,0,3c0,2,0,4,0,6c1.5,1.7,1.4,3.8,1.3,5.8c0,1.2-0.5,2.3-1.3,3.2
			C820.4,108,819.4,109,818.5,110z"/>
		<path class="st26" d="M821.5,104c0-2,0-4,0-6c1,0,2,0,3,0c0.2,0.2,0.4,0.4,0.6,0.6c0.9,1.9,0.8,3.7-0.6,5.4
			C823.5,104.8,822.5,104.8,821.5,104z"/>
		<path class="st38" d="M827.5,95c0,1,0,2,0,3c-1,0.8-2,0.8-3,0c0-0.9,0-1.8,0-3C825.6,95,826.5,95,827.5,95z"/>
		<path class="st41" d="M821.5,89c-0.9,0-1.8,0-3,0c0-1.2,0-2.1,0-3c1,0,2,0,3,0C821.5,87,821.5,88,821.5,89z"/>
		<path class="st19" d="M809.5,149c0,3,0,6,0,9c-1.6,1.5-4.3,1.2-5.6,3.3c-1.5,0.8-2.3,2.3-3.7,3.4c-1,0.5-2,0.7-3.1,0.7
			c-2,0.1-4,0.1-5.6-1.3c-4,0-8,0-12,0c-3.7,2.4-7.6,1.5-11.6,0.7c-1.6-2.8-3.4-5.3-6.4-6.7c0-3,0-6,0-9c0.1-0.2,0.2-0.4,0.3-0.5
			c1.3-0.9,1.8-2.5,3.2-3.2c0.9-0.4,1.9-0.5,2.9-0.4c1.1,0.1,2,0.3,2.8,1.1c1.4,2.4-1.2,3.9-1.4,6.2c0.9,3,3.1,4.4,6.3,4.4
			c6.5,0.1,13,0.2,19.4,0c3.6-0.1,4.2-0.6,6.4-4.5c0.1-2.1-2.7-3.6-1.4-6c0.7-0.9,1.7-1.1,2.8-1.3c1-0.1,2,0,2.9,0.4
			c1.5,0.7,2,2.3,3.3,3.2C809.2,148.6,809.3,148.8,809.5,149z"/>
		<path class="st38" d="M761.5,158c1.8,0,3.7,0,5.6,0c0.9,1.8,0,3.8,0.6,6c3.8,0,7.8,0,11.7,0c0,1,0,2,0,3c-1,0-2,0-3,0
			c-1.3,1-2,2.7-3.5,3.6c-1.7,0.7-3.4,0.8-5.1,0c-2.4-2-4.3-4.4-6.4-6.7C761.5,162,761.5,160,761.5,158z"/>
		<path class="st26" d="M761.5,164c0.8,0,1.6,0,2.4,0c1.2,0.6,0.2,1.8,0.7,2.6c0.7,0.9,1.8,0.1,2.9,0.8c0,0.8,0,1.7,0,2.7
			c-2,1.7-4,1.5-6,0C761.5,168,761.5,166,761.5,164z"/>
		<path class="st26" d="M761.5,149c-1,0-2,0-3,0c-0.7-0.7-0.9-1.5-0.7-2.4c0.2-0.4,0.4-0.8,0.8-1c0.9-0.4,1.7-0.4,2.6-0.1
			c0.4,0.3,0.7,0.6,0.9,1C762.3,147.5,762.2,148.3,761.5,149z"/>
		<path class="st40" d="M749.5,92c0-1,0-2,0-3c1-1,2-2,3-3c2.2-1.4,1.2-4.4,3-6c0.7-0.8,1.6-0.9,2.5-0.6c0.4,0.2,0.8,0.4,1.1,0.8
			c0.7,1.1,1.8,1.9,2.8,2.7c0.8,1.4,2.2,2.1,3.2,3.3c0.5,0.9,0.6,1.8,0.6,2.8c0,1-0.2,1.9-0.6,2.8c-1,1.2-2.4,2-3.2,3.4
			c-1.2,0.9-2.3,2-3.2,3.3c-2.1,1.6-1.8,4-1.8,6.2c0,1.9,0,3.8-1.4,5.3c-1,0-2,0-3,0c-1-1-2-2-3-3c0-1,0-2,0-3
			C749.5,100,749.5,96,749.5,92z"/>
		<path class="st42" d="M755.5,110c0-2,0-4,0-6c1.8-1.5,3.8-1.5,5.8-0.4c1.7,1.7,1.6,3.7,0.8,5.8c-0.2,0.2-0.4,0.4-0.6,0.6
			C759.5,110,757.5,110,755.5,110z"/>
		<path class="st43" d="M761.5,116c0-2,0-4,0-6c1.9-1.5,3.8-1.5,5.9-0.3c1.7,1.9,1.7,4,0.5,6.2C765.7,117.7,763.6,117.6,761.5,116z"
			/>
		<path class="st44" d="M761.5,116c2,0,4,0,6,0c0.2,0.2,0.3,0.4,0.5,0.6c0.4,1.1,0.3,2.1-0.6,2.9c-1.8,0.9-3.5,0.9-5.3,0.1
			c-0.2-0.2-0.4-0.4-0.6-0.6C761.5,118,761.5,117,761.5,116z"/>
		<path class="st28" d="M758.5,122c-1,0-2,0-3,0c0-1,0-2,0-3c1,0,2,0,3,0C759.2,120,759.3,121,758.5,122z"/>
		<path class="st26" d="M758.5,122c0-1,0-2,0-3c1,0,2,0,3,0c0.8,1,0.9,2.1,0.2,3.2C760.5,122.9,759.5,122.8,758.5,122z"/>
		<path class="st29" d="M749.5,140c0-1,0-2,0-3c0.9,0,1.8,0,3,0c0-1.2,0-2.1,0-3c1.1-0.8,2.1-0.8,3.2,0c1.3,1.9,1.3,3.9,0.2,5.9
			c-0.9,1-2,1.2-3.2,1.3C751.4,141.2,750.4,140.8,749.5,140z"/>
		<path d="M755.5,128c1,0,2,0,3,0c0.2,0.2,0.3,0.3,0.5,0.5c0.4,0.9,0.3,1.8-0.3,2.7c-0.8,0.6-1.7,0.7-2.7,0.3
			c-0.2-0.2-0.3-0.3-0.5-0.5C755.5,130,755.5,129,755.5,128z"/>
		<path d="M755.5,134c-1,0-2,0-3,0c0-0.9,0-1.8,0-3c1.2,0,2.1,0,3,0c0.8,0.7,0.9,1.6,0.5,2.5C755.8,133.7,755.6,133.8,755.5,134z"/>
		<path class="st45" d="M749.5,140c1,0,2,0,3,0c0.8,1,0.9,2.1,0.2,3.2c-1.1,0.7-2.2,0.6-3.2-0.2C749.5,142,749.5,141,749.5,140z"/>
		<path class="st33" d="M761.5,170c2,0,4,0,6,0s4,0,6,0c0.2,0.2,0.3,0.3,0.5,0.5c0.4,0.9,0.3,1.8-0.5,2.5c-1,1-2,2-3,3c-2,0-4,0-6,0
			c-1-1-2-2-3-3C761.5,172,761.5,171,761.5,170z"/>
		<path class="st39" d="M752.5,143c0-1,0-2,0-3c1,0,2,0,3,0c1.1-0.8,2.2-0.8,3.3,0.1c1.3,2,1.2,4-0.3,5.9c-1,0.8-2,0.8-3,0
			c-1,0-2,0-3,0C751.7,145,751.6,144,752.5,143z"/>
		<path class="st23" d="M755.5,146c1,0,2,0,3,0c0,1,0,2,0,3c-0.9,0-1.8,0-3,0C755.5,147.8,755.5,146.9,755.5,146z"/>
		<path class="st46" d="M749.5,107c0.9,0,1.8,0,3,0c0,1.2,0,2.1,0,3c-1,0-2,0-3,0C749.5,109,749.5,108,749.5,107z"/>
		<circle class="st47" cx="751" cy="144.5" r="2.1"/>
		<path class="st28" d="M758.5,122c1,0,2,0,3,0c2.9-1.5,5.6-2.5,6.6,2c-0.7,1.9-2.4,2.8-3.5,4.4c-1,0.6-2,0.8-3.1,0.8
			c-1.2,0-2.1-0.5-3-1.2C758.5,126,758.5,124,758.5,122z"/>
		<path class="st48" d="M761.5,173c0.9,0,1.8,0,3,0c0,1.2,0,2.1,0,3c-1,0-2,0-3,0C761.5,175,761.5,174,761.5,173z"/>
		<path class="st25" d="M797.5,176c-1.9,0-3.8,0-6,0c0-2.2,0-4.1,0-6c-0.8-1-0.8-2,0-3c0.8-0.8,1.8-0.9,2.8-0.4
			c0.9,0.6,1.1,1.6,1.3,2.5c0.1,1.4,0.4,2.6,1.8,3.3c0.3,0.3,0.6,0.7,0.8,1.1C798.3,174.4,798.2,175.3,797.5,176z"/>
		<path class="st29" d="M791.5,167c0,1,0,2,0,3c-1,0-2,0-3,0c0-0.9,0-1.8,0-3C789.6,167,790.5,167,791.5,167z"/>
		<path class="st38" d="M794.5,167c-1,0-2,0-3,0c0-1,0-2,0-3c2,0,4,0,6,0C798.6,167.1,797.6,168.1,794.5,167z"/>
		<path class="st24" d="M773.5,170c0-0.9,0-1.8,0-3c1.2,0,2.1,0,3,0c0,1,0,2,0,3C775.5,170.8,774.5,170.8,773.5,170z"/>
		<path d="M773.5,170c1,0,2,0,3,0c0,0.9,0,1.8,0,3c-1.2,0-2.1,0-3,0C773.5,172,773.5,171,773.5,170z"/>
		<path class="st48" d="M770.5,176c0-0.9,0-1.8,0-3c1.2,0,2.1,0,3,0c0,1,0,2,0,3C772.5,176,771.5,176,770.5,176z"/>
		<path class="st33" d="M809.5,170c0,1,0,2,0,3c-1,1-2,2-3,3c-2,0-4,0-6,0c-1-1-2-2-3-3c-0.8-1.1-0.9-2.2-0.1-3.3
			c1.9-1.3,4-1.1,6.1-1.1C805.6,168.5,807.7,168.5,809.5,170z"/>
		<path class="st48" d="M797.5,173c0.9,0,1.8,0,3,0c0,1.2,0,2.1,0,3c-1,0-2,0-3,0C797.5,175,797.5,174,797.5,173z"/>
		<path class="st49" d="M806.5,176c0-0.9,0-1.8,0-3c1.2,0,2.1,0,3,0c0,1,0,2,0,3C808.5,176,807.5,176,806.5,176z"/>
		<path class="st10" d="M686.5,209c0-2,0-4,0-6c-1.1-1.2-1.5-2.6-1.5-4.1c-0.2-9.5-0.2-19,0-28.5c0-1.2,0.4-2.3,1-3.3
			c2.1-1.8,4.3-1.7,6.4-0.1c0,14,0,28,0,42C690.5,209,688.5,209,686.5,209z"/>
		<path class="st32" d="M692.5,167c-2,0-4,0-6,0c-1.6-1.7-1.3-3.6-0.7-5.5c0.3-0.5,0.6-0.9,1.2-1.2c2-0.7,3.9-0.7,5.6,0.7
			C692.5,163,692.5,165,692.5,167z"/>
		<circle class="st35" cx="701.5" cy="158" r="4.2"/>
		<path class="st6" d="M692.5,101c2,0,4,0,6,0c1.8,1.9,1.5,4.2,1.5,6.5c0,5.4,0.1,10.8-0.1,16.2c0.2,1.9-0.7,4,1.3,5.6
			c2.7-1.3,2.2-6.1,6.4-5.5c1.1,0,2,0.5,2.8,1.2c4,0,8,0,12,0c0,6,0,12,0,18c-5.9,0-11.8,0-17.9,0c-0.1,1-0.2,1.8-0.2,2.6
			c-0.7,1-1.9-0.1-2.8,0.8c-0.1,0.7-0.2,1.5-0.3,2.3c-0.7,0.8-1.6,0.2-2.4,0.4c-1.1,0.6-0.2,1.8-0.7,2.6c-0.7,0.7-1.5,0.2-2.3,0.3
			c-1.1,0.7-0.2,1.9-0.7,2.7c-0.9,0.6-1.9,0.2-2.8,0.3c-2.6-2.7-0.5-6.5-2.1-9.5c-1.1-1.3-3.1-1.2-4.3-2.5c-1.1-1.9-1.1-3.8-0.2-5.7
			c1-1.7,3.3-1.3,4.5-2.7c0.5-2.5-2.2-4-2-6.4c0.1-1.5,0.4-2.9,1.4-4.1c1.4-1.8,1.4-3.9,1.3-6.1C691.5,112.4,689.5,106.5,692.5,101z
			"/>
		<path class="st11" d="M686.5,143c1.9,0,3.9,0,6,0c0,4.2,0,8.1,0,12c0,2,0,4,0,6c-2,0-4,0-6,0C684,155,684,149,686.5,143z"/>
		<path class="st29" d="M803.5,161c0-0.8,0-1.6,0-2.7c1.9-0.6,4-0.2,6-0.3c0,2,0,4,0,6c-1.5,1.4-3.3,1.3-5.2,0.8
			c-0.5-0.2-0.9-0.5-1.2-0.9C802.6,162.8,802.7,161.9,803.5,161z"/>
		<path class="st50" d="M803.5,164c2,0,4,0,6,0c0,2,0,4,0,6c-2,0-4,0-6,0C802,168,801.7,166,803.5,164z"/>
		<path class="st26" d="M812.5,149c-1,0-2,0-3,0c-0.8-0.7-0.9-1.6-0.6-2.6c0.2-0.4,0.5-0.8,1-1c1-0.3,1.9-0.2,2.6,0.6
			C813.3,147,813.3,148,812.5,149z"/>
		<path class="st23" d="M812.5,149c0-1,0-2,0-3c1,0,2,0,3,0c0,0.9,0,1.8,0,3C814.3,149,813.4,149,812.5,149z"/>
		<path class="st47" d="M818.5,146c0-0.9,0-1.8,0-3c1.2,0,2.1,0,3,0c0,1,0,2,0,3C820.5,146,819.5,146,818.5,146z"/>
		<path class="st14" d="M692.5,101c0,6,0,12,0,18c-2.5,1.6-5.1,3.2-5.8,6.8c-7.3,0.5-14.3,2.1-21.2-0.8c-0.9,0-1.8,0-3,0
			c0-1.2,0-2.1,0-3c-1.8-1.8-0.9-4.4-2-6.5c-0.9-1.3-2.9-1.2-4-2.5c-1.2-1-1.1-2.8-2.1-3.9c-1.1-1-2.9-0.9-3.9-2.1c0-2,0-4,0-6
			c2,0,4,0,6,0c0.8,0,1.7,0,2.6,0c1,1.8,0,3.9,0.6,5.7c0.7,0.6,1.6,0,2.4,0.4c0.9,0.7,0,1.9,0.6,2.7c0.8,0.1,1.6,0.2,2.4,0.3
			c0.7,0.7,0.2,1.6,0.4,2.3c0.7,1.1,1.9,0.2,2.9,0.8c0,1.7,0,3.4,0,5.5c5.1,0,10,0,15,0c0.1-0.8,0.1-1.6,0.2-2.4
			c0.7-0.9,1.9,0,2.9-0.7c0-4.8,0-9.6,0-14.7C688.6,101,690.5,101,692.5,101z"/>
		<path class="st10" d="M665.5,125c6.8,0,13.6,0,20.7,0c0.7-1.8,0-3.8,0.5-6c1.8,0,3.8,0,5.7,0c0,1.9,0,3.9,0,5.8
			c-1.1,0.1-1.8,0.2-2.8,0.3c0,1.9,0,3.7,0,5.8c0.8,0.1,1.6,0.1,2.6,0.2c0,1.9,0,3.7,0,5.9c-1.9,0-3.9,0-5.8,0
			c-1.3-0.9-1.2-2.8-3.4-3.8c-3,7.2,0.7,15.1-2.4,21.8c-2.4,1.3-4.4,1.7-6.3,0c0-7.9,0-15.9,0-23.9c-4.1,0-7.8,0-11.4,0
			c-1-0.8-0.4-1.7-0.6-2.5c0.7-1.1,1.9-0.2,2.7-0.7C665.8,127,665.3,125.9,665.5,125z"/>
		<path class="st14" d="M674.5,155c1.8,0,3.6,0,5.4,0c0.1-0.1,0.3-0.2,0.4-0.3c0.1-0.1,0.2-0.3,0.2-0.4c0-7.6,0-15.2,0-23
			c1.9,0,3.8,0,6,0c0,1.9,0,3.8,0,5.8c0,2,0,4,0,6c0,6,0,12,0,18c-1.8,1.5-3.9,1.5-6.1,1.4c-3.8-0.1-7.7,0.6-11.5-0.8
			c-3.1-3.7,1-4.7,2.6-6.7C672.5,155,673.5,155,674.5,155z"/>
		<path class="st14" d="M671.5,155c0,0.8,0,1.6,0,2.5c-0.7,1-1.9,0.2-2.7,0.7c-0.6,0.9-0.2,1.9-0.3,2.8c-2.7,2.2-5.8,1.3-8.8,1.3
			c-1.3-0.1-2.5-0.4-3.4-1.3c-1.4-2.1-1.3-4.1,0.2-6.1c4,0,8,0,12,0C669.5,155,670.5,155,671.5,155z"/>
		<path class="st10" d="M656.5,113c1.9,0,3.9,0,6,0c0,3.2,0,6.1,0,9c-0.8,0-1.6,0-2.5,0c-1.1,0.7-0.2,1.8-0.7,2.7
			c-0.6,0.7-1.5,0-2.2,0.4c-0.2-0.2-0.4-0.3-0.4-0.4C656.6,120.8,656.5,116.9,656.5,113z"/>
		<path class="st11" d="M644.5,89c0,2,0,4,0,6c-2,1.6-4.1,1.6-6.2,0.2c-1.4-2.1-1.4-4.3,0-6.4C640.3,87.4,642.4,87.4,644.5,89z"/>
		<path class="st11" d="M644.5,113c0,2,0,4,0,6c-2,1.6-4.1,1.6-6.2,0.2c-1.4-2.1-1.4-4.3,0-6.4C640.3,111.3,642.4,111.4,644.5,113z"
			/>
		<path class="st15" d="M638.5,95c2,0,4,0,6,0c0,2,0,4,0,6c-2,1.6-4.1,1.6-6.2,0.2C636.9,99.1,636.8,97,638.5,95z"/>
		<path class="st11" d="M638.5,101c2,0,4,0,6,0c0,2,0,4,0,6c-2,1.6-4.1,1.6-6.2,0.2C636.9,105.1,636.8,103,638.5,101z"/>
		<path class="st11" d="M644.5,125c0,1.9,0,3.8,0,6c-2.2,0-4.1,0-6,0c-1.6-2-1.6-4.1-0.2-6.2C640.4,123.4,642.5,123.4,644.5,125z"/>
		<path class="st15" d="M644.5,89c-2,0-4,0-6,0c-1.7-2-1.5-4.1-0.2-6.2c2.1-1.4,4.2-1.3,6.2,0.2C644.5,85,644.5,87,644.5,89z"/>
		<path class="st15" d="M644.5,125c-2,0-4,0-6,0c-1.6-2-1.6-4,0-6c2,0,4,0,6,0C644.5,121,644.5,123,644.5,125z"/>
		<circle class="st10" cx="653.5" cy="110" r="4.2"/>
		<path class="st11" d="M644.5,83c-2,0-4,0-6,0c-1.7-2-1.5-4,0-6c2,0,4,0,6,0C644.5,79,644.5,81,644.5,83z"/>
		<path class="st15" d="M638.5,107c2,0,4,0,6,0c0,2,0,4,0,6c-2,0-4,0-6,0C636.8,111,636.8,109,638.5,107z"/>
		<path class="st7" d="M638.5,107c0,2,0,4,0,6c0,2,0,4,0,6s0,4,0,6s0,4,0,6c-2,0-4,0-6,0c-1.8,0-3.6,0-5.5,0
			c-0.1-0.1-0.3-0.2-0.4-0.3c-0.1-0.1-0.2-0.3-0.2-0.4c0-17.7,0-35.5,0-53.2c4,0,8,0,12,0c0,2,0,4,0,6s0,4,0,6s0,4,0,6c0,2,0,4,0,6
			S638.5,105,638.5,107z"/>
		<path class="st7" d="M656.5,161c1,0,2,0,3,0c1.1,1.1,1.3,2.6,2.5,3.8c4,1.9,8.8-0.6,12.8,2c1.3,1.8,1.2,3.9,1.1,6
			c0,2,0.1,4.1,0,6.1c0.1,2,0.1,4.1,0,6.1c0.1,2.1,0,4.2,0,6.2c0,2.2,0.2,4.4-1.5,6.2c-6,1.5-12,2.2-17.9-0.5
			c-1.5-1.7-1.5-3.8-1.4-5.9c0-2-0.1-4,0-6c0-1.9-0.1-3.8,0-5.7c-0.1-1.4,0.2-2.8-0.6-4.2c-1.1-1.3-3-1.1-4.1-2.3c0-2,0-4,0-6
			c1-1.2,2.8-1,3.7-1.8c1.2-1.2,1-2.7,1.8-3.8C656.1,161.3,656.3,161.1,656.5,161z"/>
		<path class="st36" d="M656.5,155c0,2,0,4,0,6c-2,1.6-4,1.6-6,0c0-2,0-4,0-6C652.5,155,654.5,155,656.5,155z"/>
		<path class="st6" d="M650.5,161c2,0,4,0,6,0c0,1.9,0,3.8,0,6c-2.2,0-4.1,0-6,0C650.5,165,650.5,163,650.5,161z"/>
		<path class="st15" d="M650.5,173c1.9,0,3.8,0,6,0c0,2.2,0,4.1,0,6c-2,1.6-4,1.6-6,0C650.5,177,650.5,175,650.5,173z"/>
		<path class="st11" d="M650.5,179c2,0,4,0,6,0c0,2,0,4,0,6c-2,1.6-4,1.6-6,0C650.5,183,650.5,181,650.5,179z"/>
		<path class="st15" d="M650.5,185c2,0,4,0,6,0c0,2,0,4,0,6c-2,1.6-4,1.6-6,0C650.5,189,650.5,187,650.5,185z"/>
		<circle class="st11" cx="653.5" cy="194" r="4.2"/>
		<path class="st6" d="M680.5,161c2,0,4,0,6,0c0,2,0,4,0,6c0,12,0,24,0,36c-2,0-4,0-6,0c-1.5-1.7-1.4-3.8-1.4-5.9
			c-0.1-2-0.1-4,0-6.1c-0.1-2-0.1-4,0-6c-0.1-2-0.1-4,0-6c-0.1-2-0.1-4,0-6c-0.1-2-0.1-4.1,0-6.1C679,164.8,679,162.7,680.5,161z"/>
		<path class="st11" d="M680.5,197c0,2,0,4,0,6c-8,0-16,0-24,0c0-2,0-4,0-6c6,0,12,0,18,0C676.5,195.4,678.5,195.4,680.5,197z"/>
		<path class="st6" d="M722.5,119c-2,0-4,0-6,0c-1.5-1.7-1.4-3.8-1.4-5.9c-0.1-2-0.1-4,0-6.1c-0.1-2-0.1-4,0-6c-0.1-2-0.1-4,0-6
			c-0.1-2-0.1-4,0-6c-0.1-2-0.1-4.1,0-6.1c-0.1-2.1-0.1-4.2,1.4-5.9c1.8,0,3.6,0,5.5,0c0.1,0.1,0.3,0.2,0.4,0.3
			c0.1,0.1,0.2,0.3,0.2,0.4C722.5,91.5,722.5,105.3,722.5,119z"/>
		<path class="st11" d="M716.5,77c0,2,0,4,0,6c-2,1.6-4.1,1.6-6.2,0.2c-1.4-2.1-1.3-4.2,0.2-6.2C712.5,77,714.5,77,716.5,77z"/>
		<path class="st7" d="M710.5,77c0,2,0,4,0,6c1.5,1.7,1.4,3.8,1.4,5.9c0.1,2,0.1,4,0,6.1c0.1,2,0.1,4,0,6c0.1,2,0.1,4,0,6
			c0.1,2,0.1,4.1,0,6.1c0.1,2.1,0.1,4.2-1.4,5.9c0,2,0,4,0,6c-1,0-2,0-3,0c-0.9-0.8-1.1-2-1.5-3c-3,0.1-3.7,5.3-7.5,3c0-8,0-16,0-24
			c0-1,0-2,0-3c0.8,0,1.7,0,2.5,0c1-0.7,0.1-1.9,0.8-2.9c0.7,0,1.4,0,2.5,0c0-6,0-11.9,0-18.1C706.6,77,708.5,77,710.5,77z"/>
		<path class="st11" d="M710.5,119c0-2,0-4,0-6c2-1.6,4-1.6,6,0c0,2,0,4,0,6C714.5,119,712.5,119,710.5,119z"/>
		<path class="st41" d="M752.5,86c0,0.9,0,1.8,0,3c-1.2,0-2.1,0-3,0c0-1,0-2,0-3C750.5,86,751.5,86,752.5,86z"/>
		<path class="st51" d="M692.5,53c0-1.9,0-3.8,0-6c-2.2,0-4.1,0-6,0c0-1.9,0-3.8,0-6c1.1,0,2.1,0,3,0c2,0,4,0,6,0c0.9,0,1.8,0,3,0
			c0,1.2,0,2.1,0,3c1.6,2,1.6,4,0,6c0,0.8,0,1.6,0,2.7C696.5,53.3,694.5,52.9,692.5,53z"/>
		<path class="st8" d="M698.5,50c0-2,0-4,0-6c0.8,0,1.7,0,2.5,0c1-0.7,0.2-1.9,0.7-2.7c0.7-0.6,1.6-0.2,2.6-0.4c0,3.9,0,7.8,0,11.8
			c-0.6,0.6-1.5-0.1-2.1,0.3c-1.2-0.7-0.3-1.9-0.8-2.8C700.4,49.7,699.4,50.1,698.5,50z"/>
		<path class="st23" d="M797.5,56c0,2,0,4,0,6c-5.6,2.7-10.4,2-12.6-1.7c0.3-2.2,2.5-2.7,3.6-4.2C791.5,56,794.5,56,797.5,56z"/>
		<path class="st26" d="M788.5,56c0,0.9,0,1.8,0,3c-1.2,0-2.1,0-3,0c-0.2-0.2-0.3-0.3-0.5-0.5c-0.4-0.9-0.3-1.8,0.5-2.5
			C786.5,56,787.5,56,788.5,56z"/>
		<path class="st52" d="M815.5,80c-1,0-2,0-3,0c-0.2-0.2-0.3-0.3-0.5-0.5c-0.8-1.7-0.8-3.3,0-5c0.2-0.2,0.4-0.3,0.5-0.5
			c0.8,0,1.6,0,2.7,0C815.8,75.9,815.3,78,815.5,80z"/>
		<path class="st28" d="M809.5,71c1,0,2,0,3,0c0,1,0,2,0,3c-0.9,0.8-1.8,0.9-2.8,0.3c-0.9-0.7-1.1-1.7-0.7-2.8
			C809.1,71.4,809.3,71.2,809.5,71z"/>
		<path class="st53" d="M809.5,68c0,1,0,2,0,3c-0.9,0.8-1.8,0.9-2.9,0.4c-0.9-0.8-1-1.7-0.6-2.8c0.2-0.2,0.3-0.4,0.5-0.6
			C807.5,68,808.5,68,809.5,68z"/>
		<path d="M803.5,65c0.9,0,1.8,0,3,0c0,1.2,0,2.1,0,3c-0.9,0.8-1.8,0.9-2.9,0.4c-0.9-0.8-1-1.7-0.6-2.8
			C803.1,65.4,803.3,65.2,803.5,65z"/>
		<path class="st41" d="M800.5,62c1,0,2,0,3,0c0,1,0,2,0,3C800.3,66.1,799.3,65.1,800.5,62z"/>
		<path class="st40" d="M800.5,62c0,0.9,0,1.8,0,3c1.2,0,2.1,0,3,0c0,1,0,2,0,3c0.8,0.7,0.9,1.6,0.6,2.5c-0.2,0.4-0.4,0.8-0.8,1.1
			c-1.1,0.7-1.9,1.8-2.7,2.7c-1.3,0.8-2.2,1.9-3,3c-1.2,0.9-2.3,1.9-3.2,3.1c-2.3,1.4-1.3,4.5-3.3,6c-1.7,0.9-3.5,0.9-5.2,0.1
			c-2.2-1.4-1.1-4.7-3.5-6c-1-1.2-2-2.4-3.2-3.3c-1.3-2.3-3.5-2-5.6-2.1c-0.9,0-1.8-0.2-2.6-0.5c-1.3-0.8-2-2.4-3.4-3.1
			c-0.3-0.3-0.6-0.7-0.8-1.1c-0.3-0.9-0.4-1.9-0.4-2.8c0-1,0.4-1.9,1.1-2.6c1-1,2-2,3-3c1,0,2,0,3,0c1.9,0,3.8,0,6,0
			c0-1.1,0-2.1,0-3c2-1.6,4-1.6,6,0c0,0.8,0,1.6,0,2.7c2,0.5,4.1,0.2,6.1,0.3c2,0.1,3.9,0,5.9,0C798.5,62,799.5,62,800.5,62z"/>
		<ellipse class="st46" cx="782.5" cy="57.5" rx="4.2" ry="2.1"/>
		<path class="st53" d="M761.5,71c0-1,0-2,0-3c1,0,2,0,3,0c0.2,0.2,0.3,0.4,0.5,0.6c0.4,1.1,0.3,2-0.6,2.8
			C763.3,71.9,762.3,71.8,761.5,71z"/>
		<path d="M767.5,65c0,1,0,2,0,3c-1,0.8-2,0.8-3,0c0-0.9,0-1.8,0-3C765.6,65,766.5,65,767.5,65z"/>
		<path class="st41" d="M770.5,62c0,0.9,0,1.8,0,3c-1.2,0-2.1,0-3,0c0-1,0-2,0-3C768.5,62,769.5,62,770.5,62z"/>
		<path class="st54" d="M761.5,71c1,0,2,0,3,0c1-0.8,2-0.8,3,0c0.8,1,0.9,2,0.3,3.1c-1.8,1.4-3.7,1.3-5.6,0.5
			c-0.2-0.2-0.4-0.4-0.6-0.6C761.5,73,761.5,72,761.5,71z"/>
		<path class="st52" d="M758.5,80c-1,0-2,0-3,0c0-2,0-4,0-6c1,0,2,0,3,0C759.9,76,760.2,78,758.5,80z"/>
		<path class="st40" d="M758.5,80c0-2,0-4,0-6c1,0,2,0,3,0c1.5,1.9,1.6,3.9,0.3,6C760.7,80.9,759.6,80.8,758.5,80z"/>
		<path class="st43" d="M809.5,110c0,2,0,4,0,6c-2,1.5-4,1.6-6.1,0.1c-1.5-2-1.4-4-0.2-6c1.7-1.5,3.6-1.6,5.6-0.7
			C809,109.6,809.2,109.8,809.5,110z"/>
		<path class="st42" d="M815.5,104c0,2,0,4,0,6c-2,0-4,0-6,0c-1.6-2-1.6-4.1-0.2-6.2C811.4,102.4,813.4,102.4,815.5,104z"/>
		<path class="st44" d="M803.5,116c2,0,4,0,6,0c0,1,0,2,0,3c-0.2,0.2-0.4,0.4-0.6,0.6c-1.8,0.8-3.6,0.8-5.3-0.1
			c-0.9-0.8-1-1.8-0.6-2.9C803.1,116.4,803.3,116.2,803.5,116z"/>
		<path class="st26" d="M809.5,119c1,0,2,0,3,0c0.8,1,0.8,2,0,3c-1,0.8-2.1,0.9-3.2,0.2C808.5,121.1,808.7,120,809.5,119z"/>
		<circle class="st28" cx="814" cy="120.5" r="2.1"/>
		<ellipse class="st24" cx="826" cy="101" rx="2.1" ry="4.2"/>
		<path d="M821.5,104c1,0,2,0,3,0c0,0.9,0,1.8,0,3c-1.2,0-2.1,0-3,0C821.5,106,821.5,105,821.5,104z"/>
		<path class="st46" d="M818.5,110c0-0.9,0-1.8,0-3c1.2,0,2.1,0,3,0c0,1,0,2,0,3C820.5,110,819.5,110,818.5,110z"/>
		<path class="st28" d="M809.5,122c1,0,2,0,3,0c0,2,0,4,0,6c-0.8,0.7-1.7,1.1-2.8,1.2c-1,0-2-0.1-2.9-0.6c-1.3-1-2.2-2.5-3.5-3.5
			c-0.6-0.9-0.7-1.9-0.2-2.9c0.3-0.5,0.7-0.8,1.2-1C806.1,120.6,807.9,120.6,809.5,122z"/>
		<path class="st55" d="M815.5,140c-1,0-2,0-3,0c-0.2-0.1-0.4-0.2-0.6-0.4c-0.9-1.3-2.7-1.8-3.2-3.5c-0.1-1.1,0.1-2.1,1.1-2.8
			c2-0.9,3.9-0.8,5.6,0.6C815.5,136,815.5,138,815.5,140z"/>
		<path class="st24" d="M815.5,134c-2,0-4,0-6,0c-0.9-1-0.9-2.1-0.2-3.2c1.1-0.7,2.2-0.6,3.2,0.2c1,0,2,0,3,0
			C815.5,132,815.5,133,815.5,134z"/>
		<path class="st38" d="M812.5,131c-1,0-2,0-3,0c-0.9-1-0.8-2,0-3c1,0,2,0,3,0C812.5,129,812.5,130,812.5,131z"/>
		<path class="st56" d="M812.5,146c-1,0-2,0-3,0c-0.8-0.7-1-1.6-1.1-2.6c0-1,0-2,0.4-2.9c0.2-0.4,0.6-0.8,1-1c1-0.4,1.9-0.2,2.7,0.5
			C812.5,142,812.5,144,812.5,146z"/>
		<path class="st23" d="M755.5,80c0,1.9,0,3.8,0,6c-1.1,0-2.1,0-3,0c0-2,0-4,0-6C753.5,80,754.5,80,755.5,80z"/>
		<path class="st46" d="M809.5,83c0,0.8,0,1.7,0,2.5c-0.7,1-1.9,0.1-3,0.9c0,1.7,0,3.7,0,5.6c-0.8,0.9-1.8,1.1-2.9,1.3
			c-1.8,0.1-3.7,0.1-5.5,0.1c-1.8-0.1-3.6,0-5.3-0.3c-0.5-0.1-0.9-0.4-1.3-0.6c-0.7-0.8-0.8-1.7-0.6-2.7c0.2-0.4,0.4-0.8,0.8-1.1
			c0.9-0.6,1.7-1.4,2.3-2.3c0.3-0.3,0.7-0.6,1.1-0.8c0.9-0.3,1.8-0.4,2.7-0.5c0.9,0,1.7,0,2.6-0.1c1.4,0,2.1-1,2.9-1.9
			c1.2-0.9,2.3-1.9,3.2-3.1c0.8-0.6,1.7-0.6,2.7-0.4c0.5,0.2,0.8,0.5,1.1,0.9C810.3,81.3,810.2,82.2,809.5,83z"/>
		<path class="st57" d="M803.5,92c1,0,2,0,3,0c1,1,2,2,3,3c0.9,0,1.8,0,3,0c0,1.2,0,2.1,0,3c-0.2,0.2-0.4,0.4-0.6,0.6
			c-1.1,0.6-2.2,0.7-3.4,0.8c-1.8,0-3.7-0.1-5.1-1.4C801.9,95.9,801.9,93.9,803.5,92z"/>
		<path class="st46" d="M815.5,104c-2,0-4,0-6,0c-0.8-0.8-0.9-1.7-0.5-2.7c0.8-1.5,2.6-2,3.5-3.3c0.8,0,1.6,0,2.7,0
			C815.8,99.9,815.3,102,815.5,104z"/>
		<path class="st52" d="M809.5,83c0-1,0-2,0-3c1-0.9,2-0.8,3,0c0,0.9,0,1.8,0,3C811.3,83,810.4,83,809.5,83z"/>
		<circle class="st58" cx="808" cy="93.5" r="2.1"/>
		<path class="st59" d="M800.5,146c0,0.8,0,1.7,0,2.5c0.7,1,1.9,0.1,2.8,0.8c0,1.7,0,3.5,0,5.5c-0.5,0.8-1.7-0.1-2.6,0.5
			c-0.6,0.7,0,1.6-0.4,2.5c-9.8,0-19.6,0-29.6,0c-0.6-0.5,0-1.4-0.3-2.2c-0.6-1.1-1.8-0.1-2.8-0.9c0-1.6,0-3.3,0-5.4
			c0.5-0.8,1.7,0.1,2.5-0.4c0.6-0.9,0.2-1.9,0.3-2.8c-1.4-1.7-1.4-3.5-0.7-5.5c0.5-1.1,1.5-1.4,2.6-1.3c0.5,0.1,0.9,0.3,1.3,0.5
			c0.4,0.2,0.6,0.7,1.2,0.5c0.4-0.4,0.3-0.9,0.3-1.4c0.1-1.8-0.1-3.6,1.3-5c0.9-0.6,1.9-0.7,2.9-0.1c1.4,1.1,1.1,3.1,2.6,4.4
			c2.2,0.8,4.6,0.8,6.8,0.1c1.6-1.2,1.4-3.2,2.7-4.4c1-0.6,1.9-0.7,2.9-0.1c1.5,1.4,1.3,3.3,1.4,5c0,0.5,0,1,0.3,1.4
			c0.6,0.4,0.8-0.2,1.2-0.4c0.4-0.3,0.8-0.4,1.3-0.5c1.1,0,2.1,0.2,2.6,1.2C801.9,142.4,801.9,144.3,800.5,146z"/>
		<path class="st24" d="M803.5,164c0,2,0,4,0,6c-2,0-4,0-6,0c-1,0.8-2,0.8-3,0c0-1,0-2,0-3c0.9,0,1.8,0,3,0c0-1.2,0-2.1,0-3
			c1,0,2,0,3,0C801.5,163.2,802.5,163.2,803.5,164z"/>
		<path class="st28" d="M809.5,143c0,1,0,2,0,3c-1,0.8-2,0.8-3,0c-1,0-2,0-3,0c-1.5-1.8-1.5-3.7-0.5-5.8c0.8-1,1.8-1.1,2.9-0.9
			C807.6,140,808,142,809.5,143z"/>
		<path class="st28" d="M767.5,146c-1,0-2,0-3,0c-1,0.8-2,0.8-3,0c-0.8-0.9-0.9-1.8-0.5-2.9c1.3-1.3,2.4-2.7,3.9-3.7
			c1.2-0.3,2.2-0.2,3.1,0.7C769,142.2,768.9,144.2,767.5,146z"/>
		<path class="st60" d="M767.5,146c0-2,0-4,0-6c1-0.9,2-0.9,3,0c0,2,0,4,0,6C769.5,146,768.5,146,767.5,146z"/>
		<path class="st60" d="M803.5,140c0,2,0,4,0,6c-1,0-2,0-3,0c0-2,0-4,0-6C801.5,139.1,802.5,139.1,803.5,140z"/>
		<path class="st59" d="M803.5,164c-1,0-2,0-3,0c0-0.9,0-1.8,0-3c1.2,0,2.1,0,3,0C803.5,162,803.5,163,803.5,164z"/>
		<path class="st61" d="M761.5,146c1,0,2,0,3,0c0,0.9,0,1.8,0,3c-1.2,0-2.1,0-3,0C761.5,148,761.5,147,761.5,146z"/>
		<path class="st61" d="M806.5,146c1,0,2,0,3,0c0,1,0,2,0,3c-0.9,0-1.8,0-3,0C806.5,147.8,806.5,146.9,806.5,146z"/>
		<path class="st56" d="M761.5,143c0,1,0,2,0,3c-1,0-2,0-3,0c0-2,0-4,0-6c0.2-0.2,0.3-0.3,0.5-0.5c0.7-0.3,1.4-0.3,2.1-0.1
			c0.4,0.2,0.8,0.5,1,1C762.4,141.4,762.2,142.3,761.5,143z"/>
		<path class="st52" d="M758.5,80c1,0,2,0,3,0c1.7-1.4,3.5-1.4,5.4-0.7c0.5,0.2,0.9,0.6,1.2,1.1c0.8,1.9,0.7,3.8,0.6,5.7
			c-0.1,1.2-0.3,2.2-1.1,3.1c-1.1,0.7-2.2,0.6-3.2-0.3c0-1,0-2,0-3c-1-1-2-2-3-3c-0.9,0-1.8,0-3,0C758.5,81.8,758.5,80.9,758.5,80z"
			/>
		<path class="st57" d="M764.5,89c1,0,2,0,3,0c1,0.9,1.2,2.1,1.3,3.3c0.2,2,0.1,3.9-1.1,5.6c-1.7,1.6-3.8,1.5-5.9,1.4
			c-1.3-0.1-2.5-0.3-3.3-1.3c0-0.9,0-1.8,0-3c1.2,0,2.1,0,3,0c1-1,2-2,3-3C764.5,91,764.5,90,764.5,89z"/>
		<path class="st41" d="M758.5,98c1,0,2,0,3,0c1.4,1.7,1.4,3.5,0.6,5.4c-0.2,0.2-0.4,0.4-0.6,0.6c-2,0-4,0-6,0c0-1.9,0-3.8,0-6
			C756.6,98,757.5,98,758.5,98z"/>
		<circle class="st57" cx="763" cy="84.5" r="2.1"/>
		<circle class="st58" cx="763" cy="93.5" r="2.1"/>
		<path class="st62" d="M767.5,116c0-1.9,0-3.8,0-6c-2.2,0-4.1,0-6,0c0-2,0-4,0-6c2.6-2,5.5-1.6,8.4-0.8c2.6,1.4,1.3,5.1,3.8,6.6
			c0.6,0.9,0.7,1.9,0.2,2.9c-1.1,1.3-2.3,2.6-3.6,3.8C769.2,116.9,768.3,116.8,767.5,116z"/>
		<path class="st63" d="M767.5,125c0-0.8,0-1.6,0-2.7c-1.9-0.6-4-0.2-6-0.3c0-1,0-2,0-3c2,0,4,0,6,0c2.7-1.5,3.6,0.1,4.2,2.4
			c0.1,1.2,0,2.3-0.6,3.3c-0.8,1.1-1.8,1.2-2.9,0.8C767.9,125.3,767.7,125.2,767.5,125z"/>
		<path class="st39" d="M770.5,122c0-0.9,0-1.8,0-3c-1.2,0-2.1,0-3,0c0-1,0-2,0-3c1,0,2,0,3,0c1.1-0.8,2.2-0.8,3.2,0.1
			c1.3,2,1.3,4,0.1,6C772.7,122.9,771.6,122.8,770.5,122z"/>
		<path class="st55" d="M758.5,140c-1,0-2,0-3,0c0-2,0-4,0-6c1.8-1.5,3.7-1.5,5.8-0.5c1,0.8,1.1,1.8,0.9,2.9
			C761.4,138.1,759.4,138.6,758.5,140z"/>
		<path class="st24" d="M761.5,134c-2,0-4,0-6,0c0-1,0-2,0-3c1,0,2,0,3,0c1-0.8,2.1-0.9,3.2-0.2C762.3,131.9,762.4,133,761.5,134z"
			/>
		<path class="st38" d="M761.5,131c-1,0-2,0-3,0c0-1,0-2,0-3c1,0,2,0,3,0C762.2,129,762.3,130,761.5,131z"/>
		<path class="st17" d="M761.5,131c0-1,0-2,0-3c1,0,2,0,3,0c0.7-0.8,1.6-0.9,2.6-0.6c0.4,0.2,0.8,0.5,1,1c0.4,0.8,0.5,1.8,0.7,2.7
			c0.8,2.7,4.5,1.1,5.4,3.6c0.6,1.9,0.8,3.8-0.8,5.4c-1,0-2,0-3,0s-2,0-3,0s-2,0-3,0c-1,0.8-2,0.8-3,0c-0.8-1-0.8-2,0-3c0-1,0-2,0-3
			S761.5,132,761.5,131z"/>
		<path class="st23" d="M767.5,128c-1,0-2,0-3,0c0-0.9,0-1.8,0-3c1.2,0,2.1,0,3,0C768.2,126,768.3,127,767.5,128z"/>
		<path d="M794.5,170c1,0,2,0,3,0c0,1,0,2,0,3c-0.9,0-1.8,0-3,0C794.5,171.8,794.5,170.9,794.5,170z"/>
		<path class="st11" d="M698.5,125c0.8,0,1.6,0,2.4,0c1.1-0.7,0.2-1.8,0.7-2.7c0.7-0.9,1.9,0.2,2.7-0.7c0.1-0.7,0.1-1.4,0.2-2.2
			c0.8-0.7,1.7-0.5,2.9-0.1c0,1.8,0,3.7,0,5.7c-0.8,0-1.6,0-2.7,0c-0.7,1.8,0,3.8-0.4,5.8c-1.8,0-3.7,0-5.9,0
			C698.5,128.9,698.5,126.9,698.5,125z"/>
		<path class="st11" d="M680.5,161c0,2,0,4,0,6c-2,1.6-4,1.6-6,0c-4.9,0-9.8,0-15,0c0-2.1,0-4.1,0-6c3,0,6,0,9,0
			C672.5,161,676.5,161,680.5,161z"/>
		<path class="st15" d="M674.5,167c2,0,4,0,6,0c0,2,0,4,0,6c-2,1.6-4,1.6-6,0C674.5,171,674.5,169,674.5,167z"/>
		<path class="st11" d="M674.5,173c2,0,4,0,6,0c0,2,0,4,0,6c-2,1.6-4,1.6-6,0C674.5,177,674.5,175,674.5,173z"/>
		<ellipse class="st11" cx="677.5" cy="188" rx="3.7" ry="5"/>
		<circle class="st15" cx="677.5" cy="194" r="4.2"/>
		<circle class="st15" cx="677.5" cy="182" r="4.2"/>
		<ellipse class="st11" cx="713.5" cy="92" rx="3.7" ry="5"/>
		<path class="st15" d="M710.5,95c2,0,4,0,6,0c0,2,0,4,0,6c-2,1.6-4,1.6-6,0C710.5,99,710.5,97,710.5,95z"/>
		<path class="st11" d="M710.5,101c2,0,4,0,6,0c0,2,0,4,0,6c-2,1.6-4,1.6-6,0C710.5,105,710.5,103,710.5,101z"/>
		<circle class="st15" cx="713.5" cy="86" r="4.2"/>
		<circle class="st15" cx="713.5" cy="110" r="4.2"/>
		<path class="st40" d="M812.5,80c-1,0-2,0-3,0c-1.4-1.7-1.4-3.5-0.6-5.4c0.2-0.2,0.4-0.4,0.6-0.6c1,0,2,0,3,0
			C812.5,76,812.5,78,812.5,80z"/>
		<path class="st54" d="M806.5,71c1,0,2,0,3,0c0,1,0,2,0,3c-1.9,1.5-3.9,1.6-6,0.3c-0.9-1.1-0.8-2.2,0-3.3
			C804.5,70.2,805.5,70.2,806.5,71z"/>
		<circle class="st41" cx="805" cy="69.5" r="2.1"/>
		<path class="st52" d="M803.5,71c0,1,0,2,0,3c1.5,1.8,1.5,3.8,0.4,5.8c-1.6,1.7-3.6,1.5-5.6,1.5c-1.1,0-2.2-0.2-3.2-0.7
			c-0.2-0.2-0.4-0.4-0.6-0.6c0-0.9,0-1.8,0-3c1.2,0,2.1,0,3,0c1-1,2-2,3-3c0-0.9,0-1.8,0-3C801.6,71,802.5,71,803.5,71z"/>
		<path class="st41" d="M782.5,80c0.8,0,1.6,0,2.7,0c0.6,1.9,0.2,4,0.3,6c-0.2,0.2-0.4,0.4-0.6,0.6c-1.9,0.8-3.7,0.8-5.4-0.3
			c-0.8-0.8-0.9-1.8-0.5-2.8C780,82.1,781.2,81,782.5,80z"/>
		<path class="st52" d="M767.5,74c0-1,0-2,0-3c0.9,0,1.8,0,3,0c0,1.2,0,2.1,0,3c1.5,1.9,1.6,3.9,0.3,5.9c-1.1,0.9-2.2,0.9-3.3,0.1
			C765.9,78,765.9,76,767.5,74z"/>
		<path class="st46" d="M785.5,86c2,0,4,0,6,0c0.2,0.2,0.3,0.3,0.5,0.5c0.4,0.9,0.3,1.8-0.5,2.5c-1.4,1-1.9,2.9-3.5,3.6
			c-1.1,0.3-2.2,0.1-3-0.8C783.9,89.8,784,87.8,785.5,86z"/>
		<path class="st54" d="M782.5,80c0,0.9,0,1.8,0,3c-1.2,0-2.1,0-3,0c-0.2-0.1-0.4-0.2-0.6-0.4c-0.9-1.3-2.8-1.9-3.1-3.7
			c0.3-2.5,1.5-3.2,3.7-1.9c0.9,0,1.8,0,3,0C782.5,78.2,782.5,79.1,782.5,80z"/>
		<path class="st41" d="M779.5,77c-0.9,0-1.8,0-3,0c0,1.2,0,2.1,0,3c-1.1,0.9-2.2,0.8-3.3-0.1c-1.3-2-1.2-4,0.3-5.9c1.9,0,3.8,0,6,0
			C779.5,75.1,779.5,76.1,779.5,77z"/>
		<path class="st57" d="M773.5,74c0,2,0,4,0,6c-0.2,0.2-0.3,0.3-0.5,0.5c-0.7,0.3-1.3,0.3-2,0c-0.2-0.2-0.3-0.3-0.5-0.5c0-2,0-4,0-6
			C771.5,74,772.5,74,773.5,74z"/>
		<path class="st41" d="M791.5,86c0-1.9,0-3.8,0-6c1.1,0,2.1,0,3,0c1.6,2,1.6,4,0,6C793.5,86.8,792.5,86.8,791.5,86z"/>
		<circle class="st57" cx="799" cy="75.5" r="2.1"/>
		<circle class="st41" cx="766" cy="69.5" r="2.1"/>
		<circle class="st15" cx="764.5" cy="77" r="4.2"/>
		<path class="st17" d="M785.5,92c1,0,2,0,3,0c1-0.8,2-0.8,3,0c1.5,1,0.7,3.7,3,4.2c2.3-0.5,1.5-3.2,3-4.2c2,0,4,0,6,0
			c0,1.9,0,3.8,0,6c2.2,0,4.1,0,6,0c0.8,1,0.8,2,0,3c0,1,0,2,0,3c0,2,0,4,0,6c-1.9,0-3.8,0-6,0c0,2.2,0,4.1,0,6
			c-1.8,1.5-3.8,1.5-5.8,0.4c-0.9-0.8-1.3-1.9-1.4-3c-0.1-1-0.1-2.1-0.1-3.1c-0.1-1.6,0.5-3.3-1.1-4.5c-3.1,0.2-1.9,3.7-3.8,4.7
			c-1.7,0.9-3.4,0.9-5.2,0.2c-2.4-0.9-0.7-4.9-4-5.2c-1,0-2-0.1-3-0.1c-1.9,0-3.7,0.1-5.6-0.1c-1.2-0.1-2.1-0.5-3-1.3c-3,0-6,0-9,0
			c0-2,0-4,0-6c1.9,0,3.8,0,6,0c0-2.2,0-4.1,0-6c0.8-0.7,1.8-1.2,3-1.2c1.1,0,2.1,0.2,3,0.9c0.8,0.7,1,1.7,1.2,2.6
			c0.2,1.1,0.3,2.3,2,2.1c1.4-0.1,1.3-1.2,1.6-2.1c0.2-1,0.5-1.9,1.2-2.7c0.9-0.7,1.9-0.9,3-0.9C783.6,90.8,784.6,91.3,785.5,92z"/>
		<path class="st39" d="M797.5,116c2,0,4,0,6,0c0,1,0,2,0,3c0.8,1,0.8,2,0,3c-0.9,0.8-1.9,1.2-3,1.2c-1.2,0-2.2-0.2-3.2-0.9
			c-1.2-1.8-1.2-3.7-0.4-5.6C797.1,116.4,797.3,116.2,797.5,116z"/>
		<ellipse class="st63" cx="806.5" cy="120.5" rx="4.2" ry="2.1"/>
		<path class="st17" d="M803.5,140c-1,0-2,0-3,0s-2,0-3,0c-1.6-1.6-1.4-3.5-0.7-5.4c0.9-2.5,5.1-0.7,5.4-4c0.2-1,0.5-2,1.3-2.7
			c1-0.6,2-0.6,3,0.2c1,0,2,0,3,0c0,1,0,2,0,3s0,2,0,3s0,2,0,3c0.8,1,0.8,2,0,3c-1,0.8-2,0.8-3,0C805.5,140,804.5,140,803.5,140z"/>
		<path class="st63" d="M800.5,122c1,0,2,0,3,0c0,1,0,2,0,3c-0.2,0.2-0.4,0.3-0.6,0.5c-1.1,0.4-2,0.3-2.8-0.6
			C799.6,123.8,799.7,122.9,800.5,122z"/>
		<path class="st23" d="M806.5,128c-1,0-2,0-3,0c-0.2-0.2-0.3-0.3-0.5-0.5c-0.4-0.9-0.3-1.8,0.5-2.5c0.9,0,1.8,0,3,0
			C806.5,126.2,806.5,127.1,806.5,128z"/>
		<path class="st64" d="M809.5,140c0-1,0-2,0-3c0.9,0,1.8,0,3,0c0,1.2,0,2.1,0,3C811.5,140,810.5,140,809.5,140z"/>
		<path class="st24" d="M806.5,140c1,0,2,0,3,0c0,1,0,2,0,3c-0.9,0-1.8,0-3,0C806.5,141.8,806.5,140.9,806.5,140z"/>
		<path class="st58" d="M797.5,92c0,1.8,0,3.6,0,5.7c-1.9,0-3.8,0-6,0c0-1.8,0-3.8,0-5.7C793.5,92,795.5,92,797.5,92z"/>
		<path class="st15" d="M803.5,80c0-2,0-4,0-6c2,0,4,0,6,0c0,2,0,4,0,6c-1,0-2,0-3,0c-0.7,0.8-1.6,0.9-2.5,0.5
			C803.8,80.3,803.6,80.2,803.5,80z"/>
		<path class="st15" d="M797.5,80c2,0,4,0,6,0c0.8,1,0.8,2,0,3c0,0.9,0,1.8,0,3c-1.2,0-2.1,0-3,0c-1-1.3-2.7-1.9-3.5-3.3
			C796.6,81.7,796.7,80.8,797.5,80z"/>
		<path class="st40" d="M797.5,80c0,1,0,2,0,3c0.8,1,0.8,2,0,3c-1,0-2,0-3,0c0-2,0-4,0-6C795.5,80,796.5,80,797.5,80z"/>
		<path class="st54" d="M791.5,86c1,0,2,0,3,0c0,0.9,0,1.8,0,3c-1.2,0-2.1,0-3,0C791.5,88,791.5,87,791.5,86z"/>
		<path class="st10" d="M797.5,86c0-1,0-2,0-3c0.9,0,1.8,0,3,0c0,1.2,0,2.1,0,3C799.5,86,798.5,86,797.5,86z"/>
		<path class="st52" d="M803.5,83c0-1,0-2,0-3c1,0,2,0,3,0c0,0.9,0,1.8,0,3C805.3,83,804.4,83,803.5,83z"/>
		<path class="st52" d="M791.5,92c-1,0-2,0-3,0c0-0.9,0-1.8,0-3c1.2,0,2.1,0,3,0C791.5,90,791.5,91,791.5,92z"/>
		<path class="st52" d="M809.5,101c0-1,0-2,0-3c1,0,2,0,3,0c0,0.9,0,1.8,0,3C811.3,101,810.4,101,809.5,101z"/>
		<path class="st65" d="M791.5,134c0,1.8,0,3.7,0,5.9c-1.9,0-3.8,0.1-5.8,0.1c-2,0-3.9,0-6.2,0c0-2.1,0-4,0-6
			c0.2-0.2,0.4-0.4,0.6-0.6c3.6-1.2,7.2-1.2,10.8,0C791.1,133.6,791.3,133.8,791.5,134z"/>
		<path class="st65" d="M773.5,140c0-2,0-4,0-6c0.7-0.8,1.6-0.8,2.5-0.5c0.2,0.2,0.3,0.3,0.5,0.5c0,2,0,4,0,6
			C775.5,140.8,774.5,140.8,773.5,140z"/>
		<path class="st65" d="M797.5,134c0,2,0,4,0,6c-1,0.8-2,0.8-3,0c0-2,0-4,0-6c0.2-0.2,0.3-0.3,0.5-0.5
			C795.9,133.2,796.7,133.2,797.5,134z"/>
		<path class="st23" d="M779.5,134c-1,0-2,0-3,0c-0.8-1-0.8-2-0.1-3.1c1-0.8,2.1-0.8,3.1,0C780.3,132,780.3,133,779.5,134z"/>
		<path class="st23" d="M794.5,134c-1,0-2,0-3,0c-0.8-1-0.8-2-0.1-3.1c1-0.8,2.1-0.8,3.1,0C795.3,132,795.3,133,794.5,134z"/>
		<path class="st60" d="M773.5,140c1,0,2,0,3,0c0,0.8,0,1.6,0,2.5c-0.8,0.9-1.7,0.5-2.7,0.4C773.2,141.9,773.6,140.9,773.5,140z"/>
		<path class="st60" d="M794.5,140c1,0,2,0,3,0c0,0.8,0,1.6,0,2.5c-0.8,0.9-1.7,0.5-2.7,0.4C794.2,141.9,794.6,140.9,794.5,140z"/>
		<path class="st24" d="M761.5,140c1,0,2,0,3,0c0,0.9,0,1.8,0,3c-1.2,0-2.1,0-3,0C761.5,142,761.5,141,761.5,140z"/>
		<path class="st64" d="M761.5,137c0,1,0,2,0,3c-1,0-2,0-3,0c0-0.9,0-1.8,0-3C759.6,137,760.5,137,761.5,137z"/>
		<path class="st66" d="M770.5,92c-1,0-2,0-3,0c0-1,0-2,0-3c0-1,0-2,0-3c1.6-1.4,3.3-1.3,5.2-0.8c0.5,0.2,0.9,0.5,1.2,0.9
			c0.5,0.9,0.5,1.9,0.1,2.8C773,90.1,771.4,90.7,770.5,92z"/>
		<path class="st67" d="M773.5,86c-2,0-4,0-6,0c0-2,0-4,0-6c1,0,2,0,3,0c0.8,1,1.8,1.7,2.9,2.4c0.3,0.3,0.6,0.7,0.8,1.1
			C774.3,84.4,774.3,85.3,773.5,86z"/>
		<path class="st68" d="M770.5,104c1,0,2,0,3,0c1.4,1.7,1.4,3.5,0.6,5.4c-0.2,0.2-0.4,0.4-0.6,0.6c-0.8,0-1.6,0-2.7,0
			C770.2,108.1,770.6,106,770.5,104z"/>
		<path class="st69" d="M773.5,113c0-1,0-2,0-3c1.6-1.4,3.4-1.3,5.2-0.8c0.5,0.2,0.9,0.5,1.2,1c0.4,1.1,0.3,2.1-0.5,3
			c-1.7,1.2-3.5,1.2-5.4,0.3C773.8,113.4,773.7,113.2,773.5,113z"/>
		<path class="st70" d="M773.5,116c-1,0-2,0-3,0c0-0.9,0-1.8,0-3c1.2,0,2.1,0,3,0c0.8,0.7,0.9,1.6,0.5,2.5
			C773.8,115.7,773.6,115.8,773.5,116z"/>
		<path class="st44" d="M770.5,122c1,0,2,0,3,0c0.9-0.8,1.9-0.8,3-0.2c1.5,1.6,1.3,3.4,0.9,5.3c-0.2,0.5-0.5,1-0.9,1.3
			c-1,0.6-2,0.7-3.1,0.7c-1.1-0.1-2.2-0.3-3-1.2c-0.7-1-0.6-2,0.2-3C770.5,124,770.5,123,770.5,122z"/>
		<path class="st39" d="M770.5,125c0,1,0,2,0,3c-0.2,0.2-0.3,0.3-0.5,0.5c-0.9,0.4-1.8,0.3-2.5-0.5c0-1,0-2,0-3
			C768.5,125,769.5,125,770.5,125z"/>
		<path class="st68" d="M776.5,122c-1,0-2,0-3,0c0-2,0-4,0-6c1.7-1.4,3.6-1.5,5.5-0.6c1,0.6,1.3,1.5,1.1,2.7
			c-0.5,1.6-2.2,2.3-3.1,3.6C776.8,121.8,776.7,121.9,776.5,122z"/>
		<path d="M770.5,128c1,0,2,0,3,0c0.8,0.9,1.8,1.7,2.7,2.5c0.1,0.2,0.2,0.3,0.3,0.5c0,1,0,2,0,3c-1,0-2,0-3,0c-1.9,0-3.8,0-6,0
			c0-1.1,0-2.1,0-3C768.5,130,769.5,129,770.5,128z"/>
		<path class="st23" d="M770.5,128c0,0.9,0,1.8,0,3c-1.2,0-2.1,0-3,0c0-1,0-2,0-3C768.5,128,769.5,128,770.5,128z"/>
		<path class="st66" d="M785.5,92c-1,0-2,0-3,0c-0.9-1.2-2.3-1.9-3.3-2.9c-0.5-0.8-0.6-1.7-0.2-2.6c0.2-0.2,0.3-0.3,0.5-0.5
			c2,0,4,0,6,0C785.5,88,785.5,90,785.5,92z"/>
		<path class="st15" d="M773.5,86c0-1,0-2,0-3c2-1.7,4-1.5,6,0c0,1,0,2,0,3C777.5,87.6,775.5,87.6,773.5,86z"/>
		<path class="st12" d="M779.5,83c-2,0-4,0-6,0c-0.8-1-0.8-2,0-3c1,0,2,0,3,0c0.9,0,1.8,0,3,0C779.5,81.2,779.5,82.1,779.5,83z"/>
		<path class="st15" d="M773.5,80c0,1,0,2,0,3c-0.9,0-1.8,0-3,0c0-1.2,0-2.1,0-3C771.5,80,772.5,80,773.5,80z"/>
		<path d="M779.5,110c-2,0-4,0-6,0c0-2,0-4,0-6c2,0,4,0,6,0C780.9,106,781.2,108,779.5,110z"/>
		<path d="M791.5,110c0-1.8,0-3.6,0-5.7c1.9,0,3.8,0,6,0c0,1.8,0,3.8,0,5.7c-1.7,1.4-3.5,1.4-5.4,0.6
			C791.9,110.4,791.7,110.2,791.5,110z"/>
		<path class="st68" d="M779.5,110c0-2,0-4,0-6c1,0,2,0,3,0c1.5,1.9,1.6,3.9,0.3,5.9C781.7,110.8,780.6,110.8,779.5,110z"/>
		<path class="st62" d="M782.5,110c0-2,0-4,0-6c0.8,0,1.6,0,2.7,0c0.6,1.9,0.2,4,0.3,6c-0.2,0.2-0.3,0.3-0.5,0.5
			c-0.7,0.3-1.3,0.3-2,0C782.8,110.3,782.6,110.2,782.5,110z"/>
		<path class="st62" d="M785.5,110c2,0,4,0,6,0c0.8,0.9,0.9,2,0.3,3c-0.4,0.4-0.9,0.7-1.4,0.9C787.7,113.9,783.9,115.3,785.5,110z"
			/>
		<path class="st71" d="M791.5,113c0-1,0-2,0-3c2,0,4,0,6,0c0,1,0,2,0,3C795.5,114.5,793.5,114.7,791.5,113z"/>
		<path class="st72" d="M791.5,113c2,0,4,0,6,0c0,1,0,2,0,3c-1.9,1.5-3.9,1.6-5.9,0.3C790.6,115.2,790.6,114.1,791.5,113z"/>
		<path class="st73" d="M779.5,92c0,1,0,2,0,3c-2,1.6-4,1.6-6,0c0-1,0-2,0-3c0.2-0.2,0.3-0.3,0.5-0.5c1.7-0.8,3.3-0.8,5,0
			C779.1,91.6,779.3,91.8,779.5,92z"/>
		<path class="st74" d="M773.5,95c2,0,4,0,6,0c0,0.8,0,1.7,0,2.7c-1.9,0-3.8,0-5.7,0C773.2,97,773.6,95.9,773.5,95z"/>
		<path class="st57" d="M770.5,92c0-0.9,0-1.8,0-3c1.2,0,2.1,0,3,0c0.9,1,0.8,2,0,3C772.5,92,771.5,92,770.5,92z"/>
		<path class="st52" d="M779.5,89c0.9,0,1.8,0,3,0c0,1.2,0,2.1,0,3c-1,0-2,0-3,0C778.7,91,778.6,90,779.5,89z"/>
		<path class="st44" d="M800.5,122c0,1,0,2,0,3c0.8,0.7,0.9,1.6,0.6,2.5c-0.2,0.4-0.5,0.8-0.9,1c-0.9,0.4-1.8,0.5-2.8,0.5
			c-1,0-2-0.2-2.9-0.7c-0.4-0.4-0.7-0.8-0.9-1.3c-0.4-1.9-0.5-3.7,0.9-5.3c1-0.7,2-0.6,3,0.2C798.5,122,799.5,122,800.5,122z"/>
		<path class="st68" d="M797.5,122c-1,0-2,0-3,0c-0.2-0.1-0.3-0.2-0.5-0.3c-0.8-1-1.8-1.7-2.7-2.6c-0.5-0.8-0.6-1.6-0.2-2.5
			c0.2-0.2,0.3-0.3,0.5-0.5c2,0,4,0,6,0C797.5,118,797.5,120,797.5,122z"/>
		<path d="M797.5,128c1,0,2,0,3,0c1.2,0.8,1.9,2.1,3,3c0,0.8,0,1.6,0,2.7c-1.9,0.6-4,0.2-6,0.3c-1,0-2,0-3,0c0-1,0-2,0-3
			c0.1-0.2,0.2-0.3,0.3-0.5C795.7,129.7,796.7,128.9,797.5,128z"/>
		<path class="st23" d="M803.5,131c-0.9,0-1.8,0-3,0c0-1.2,0-2.1,0-3c1-0.8,2-0.8,3,0C803.5,129,803.5,130,803.5,131z"/>
		<circle class="st39" cx="802" cy="126.5" r="2.1"/>
		<path class="st38" d="M791.5,131c0,1,0,2,0,3c-4,0-8,0-12,0c0-1,0-2,0-3c0.1-0.2,0.2-0.4,0.3-0.6c1.2-0.9,1.8-2.5,3.2-3.2
			c1.6-0.6,3.2-0.6,4.8,0c1.5,0.7,2.1,2.3,3.3,3.2C791.2,130.6,791.3,130.8,791.5,131z"/>
		<path class="st38" d="M779.5,131c-1,0-2,0-3,0c-0.8-1-0.8-2,0-3c1-0.8,2.1-0.9,3.2-0.2C780.4,128.9,780.3,130,779.5,131z"/>
		<path class="st38" d="M794.5,131c-1,0-2,0-3,0c-0.8-1-0.9-2.1-0.2-3.2c1.1-0.7,2.2-0.6,3.2,0.2C795.3,129,795.3,130,794.5,131z"/>
		<path class="st17" d="M779.5,89c0,1,0,2,0,3c-2,0-4,0-6,0c0-1,0-2,0-3c0-1,0-2,0-3c2,0,4,0,6,0C779.5,87,779.5,88,779.5,89z"/>
		<path class="st75" d="M779.5,116c-2,0-4,0-6,0c0-1,0-2,0-3c2,0,4,0,6,0c0.2,0.2,0.3,0.3,0.5,0.5c0.3,0.7,0.3,1.3,0,2
			C779.8,115.7,779.6,115.8,779.5,116z"/>
		<path class="st62" d="M779.5,110c1,0,2,0,3,0c1.1,3.1,0.1,4.1-3,3C779.5,112,779.5,111,779.5,110z"/>
		<path class="st63" d="M779.5,128c-1,0-2,0-3,0c0-2,0-4,0-6c1.1-0.8,2.2-0.8,3.3,0.1C780.9,124.1,781.1,126.1,779.5,128z"/>
		<path class="st23" d="M776.5,128c0,1,0,2,0,3c-0.9,0-1.8,0-3,0c0-1.2,0-2.1,0-3C774.5,128,775.5,128,776.5,128z"/>
		<path class="st76" d="M779.5,119c0-1,0-2,0-3c0.9-0.8,1.9-0.9,3-0.3c0.9,0.9,0.9,1.9,0.5,3c-0.7,1.1-1.7,1.2-2.9,0.8
			C779.9,119.3,779.7,119.2,779.5,119z"/>
		<path class="st76" d="M779.5,122c-1,0-2,0-3,0c0-0.9,0-1.8,0-3c1.2,0,2.1,0,3,0c0.8,0.7,0.9,1.6,0.5,2.5
			C779.8,121.7,779.6,121.8,779.5,122z"/>
		<path class="st68" d="M782.5,116c-1,0-2,0-3,0c0-1,0-2,0-3c0.9,0,1.8,0,3,0c0-1.2,0-2.1,0-3c1,0,2,0,3,0c0,0.8,0,1.6,0,2.7
			c1.9,0.6,4,0.2,6,0.3c0,1,0,2,0,3c-0.9,0.8-2,1.3-3.2,1.3C786.2,117.5,784.2,117.5,782.5,116z"/>
		<path class="st63" d="M794.5,128c-1,0-2,0-3,0c-1.6-1.9-1.5-3.9-0.3-5.9c1.1-0.9,2.2-0.9,3.3-0.1C794.5,124,794.5,126,794.5,128z"
			/>
		<path class="st23" d="M794.5,131c0-1,0-2,0-3c1,0,2,0,3,0c0,0.9,0,1.8,0,3C796.3,131,795.4,131,794.5,131z"/>
		<path class="st76" d="M794.5,122c-1,0-2,0-3,0c-0.2-0.2-0.3-0.3-0.5-0.5c-0.3-0.7-0.3-1.3,0-2c0.2-0.2,0.3-0.3,0.5-0.5
			c0.9,0,1.8,0,3,0C794.5,120.2,794.5,121.1,794.5,122z"/>
		<path class="st76" d="M788.5,116c1,0,2,0,3,0c0,1,0,2,0,3c-1,0.8-2.1,0.9-3.2,0.2C787.5,118.1,787.7,117,788.5,116z"/>
		<path class="st28" d="M788.5,128c-2,0-4,0-6,0c-1.7-2-1.5-4-0.1-6.1c2.1-1.5,4.1-1.5,6.2,0C790,123.9,790.2,126,788.5,128z"/>
		<path class="st24" d="M788.5,128c0-2,0-4,0-6c0.2-0.2,0.3-0.3,0.5-0.5c0.9-0.4,1.8-0.3,2.5,0.5c0,2,0,4,0,6c0,1,0,2,0,3
			c-0.9,0-1.8,0-3,0C788.5,129.8,788.5,128.9,788.5,128z"/>
		<path class="st24" d="M782.5,122c0,2,0,4,0,6c0,0.9,0,1.8,0,3c-1.2,0-2.1,0-3,0c0-1,0-2,0-3c0-2,0-4,0-6c0.7-0.8,1.6-0.9,2.5-0.5
			C782.1,121.7,782.3,121.8,782.5,122z"/>
		<path class="st62" d="M788.5,122c-2,0-4,0-6,0c-0.8-1-0.8-2,0-3c0-1,0-2,0-3c2,0,4,0,6,0c0,1,0,2,0,3
			C789.3,120,789.3,121,788.5,122z"/>
		<circle class="st68" cx="781" cy="120.5" r="2.1"/>
		<circle class="st68" cx="790" cy="120.5" r="2.1"/>
	</g>
</g>
</svg>
