<?xml version="1.0" encoding="utf-8"?>
<!-- Generator: Adobe Illustrator 26.0.1, SVG Export Plug-In . SVG Version: 6.00 Build 0)  -->
<svg version="1.1" id="Layer_1" xmlns="http://www.w3.org/2000/svg" xmlns:xlink="http://www.w3.org/1999/xlink" x="0px" y="0px"
	 viewBox="0 0 905 229" style="enable-background:new 0 0 905 229;" xml:space="preserve">
<style type="text/css">
	.st0{fill:#707070;}
	.st1{fill:#FFFFFF;}
</style>
<g>
	<g>
		<path class="st0" d="M902.4,227c-300,0-599.9,0-899.9,0c0-75,0-150,0-225c300,0,599.9,0,899.9,0C902.4,77,902.4,152,902.4,227z
			 M446.5,80c-3,0-5.9,0-9,0c0,6,0,11.6,0,17.3c0,0.1-0.1,0.3-0.2,0.4c-0.1,0.1-0.2,0.2-0.6,0.5c-2.6,0-5.3,0-8.1,0
			c-0.6,19.8-0.4,49.6,0.4,53.6c20.8,0,41.5,0,62.2,0c0-18,0-35.9,0-54c-3,0-5.8,0-8.8,0c0-5.8,0-11.4,0-17.1c0-0.1-0.1-0.3-0.2-0.4
			c-0.1-0.1-0.2-0.2-0.3-0.3c-2.9,0-5.7,0-8.5,0c0-3,0-5.9,0-9c-9,0-17.6,0-26.2,0c-0.1,0-0.3,0.1-0.4,0.2c-0.1,0.1-0.2,0.2-0.3,0.4
			C446.5,74.3,446.5,77.2,446.5,80z M206.7,136.8c4.1,0,7.9,0,11.7,0c0-5,0-9.7,0-14.5c0-0.1-0.2-0.2-0.6-0.5c-0.6,0-1.3,0-2.1,0
			c-0.1-1-0.2-1.8-0.3-2.6c-1-0.2-1.9-0.3-2.7-0.4c0-2,0-3.8,0-5.9c2,0,4,0,6,0c0-1.1,0-1.9,0-2.7c1-0.1,1.7-0.2,2.6-0.3
			c0-4.9,0-9.8,0-14.7c-1-0.1-1.8-0.2-2.6-0.3c-0.2-1-0.3-1.9-0.5-2.8c-1-0.1-1.8-0.1-2.5-0.1c-0.2-1.1-0.4-2-0.6-3.1
			c-0.9,0-1.7,0-2.5,0c-0.1-1-0.2-1.7-0.3-2.6c-7.9,0-15.8,0-23.7,0c-0.1,1-0.2,1.8-0.3,2.6c-1,0.2-1.9,0.3-2.8,0.4
			c-0.1,1-0.1,1.8-0.1,2.5c-1.1,0.2-2,0.4-3.1,0.6c0,1.9,0,3.7,0,5.5c-1,0.1-1.7,0.2-2.9,0.3c0,1.9,0,3.8,0,5.7
			c-1.1,0.1-1.9,0.2-3.1,0.3c0,3,0,5.9,0,8.8c-1.1,0.1-1.9,0.1-3,0.2c0,3.1,0,6,0,9.1c-1.1,0-1.9,0-2.8,0c0,5,0,9.7,0,14.6
			c5,0,9.9,0,15,0c0-2,0-3.8,0-5.6c1.1-0.2,2-0.3,3.1-0.5c0-2,0-3.7,0-5.5c3.1,0,6,0,9,0c0,1,0,1.8,0,2.6c1.1,0.2,2,0.3,3,0.5
			c0,1,0,1.8,0,2.5c1,0.1,1.8,0.2,2.6,0.3c0.2,1,0.3,1.9,0.5,2.8c1,0.1,1.8,0.1,2.6,0.1C206.5,135.1,206.6,135.9,206.7,136.8z
			 M98.4,92.2c0,3.1,0,5.9,0,8.7c-1,0.1-1.7,0.2-2.9,0.3c0,3.9,0,7.8,0,11.7c-2.1,0-3.9,0-5.7,0c-0.2-1-0.3-2-0.5-2.7
			c-2,0-3.8,0-5.5,0c-0.2,1.1-0.4,2-0.5,2.7c-1,0-1.8,0-2.6,0c-0.1-1-0.2-1.8-0.3-2.6c-1-0.2-1.9-0.3-2.9-0.5c0-5,0-9.7,0-14.5
			c-1.1-0.2-2-0.4-3.1-0.6c0-0.9,0-1.7,0-2.5c-1.1-0.2-2-0.3-3-0.5c0-2,0-3.8,0-5.6c-2,0-3.8,0-5.6,0c-0.2,1-0.3,1.9-0.5,2.8
			c-1,0-1.8,0.1-2.5,0.1c-0.2,1.2-0.4,2.1-0.6,3.1c-0.9,0-1.7,0-2.5,0c0,7,0,13.7,0,20.6c1,0.2,1.9,0.3,3,0.5c0,4,0,7.7,0,11.5
			c1.1,0.2,2,0.3,3.1,0.5c0,1,0,1.7,0,2.5c1.1,0.2,2,0.4,3,0.6c0,2,0,3.8,0,5.5c1,0.1,1.8,0.2,2.6,0.3c0.2,1,0.3,1.9,0.4,2.7
			c3,0,5.8,0,8.6,0c0.2-1.1,0.4-2,0.5-2.7c3,0,5.8,0,8.6,0c0.1,1,0.2,1.7,0.3,2.6c3.9,0,7.8,0,11.7,0c0.1-1,0.2-1.8,0.3-2.6
			c1-0.2,1.9-0.3,2.8-0.5c0-1,0.1-1.8,0.1-2.5c1.2-0.2,2.1-0.4,3.1-0.6c0-2.9,0-5.7,0-8.5c1-0.1,1.8-0.2,2.9-0.3c0-2.9,0-5.8,0-8.7
			c1.1-0.1,1.9-0.2,2.7-0.2c0-6.1,0-12,0-18c-1,0-1.8,0-2.6,0c-0.2-1.1-0.4-2-0.5-3c-1,0-1.8,0-2.5,0c-0.1-1-0.2-1.8-0.3-2.6
			c-2,0-3.9,0-5.8,0c-0.1,1-0.1,1.8-0.2,2.6C100.5,91.9,99.7,92,98.4,92.2z M167.4,124.9c0-8.1,0-15.9,0-23.7
			c-1-0.1-1.7-0.2-2.9-0.3c0-1.9,0-3.8,0-5.7c-1.1-0.1-1.9-0.2-2.7-0.3c-0.2-1-0.3-1.9-0.5-3c-1,0-1.7,0-2.5,0c-0.2-1.1-0.4-2-0.6-3
			c-3,0-5.7,0-8.5,0c-0.1-1-0.2-1.8-0.3-2.6c-3,0-5.9,0-8.7,0c-0.1,1-0.1,1.8-0.2,2.9c-3,0-6,0-9,0c0,1.1,0,1.9,0,2.7
			c-1.1,0.2-2,0.3-3,0.5c0,1,0,1.8,0,2.5c-1,0.1-1.8,0.2-2.6,0.3c-0.2,1-0.3,1.9-0.5,2.8c-1,0.1-1.8,0.1-2.9,0.2c0,3.1,0,6,0,9.1
			c-1.1,0-1.9,0-2.7,0c0,6,0,11.7,0,17.6c1,0.2,1.9,0.3,2.8,0.4c0.1,1,0.2,1.8,0.3,2.6c1,0.2,1.9,0.3,3,0.5c0,1,0,1.7,0,2.5
			c1.1,0.2,2,0.4,3,0.6c0,1,0,1.7,0,2.7c2,0,3.8,0,5.6,0c0.2,1.1,0.3,2,0.4,2.8c6,0,11.8,0,17.6,0c0.2-1,0.4-2,0.5-3
			c2,0,3.7,0,5.5,0c0.2-1.1,0.3-2,0.5-3c1,0,1.8,0,2.5,0c0.1-1,0.2-1.8,0.3-2.6c1-0.2,1.9-0.3,2.8-0.5c0.1-1,0.1-1.8,0.1-2.6
			C165.6,125.1,166.4,125,167.4,124.9z M266.5,116c0,2.4,0,4.8,0,7.3c0,2.6-0.1,5.2,0.1,7.9c1.2,0,2,0,3,0c0,2,0,3.8,0,5.6
			c7.1,0,14,0,20.8,0c0.1-1,0.1-1.8,0.2-2.6c1.1-0.2,2-0.4,3-0.5c0-1,0-1.7,0-2.5c1.1-0.2,2-0.3,3-0.5c0-1,0-1.8,0-2.5
			c1-0.1,1.8-0.2,2.9-0.3c0-1.9,0-3.8,0-5.7c1.1-0.1,1.9-0.1,2.7-0.2c0-4.1,0-8,0-12.1c-1,0-1.8,0-2.6,0c-0.5-3,0.2-6-0.5-9
			c-1,0-1.8,0-2.8,0c0-2,0-3.8,0-5.6c-1.1-0.2-2-0.3-2.9-0.4c-0.1-1-0.1-1.8-0.2-2.5c-1.1-0.2-2-0.4-3.1-0.6c0-1,0-1.7,0-2.5
			c-1.1-0.2-2-0.3-3-0.5c0-1,0-1.8,0-2.6c-8,0-15.7,0-23.6,0c-0.2,1-0.3,1.9-0.4,2.8c-1,0.1-1.8,0.2-2.6,0.2c0,5.1,0,9.9,0,15
			c1,0,1.8,0,2.9,0c0,4,0,7.7,0,11.5c0,0.1,0.2,0.2,0.3,0.4C264.7,116,265.4,116,266.5,116z M356.5,94.8c-1.3,0-2.1,0-3,0
			c0-2,0-3.7,0-5.6c-1.1-0.2-2-0.3-2.9-0.4c-0.1-1-0.2-1.8-0.3-2.6c-6,0-11.9,0-17.8,0c-0.1,1-0.1,1.8-0.1,2.7
			c-2.1,0.1-4,0.2-6.1,0.3c0,1.1,0,1.9,0,2.7c-1,0.1-1.7,0.2-2.6,0.3c-0.1,0.9-0.3,1.9-0.4,2.7c-1,0.1-1.8,0.2-2.6,0.2
			c0,3,0,5.9,0,9c1,0,1.8,0,2.6,0c0.2,1.1,0.4,2,0.5,2.7c2,0,3.8,0,5.6,0c0.1-1,0.2-1.8,0.3-2.6c0.9-0.1,1.9-0.3,2.7-0.4
			c0.1-1,0.1-1.8,0.2-2.5c3.1,0,6,0,9,0c0,1,0,1.8,0,2.6c1.1,0.2,2,0.4,2.7,0.5c0,1.1,0,1.8,0,2.6c-1,0.1-1.8,0.2-2.6,0.3
			c-0.2,1-0.3,1.9-0.5,2.9c-3,0-5.7,0-8.5,0c0,2.1,0,4,0,6c2,0,3.8,0,5.6,0c0.2,1.1,0.3,2,0.5,3c2,0,3.8,0,5.6,0c0,3,0,5.8,0,8.6
			c-3,0-5.9,0-8.8,0c-0.1-1-0.1-1.8-0.2-2.5c-1.1-0.2-2-0.4-3.1-0.6c0-1.9,0-3.7,0-5.7c-3.1,0.1-6-0.1-9,0.2c0,1.2,0,2,0,2.7
			c-1,0.1-1.8,0.2-2.6,0.3c0,4,0,7.9,0,11.8c1,0.1,1.8,0.1,2.5,0.1c0.2,1.1,0.4,2,0.6,3.1c0.9,0,1.7,0,2.5,0c0.1,1,0.2,1.7,0.3,2.9
			c1.9,0,3.8,0,5.7,0c0.1,1.1,0.2,1.9,0.3,2.7c4,0,7.9,0,11.8,0c0-1,0.1-1.8,0.1-2.8c1.7,0,3.2,0,4.7,0c1.4,0,2.9-0.1,4.5-0.2
			c0-2.1,0-3.9,0-5.7c1-0.1,1.7-0.2,2.6-0.3c0.1-0.9,0.3-1.9,0.4-2.7c1-0.1,1.8-0.2,2.6-0.2c0-5,0-9.9,0-15c-1,0-1.8,0-2.7,0
			C356.5,108.9,356.5,102.1,356.5,94.8z M230.7,136.8c7.1,0,13.9,0,20.7,0c0.1-0.9,0.2-1.7,0.3-2.9c1.9,0,3.8,0,5.7,0
			c0-3.1,0-5.9,0-9c-2,0-3.9,0-5.8,0c-0.1-1.1-0.2-1.9-0.3-3c-2.9,0-5.9,0-8.7,0c0-2.1,0-3.9,0-5.7c1-0.2,2-0.4,3-0.5
			c0-1.9,0-3.7,0-5.5c1-0.1,1.7-0.2,2.9-0.3c0-3.9,0-7.8,0-11.7c1.1-0.1,1.9-0.2,2.8-0.3c0-2.9,0-5.8,0-8.7c-1-0.1-1.8-0.2-2.6-0.3
			c-0.2-1-0.3-1.9-0.4-2.7c-2,0-3.8,0-5.5,0c-0.2,1.1-0.4,2-0.6,3c-0.9,0-1.7,0-2.5,0c-0.2,1.1-0.3,2-0.5,3c-1,0-1.8,0-2.6,0
			c-0.1,1-0.2,1.8-0.3,2.6c-1,0.2-1.9,0.3-3,0.5c0,2,0,3.7,0,5.5c-1.1,0.2-2,0.4-3,0.6c0,2.9,0,5.7,0,8.5c-1,0.1-1.7,0.2-2.9,0.3
			c0,2.9,0,5.8,0,8.7c-1.1,0.1-1.9,0.2-2.8,0.3c0,3.9,0,7.8,0,11.7c1,0.1,1.8,0.2,2.6,0.3c0.2,1,0.3,1.9,0.5,2.8
			c1,0.1,1.8,0.1,2.6,0.1C230.5,135.1,230.6,135.9,230.7,136.8z"/>
		<path class="st1" d="M473.5,80c2.8,0,5.7,0,8.5,0c0.1,0.1,0.2,0.2,0.3,0.3c0.1,0.1,0.2,0.3,0.2,0.4c0,5.6,0,11.3,0,17.1
			c3,0,5.7,0,8.8,0c0,18.1,0,35.9,0,54c-20.7,0-41.5,0-62.2,0c-0.8-4-1-33.9-0.4-53.6c2.8,0,5.5,0,8.1,0c0.3-0.3,0.5-0.4,0.6-0.5
			c0.1-0.1,0.2-0.3,0.2-0.4c0-5.6,0-11.3,0-17.3c3.1,0,6,0,9,0c0,5.9,0,11.9,0,18c9,0,17.6,0,26.2,0c0.1,0,0.3-0.1,0.4-0.2
			c0.1-0.1,0.2-0.2,0.3-0.4C473.5,91.7,473.5,85.8,473.5,80z"/>
		<path class="st1" d="M206.7,136.8c-0.1-1-0.2-1.7-0.3-2.8c-0.8,0-1.6-0.1-2.6-0.1c-0.1-0.9-0.3-1.8-0.5-2.8
			c-0.8-0.1-1.6-0.2-2.6-0.3c0-0.8,0-1.5,0-2.5c-1.1-0.2-2-0.3-3-0.5c0-0.8,0-1.5,0-2.6c-3.1,0-6,0-9,0c0,1.7,0,3.5,0,5.5
			c-1.1,0.2-2,0.3-3.1,0.5c0,1.8,0,3.6,0,5.6c-5.1,0-10,0-15,0c0-4.9,0-9.7,0-14.6c0.8,0,1.6,0,2.8,0c0-3.1,0-6,0-9.1
			c1.1-0.1,1.9-0.1,3-0.2c0-2.9,0-5.8,0-8.8c1.1-0.1,1.9-0.2,3.1-0.3c0-1.9,0-3.8,0-5.7c1.1-0.1,1.9-0.2,2.9-0.3c0-1.8,0-3.6,0-5.5
			c1.1-0.2,2-0.4,3.1-0.6c0-0.7,0.1-1.5,0.1-2.5c0.9-0.1,1.8-0.3,2.8-0.4c0.1-0.8,0.2-1.6,0.3-2.6c7.9,0,15.8,0,23.7,0
			c0.1,0.9,0.2,1.7,0.3,2.6c0.8,0,1.6,0,2.5,0c0.2,1.1,0.4,2,0.6,3.1c0.7,0,1.5,0.1,2.5,0.1c0.1,0.9,0.3,1.8,0.5,2.8
			c0.8,0.1,1.6,0.2,2.6,0.3c0,4.9,0,9.8,0,14.7c-0.9,0.1-1.7,0.2-2.6,0.3c0,0.8,0,1.6,0,2.7c-2.1,0-4,0-6,0c0,2.1,0,3.9,0,5.9
			c0.8,0.1,1.7,0.3,2.7,0.4c0.1,0.8,0.2,1.6,0.3,2.6c0.8,0,1.5,0,2.1,0c0.4,0.3,0.6,0.4,0.6,0.5c0,4.8,0,9.6,0,14.5
			C214.6,136.8,210.8,136.8,206.7,136.8z M191.6,109.8c3.2,0,6,0,8.7,0c0.2-1.1,0.4-2,0.5-3c1,0,1.7,0,2.7,0c-0.1-3.1,0.1-6-0.1-8.7
			c-3.2,0-6,0-8.7,0c-0.2,1.1-0.4,2-0.5,3c-1,0-1.7,0-2.6,0C191.6,104.1,191.6,106.9,191.6,109.8z"/>
		<path class="st1" d="M98.4,92.2c1.3-0.1,2.1-0.2,3.1-0.4c0-0.8,0.1-1.6,0.2-2.6c1.9,0,3.8,0,5.8,0c0.1,0.8,0.2,1.6,0.3,2.6
			c0.8,0,1.5,0,2.5,0c0.2,1.1,0.4,2,0.5,3c0.8,0,1.5,0,2.6,0c0,6.1,0,12,0,18c-0.8,0.1-1.6,0.1-2.7,0.2c0,2.9,0,5.8,0,8.7
			c-1.1,0.1-1.9,0.2-2.9,0.3c0,2.8,0,5.6,0,8.5c-1.1,0.2-2,0.4-3.1,0.6c0,0.7-0.1,1.5-0.1,2.5c-0.9,0.1-1.8,0.3-2.8,0.5
			c-0.1,0.8-0.2,1.6-0.3,2.6c-3.9,0-7.8,0-11.7,0c-0.1-0.9-0.2-1.7-0.3-2.6c-2.8,0-5.6,0-8.6,0c-0.1,0.7-0.3,1.6-0.5,2.7
			c-2.8,0-5.5,0-8.6,0c-0.1-0.8-0.3-1.7-0.4-2.7c-0.8-0.1-1.6-0.2-2.6-0.3c0-1.7,0-3.5,0-5.5c-1.1-0.2-2-0.4-3-0.6
			c0-0.8,0-1.5,0-2.5c-1.1-0.2-2-0.3-3.1-0.5c0-3.8,0-7.6,0-11.5c-1.1-0.2-2-0.3-3-0.5c0-6.9,0-13.6,0-20.6c0.8,0,1.6,0,2.5,0
			c0.2-1.1,0.4-2,0.6-3.1c0.7,0,1.5-0.1,2.5-0.1c0.1-0.9,0.3-1.8,0.5-2.8c1.8,0,3.6,0,5.6,0c0,1.7,0,3.5,0,5.6c1.1,0.2,2,0.3,3,0.5
			c0,0.8,0,1.5,0,2.5c1.1,0.2,2,0.4,3.1,0.6c0,4.8,0,9.6,0,14.5c1.1,0.2,2,0.3,2.9,0.5c0.1,0.8,0.2,1.6,0.3,2.6c0.8,0,1.5,0,2.6,0
			c0.1-0.7,0.3-1.6,0.5-2.7c1.7,0,3.5,0,5.5,0c0.1,0.8,0.3,1.7,0.5,2.7c1.8,0,3.6,0,5.7,0c0-3.9,0-7.8,0-11.7
			c1.1-0.1,1.9-0.2,2.9-0.3C98.4,98.1,98.4,95.3,98.4,92.2z"/>
		<path class="st1" d="M167.4,124.9c-1,0.1-1.7,0.2-2.8,0.3c0,0.8-0.1,1.6-0.1,2.6c-0.9,0.1-1.8,0.3-2.8,0.5
			c-0.1,0.8-0.2,1.6-0.3,2.6c-0.8,0-1.5,0-2.5,0c-0.2,1.1-0.3,2-0.5,3c-1.7,0-3.5,0-5.5,0c-0.2,1.1-0.4,2-0.5,3
			c-5.8,0-11.6,0-17.6,0c-0.1-0.8-0.3-1.7-0.4-2.8c-1.8,0-3.6,0-5.6,0c0-1,0-1.7,0-2.7c-1.1-0.2-2-0.4-3-0.6c0-0.7,0-1.5,0-2.5
			c-1.1-0.2-2-0.3-3-0.5c-0.1-0.8-0.2-1.6-0.3-2.6c-0.9-0.1-1.8-0.3-2.8-0.4c0-5.9,0-11.6,0-17.6c0.8,0,1.6,0,2.7,0c0-3.1,0-6,0-9.1
			c1.1-0.1,1.9-0.1,2.9-0.2c0.1-0.9,0.3-1.8,0.5-2.8c0.8-0.1,1.6-0.2,2.6-0.3c0-0.8,0-1.5,0-2.5c1.1-0.2,2-0.3,3-0.5
			c0-0.8,0-1.5,0-2.7c3.1,0,6,0,9,0c0.1-1.1,0.2-1.9,0.2-2.9c2.9,0,5.8,0,8.7,0c0.1,0.8,0.2,1.6,0.3,2.6c2.8,0,5.5,0,8.5,0
			c0.2,1.1,0.4,2,0.6,3c0.7,0,1.5,0,2.5,0c0.2,1.1,0.3,2,0.5,3c0.8,0.1,1.6,0.2,2.7,0.3c0,1.9,0,3.8,0,5.7c1.1,0.1,1.9,0.2,2.9,0.3
			C167.4,108.9,167.4,116.7,167.4,124.9z M149.4,100.8c-2.2,0-4,0-5.8,0c-0.1-1-0.2-1.7-0.3-2.6c-3,0-5.9,0-8.7,0
			c-0.1,1-0.2,1.8-0.2,2.6c-1,0.2-2,0.3-2.7,0.5c0,4,0,7.8,0,11.5c1.1,0.2,2,0.4,3,0.6c0,1,0,1.8,0,2.5c4,0,7.8,0,11.6,0
			c0.2-1,0.3-1.9,0.5-2.8c1-0.1,1.8-0.1,2.7-0.2C149.4,108.9,149.4,105.1,149.4,100.8z"/>
		<path class="st1" d="M266.5,116c-1.2,0-1.8,0-2.5,0c-0.1-0.1-0.3-0.2-0.3-0.4c0-3.8,0-7.6,0-11.5c-1.1,0-1.9,0-2.9,0
			c0-5.1,0-10,0-15c0.8-0.1,1.6-0.1,2.6-0.2c0.1-0.9,0.3-1.8,0.4-2.8c7.8,0,15.6,0,23.6,0c0,0.8,0,1.6,0,2.6c1.1,0.2,2,0.3,3,0.5
			c0,0.8,0,1.5,0,2.5c1.1,0.2,2,0.4,3.1,0.6c0.1,0.8,0.1,1.6,0.2,2.5c0.9,0.1,1.8,0.3,2.9,0.4c0,1.8,0,3.6,0,5.6c1,0,1.7,0,2.8,0
			c0.7,3-0.1,6,0.5,9c0.8,0,1.5,0,2.6,0c0,4.1,0,8,0,12.1c-0.7,0.1-1.5,0.1-2.7,0.2c0,1.9,0,3.8,0,5.7c-1.1,0.1-1.9,0.2-2.9,0.3
			c0,0.8,0,1.5,0,2.5c-1.1,0.2-2,0.3-3,0.5c0,0.8,0,1.5,0,2.5c-1.1,0.2-2,0.4-3,0.5c-0.1,0.8-0.1,1.6-0.2,2.6c-6.9,0-13.8,0-20.8,0
			c0-1.8,0-3.6,0-5.6c-0.9,0-1.7,0-3,0c-0.2-2.7-0.1-5.3-0.1-7.9C266.5,120.8,266.5,118.4,266.5,116z M287.4,107.3
			c-0.8-0.2-1.9-0.4-3-0.6c0-1,0-1.8,0-2.6c-3,0-5.7,0-8.6,0c0,4,0,7.9,0,11.7c1.1,0.2,2,0.3,3,0.5c0,1,0,1.8,0,2.6c3,0,5.7,0,8.7,0
			C287.4,115,287.4,111.3,287.4,107.3z"/>
		<path class="st1" d="M356.5,94.8c0,7.3,0,14.1,0,21c1,0,1.7,0,2.7,0c0,5.1,0,10,0,15c-0.8,0.1-1.6,0.1-2.6,0.2
			c-0.1,0.9-0.3,1.8-0.4,2.7c-0.9,0.1-1.7,0.2-2.6,0.3c0,1.8,0,3.6,0,5.7c-1.6,0.1-3,0.1-4.5,0.2c-1.5,0-2.9,0-4.7,0
			c0,1-0.1,1.8-0.1,2.8c-3.9,0-7.8,0-11.8,0c-0.1-0.8-0.2-1.6-0.3-2.7c-1.9,0-3.8,0-5.7,0c-0.1-1.1-0.2-1.9-0.3-2.9
			c-0.8,0-1.6,0-2.5,0c-0.2-1.1-0.4-2-0.6-3.1c-0.7,0-1.5-0.1-2.5-0.1c0-3.9,0-7.8,0-11.8c0.8-0.1,1.6-0.2,2.6-0.3
			c0-0.8,0-1.5,0-2.7c3.1-0.3,6-0.1,9-0.2c0,1.9,0,3.7,0,5.7c1.1,0.2,2,0.4,3.1,0.6c0,0.7,0.1,1.5,0.2,2.5c2.9,0,5.8,0,8.8,0
			c0-2.8,0-5.6,0-8.6c-1.7,0-3.5,0-5.6,0c-0.2-1.1-0.3-2-0.5-3c-1.7,0-3.5,0-5.6,0c0-2.1,0-4,0-6c2.7,0,5.5,0,8.5,0
			c0.2-1.1,0.3-2,0.5-2.9c0.8-0.1,1.6-0.2,2.6-0.3c0-0.8,0-1.5,0-2.6c-0.7-0.1-1.6-0.3-2.7-0.5c0-0.8,0-1.5,0-2.6c-3.1,0-6,0-9,0
			c-0.1,0.8-0.1,1.5-0.2,2.5c-0.9,0.1-1.8,0.3-2.7,0.4c-0.1,0.8-0.2,1.6-0.3,2.6c-1.8,0-3.5,0-5.6,0c-0.1-0.7-0.3-1.6-0.5-2.7
			c-0.7,0-1.5,0-2.6,0c0-3.1,0-6,0-9c0.8-0.1,1.6-0.1,2.6-0.2c0.1-0.9,0.3-1.8,0.4-2.7c0.9-0.1,1.7-0.2,2.6-0.3c0-0.8,0-1.6,0-2.7
			c2.1-0.1,4-0.2,6.1-0.3c0-0.9,0.1-1.6,0.1-2.7c5.9,0,11.8,0,17.8,0c0.1,0.8,0.2,1.6,0.3,2.6c0.9,0.1,1.8,0.3,2.9,0.4
			c0,1.8,0,3.6,0,5.6C354.4,94.8,355.2,94.8,356.5,94.8z"/>
		<path class="st1" d="M230.7,136.8c-0.1-1-0.2-1.8-0.3-2.8c-0.8,0-1.6-0.1-2.6-0.1c-0.1-0.9-0.3-1.8-0.5-2.8
			c-0.8-0.1-1.6-0.2-2.6-0.3c0-3.9,0-7.8,0-11.7c0.9-0.1,1.7-0.2,2.8-0.3c0-2.9,0-5.8,0-8.7c1.1-0.1,1.9-0.2,2.9-0.3
			c0-2.8,0-5.6,0-8.5c1-0.2,2-0.4,3-0.6c0-1.8,0-3.5,0-5.5c1.1-0.2,2-0.3,3-0.5c0.1-0.8,0.2-1.6,0.3-2.6c0.7,0,1.5,0,2.6,0
			c0.2-1.1,0.3-2,0.5-3c0.8,0,1.5,0,2.5,0c0.2-1.1,0.4-2,0.6-3c1.8,0,3.5,0,5.5,0c0.1,0.8,0.3,1.7,0.4,2.7c0.8,0.1,1.6,0.2,2.6,0.3
			c0,2.9,0,5.8,0,8.7c-0.9,0.1-1.7,0.2-2.8,0.3c0,3.9,0,7.8,0,11.7c-1.1,0.1-1.9,0.2-2.9,0.3c0,1.8,0,3.6,0,5.5
			c-1.1,0.2-2,0.4-3,0.5c0,1.8,0,3.6,0,5.7c2.8,0,5.7,0,8.7,0c0.1,1.1,0.2,1.9,0.3,3c1.9,0,3.8,0,5.8,0c0,3.1,0,5.9,0,9
			c-1.9,0-3.8,0-5.7,0c-0.1,1.1-0.2,1.9-0.3,2.9C244.6,136.8,237.8,136.8,230.7,136.8z"/>
		<path class="st1" d="M446.5,80c0-2.8,0-5.7,0-8.5c0.1-0.1,0.2-0.3,0.3-0.4c0.1-0.1,0.3-0.2,0.4-0.2c8.6,0,17.3,0,26.2,0
			c0,3.1,0,6,0,9C464.5,80,455.5,80,446.5,80z"/>
		<path class="st0" d="M446.5,80c9,0,18,0,27,0c0,5.8,0,11.6,0,17.5c-0.1,0.1-0.2,0.3-0.3,0.4c-0.1,0.1-0.3,0.2-0.4,0.2
			c-8.6,0-17.3,0-26.2,0C446.5,91.9,446.5,86,446.5,80z"/>
		<path class="st0" d="M191.6,109.8c0-2.9,0-5.7,0-8.7c0.8,0,1.6,0,2.6,0c0.2-1,0.4-1.9,0.5-3c2.7,0,5.5,0,8.7,0
			c0.2,2.7,0,5.6,0.1,8.7c-0.9,0-1.7,0-2.7,0c-0.2,1-0.4,1.9-0.5,3C197.6,109.8,194.8,109.8,191.6,109.8z"/>
		<path class="st0" d="M149.4,100.8c0,4.3,0,8.1,0,12.1c-0.9,0.1-1.7,0.1-2.7,0.2c-0.1,0.9-0.3,1.8-0.5,2.8c-3.8,0-7.6,0-11.6,0
			c0-0.8,0-1.6,0-2.5c-1.1-0.2-2-0.4-3-0.6c0-3.8,0-7.5,0-11.5c0.7-0.1,1.7-0.3,2.7-0.5c0.1-0.8,0.1-1.6,0.2-2.6c2.9,0,5.8,0,8.7,0
			c0.1,0.9,0.2,1.7,0.3,2.6C145.5,100.8,147.2,100.8,149.4,100.8z"/>
		<path class="st0" d="M287.4,107.3c0,4,0,7.8,0,11.6c-2.9,0-5.7,0-8.7,0c0-0.8,0-1.6,0-2.6c-1-0.2-1.9-0.3-3-0.5
			c0-3.9,0-7.7,0-11.7c2.9,0,5.7,0,8.6,0c0,0.8,0,1.6,0,2.6C285.5,106.9,286.5,107.1,287.4,107.3z"/>
	</g>
</g>
</svg>
